<svg xmlns="http://www.w3.org/2000/svg" xmlns:xlink="http://www.w3.org/1999/xlink" width="500" zoomAndPan="magnify" viewBox="0 0 375 374.999991" height="500" preserveAspectRatio="xMidYMid meet" version="1.0"><defs><g><g id="id1"/><g id="id2"/><g id="id3"/><g id="id4"/><g id="id5"/><g id="id6"/><g id="id7"/><g id="id8"/><g id="id9"/><g id="id10"/><g id="id11"/><g id="id12"/><g id="id13"/></g><clipPath id="id14"><path d="M 43.816406 56.816406 L 89.566406 56.816406 L 89.566406 101.066406 L 43.816406 101.066406 Z M 43.816406 56.816406 " clip-rule="nonzero"/></clipPath><clipPath id="id15"><path d="M 302.609375 267.378906 L 337.859375 267.378906 L 337.859375 301.128906 L 302.609375 301.128906 Z M 302.609375 267.378906 " clip-rule="nonzero"/></clipPath></defs><g clip-path="url(#id14)"><path fill="rgb(36.468506%, 31.369019%, 15.289307%)" d="M 80.207031 56.828125 L 71.550781 75.023438 L 89.566406 83.746094 L 69.753906 81.085938 L 67.078125 101.050781 L 63.492188 81.230469 L 43.816406 84.847656 L 61.414062 75.234375 L 51.914062 57.539062 L 66.375 71.40625 Z M 80.207031 56.828125 " fill-opacity="1" fill-rule="nonzero"/></g><g fill="rgb(0%, 0%, 0%)" fill-opacity="1"><g transform="translate(98.932242, 166.231497)"><g><path d="M 31.644531 -17.199219 C 31.605469 -17.609375 31.269531 -17.867188 30.859375 -17.832031 C 28.179688 -17.496094 25.648438 -17.011719 23.304688 -16.34375 C 24.199219 -20.289062 25.054688 -23.972656 25.796875 -27.027344 C 27.0625 -32.3125 26.839844 -35.140625 25.054688 -35.699219 C 22.894531 -36.371094 19.953125 -32.535156 18.800781 -29.484375 C 17.535156 -26.023438 18.242188 -23.304688 20.699219 -22.222656 C 21.070312 -22.039062 21.480469 -22.222656 21.628906 -22.558594 C 21.816406 -22.933594 21.628906 -23.339844 21.292969 -23.527344 C 18.910156 -24.570312 19.582031 -27.398438 20.175781 -29 C 21.367188 -32.203125 23.789062 -34.585938 24.644531 -34.324219 C 25.015625 -34.210938 25.6875 -32.722656 24.382812 -27.363281 C 23.601562 -24.085938 22.671875 -20.101562 21.703125 -15.859375 C 18.316406 -14.742188 15.300781 -13.214844 12.695312 -11.316406 C 8.636719 -8.375 5.621094 -4.542969 3.796875 0 C 0.484375 8.152344 1.75 16.9375 4.839844 20.699219 C 6.292969 22.449219 7.964844 23.339844 9.679688 23.339844 C 10.015625 23.339844 10.386719 23.304688 10.757812 23.230469 C 13.363281 22.597656 15.375 19.617188 16.378906 14.890625 C 17.085938 11.613281 20.101562 -2.382812 22.933594 -14.777344 C 25.3125 -15.488281 27.996094 -16.042969 31.011719 -16.417969 C 31.417969 -16.453125 31.71875 -16.789062 31.644531 -17.199219 Z M 15.003906 14.59375 C 14.109375 18.761719 12.472656 21.332031 10.386719 21.851562 C 8.933594 22.1875 7.332031 21.441406 5.957031 19.804688 C 2.382812 15.449219 2.753906 6.402344 5.101562 0.519531 C 7.222656 -4.652344 11.6875 -10.832031 21.332031 -14.257812 C 18.578125 -2.085938 15.671875 11.390625 15.003906 14.59375 Z M 15.003906 14.59375 "/></g></g></g><g fill="rgb(0%, 0%, 0%)" fill-opacity="1"><g transform="translate(127.961644, 166.231497)"><g><path d="M 15.5625 -8.265625 C 15.226562 -8.414062 14.777344 -8.265625 14.628906 -7.929688 C 11.800781 -2.160156 9.679688 -0.335938 8.675781 -0.519531 C 8.265625 -0.59375 6.925781 -1.378906 6.589844 -7.890625 C 6.589844 -8.191406 6.367188 -8.449219 6.105469 -8.523438 C 5.808594 -8.597656 5.472656 -8.523438 5.324219 -8.265625 C 5.101562 -8.003906 4.875 -7.707031 4.652344 -7.371094 C 3.722656 -6.105469 2.496094 -4.394531 1.003906 -2.792969 C 0.78125 -2.53125 0.59375 -2.382812 0.484375 -2.308594 C 0.222656 -3.609375 1.601562 -8.597656 3.796875 -10.164062 C 4.429688 -10.609375 5.285156 -10.945312 6.441406 -9.605469 C 6.699219 -9.308594 7.148438 -9.269531 7.445312 -9.53125 C 7.742188 -9.753906 7.78125 -10.238281 7.558594 -10.535156 C 6.140625 -12.171875 4.800781 -12.136719 3.910156 -11.839844 C 1.042969 -10.832031 -0.894531 -5.324219 -0.96875 -2.792969 C -1.003906 -1.75 -0.707031 -1.078125 -0.113281 -0.855469 C 0.820312 -0.484375 1.75 -1.488281 2.046875 -1.824219 C 3.3125 -3.203125 4.46875 -4.691406 5.285156 -5.84375 C 5.695312 -1.601562 6.699219 0.519531 8.375 0.894531 C 8.523438 0.894531 8.675781 0.929688 8.824219 0.929688 C 11.355469 0.929688 14.070312 -3.5 15.894531 -7.296875 C 16.082031 -7.667969 15.933594 -8.078125 15.5625 -8.265625 Z M 15.5625 -8.265625 "/></g></g></g><g fill="rgb(0%, 0%, 0%)" fill-opacity="1"><g transform="translate(141.806431, 166.231497)"><g><path d="M 18.6875 -8.117188 C 18.390625 -8.375 17.945312 -8.339844 17.683594 -8.042969 C 16.15625 -6.253906 14.109375 -5.359375 12.433594 -5.808594 C 11.054688 -6.179688 10.050781 -7.519531 9.679688 -9.53125 C 9.605469 -9.863281 9.269531 -10.089844 8.933594 -10.089844 C 8.597656 -10.089844 8.300781 -9.828125 8.265625 -9.492188 C 7.484375 -3.910156 3.050781 2.753906 0.929688 3.460938 C 0.671875 3.535156 0.59375 3.5 0.59375 3.460938 C 0.410156 3.3125 -0.855469 1.5625 3.089844 -10.164062 C 3.203125 -10.535156 3.015625 -10.945312 2.644531 -11.054688 C 2.269531 -11.207031 1.863281 -10.980469 1.710938 -10.609375 C -2.605469 2.308594 -0.96875 3.945312 -0.445312 4.46875 C -0.222656 4.652344 0.148438 4.953125 0.707031 4.953125 C 0.894531 4.953125 1.117188 4.914062 1.378906 4.800781 C 2.753906 4.355469 4.617188 2.382812 6.292969 -0.410156 C 7.558594 -2.496094 8.523438 -4.726562 9.121094 -6.8125 C 9.828125 -5.585938 10.832031 -4.765625 12.0625 -4.429688 C 14.257812 -3.871094 16.863281 -4.914062 18.761719 -7.109375 C 19.023438 -7.40625 18.984375 -7.855469 18.6875 -8.117188 Z M 18.6875 -8.117188 "/></g></g></g><g fill="rgb(0%, 0%, 0%)" fill-opacity="1"><g transform="translate(159.372936, 166.231497)"><g><path d="M 15.5625 -8.265625 C 15.226562 -8.414062 14.777344 -8.265625 14.628906 -7.929688 C 11.800781 -2.160156 9.679688 -0.335938 8.675781 -0.519531 C 8.265625 -0.59375 6.925781 -1.378906 6.589844 -7.890625 C 6.589844 -8.191406 6.367188 -8.449219 6.105469 -8.523438 C 5.808594 -8.597656 5.472656 -8.523438 5.324219 -8.265625 C 5.101562 -8.003906 4.875 -7.707031 4.652344 -7.371094 C 3.722656 -6.105469 2.496094 -4.394531 1.003906 -2.792969 C 0.78125 -2.53125 0.59375 -2.382812 0.484375 -2.308594 C 0.222656 -3.609375 1.601562 -8.597656 3.796875 -10.164062 C 4.429688 -10.609375 5.285156 -10.945312 6.441406 -9.605469 C 6.699219 -9.308594 7.148438 -9.269531 7.445312 -9.53125 C 7.742188 -9.753906 7.78125 -10.238281 7.558594 -10.535156 C 6.140625 -12.171875 4.800781 -12.136719 3.910156 -11.839844 C 1.042969 -10.832031 -0.894531 -5.324219 -0.96875 -2.792969 C -1.003906 -1.75 -0.707031 -1.078125 -0.113281 -0.855469 C 0.820312 -0.484375 1.75 -1.488281 2.046875 -1.824219 C 3.3125 -3.203125 4.46875 -4.691406 5.285156 -5.84375 C 5.695312 -1.601562 6.699219 0.519531 8.375 0.894531 C 8.523438 0.894531 8.675781 0.929688 8.824219 0.929688 C 11.355469 0.929688 14.070312 -3.5 15.894531 -7.296875 C 16.082031 -7.667969 15.933594 -8.078125 15.5625 -8.265625 Z M 15.5625 -8.265625 "/></g></g></g><g fill="rgb(0%, 0%, 0%)" fill-opacity="1"><g transform="translate(173.217723, 166.231497)"><g><path d="M 16.566406 -8.523438 C 16.269531 -8.785156 15.820312 -8.75 15.5625 -8.449219 C 12.621094 -5.0625 8.003906 0.335938 7.257812 1.304688 C 7.035156 1.5625 6.8125 1.863281 6.589844 2.160156 C 6.292969 1.414062 5.917969 0.707031 5.433594 -0.0390625 C 3.648438 -2.792969 2.046875 -5.398438 2.121094 -7.222656 C 2.195312 -8.675781 2.941406 -9.941406 4.167969 -10.683594 C 5.175781 -11.28125 6.292969 -11.390625 7.148438 -10.980469 C 7.484375 -10.832031 7.929688 -10.980469 8.078125 -11.355469 C 8.265625 -11.6875 8.117188 -12.136719 7.742188 -12.285156 C 6.476562 -12.878906 4.839844 -12.730469 3.425781 -11.914062 C 1.785156 -10.90625 0.820312 -9.230469 0.707031 -7.296875 C 0.59375 -5.027344 2.234375 -2.308594 4.242188 0.746094 C 4.875 1.710938 5.285156 2.644531 5.546875 3.535156 C 2.644531 7.484375 -0.484375 12.546875 1.117188 14.109375 C 1.378906 14.371094 1.710938 14.480469 2.046875 14.480469 C 2.644531 14.480469 3.3125 14.183594 4.019531 13.625 C 6.03125 11.949219 8.117188 8.152344 7.109375 3.835938 C 7.519531 3.3125 7.929688 2.753906 8.375 2.195312 C 9.121094 1.265625 13.738281 -4.132812 16.640625 -7.519531 C 16.902344 -7.816406 16.863281 -8.265625 16.566406 -8.523438 Z M 4.46875 10.945312 C 3.460938 12.433594 2.457031 13.03125 2.121094 13.066406 C 1.972656 12.546875 2.457031 10.386719 5.917969 5.472656 C 6.066406 8.152344 4.953125 10.199219 4.46875 10.945312 Z M 4.46875 10.945312 "/></g></g></g><g fill="rgb(0%, 0%, 0%)" fill-opacity="1"><g transform="translate(188.216241, 166.231497)"><g><path d="M 12.285156 -8.449219 C 11.949219 -8.636719 11.503906 -8.5625 11.316406 -8.226562 C 8.785156 -4.394531 4.578125 2.011719 1.824219 1.414062 C 1.378906 1.304688 1.003906 1.003906 0.746094 0.519531 C 0 -0.820312 0.113281 -3.5 0.96875 -5.84375 C 1.898438 -8.339844 3.015625 -8.972656 3.238281 -8.933594 C 3.277344 -8.898438 3.5 -8.414062 3.203125 -7.257812 C 3.089844 -6.851562 3.3125 -6.476562 3.683594 -6.367188 C 4.09375 -6.292969 4.46875 -6.515625 4.578125 -6.886719 C 5.285156 -9.566406 4.058594 -10.164062 3.683594 -10.3125 C 2.308594 -10.722656 0.632812 -9.082031 -0.371094 -6.328125 C -1.226562 -4.019531 -1.601562 -0.746094 -0.484375 1.226562 C -0.0390625 2.085938 0.671875 2.605469 1.527344 2.792969 C 1.75 2.867188 1.972656 2.867188 2.195312 2.867188 C 5.433594 2.867188 8.933594 -2.011719 12.507812 -7.445312 C 12.730469 -7.78125 12.621094 -8.226562 12.285156 -8.449219 Z M 12.285156 -8.449219 "/></g></g></g><g fill="rgb(0%, 0%, 0%)" fill-opacity="1"><g transform="translate(199.232528, 166.231497)"><g><path d="M 16.34375 -8.414062 C 15.96875 -8.597656 15.523438 -8.449219 15.375 -8.078125 C 11.09375 0.929688 7.035156 5.546875 6.140625 5.398438 C 6.066406 5.359375 4.765625 4.09375 8.972656 -8.824219 C 9.082031 -9.15625 9.34375 -9.941406 8.75 -10.347656 C 8.191406 -10.796875 7.558594 -10.386719 6.515625 -9.679688 C 5.398438 -8.972656 3.871094 -7.964844 2.679688 -8.117188 C 6.476562 -14.667969 6.105469 -16.121094 5.25 -16.679688 C 3.910156 -17.460938 1.972656 -15.1875 1.078125 -13.886719 C -0.746094 -11.054688 -0.707031 -8.488281 1.226562 -7.183594 C 3.203125 -5.808594 5.769531 -7.484375 7.296875 -8.488281 C 7.332031 -8.523438 7.332031 -8.523438 7.371094 -8.5625 C 5.917969 -3.984375 4.988281 -0.371094 4.652344 2.121094 C 4.242188 4.875 4.542969 6.328125 5.585938 6.738281 C 5.769531 6.773438 5.917969 6.8125 6.105469 6.8125 C 9.082031 6.8125 14.257812 -2.34375 16.679688 -7.445312 C 16.828125 -7.816406 16.679688 -8.265625 16.34375 -8.414062 Z M 1.304688 -10.980469 C 1.824219 -12.992188 3.574219 -14.855469 4.355469 -15.300781 C 4.28125 -14.703125 3.871094 -13.03125 1.488281 -8.898438 C 1.226562 -9.308594 1.042969 -9.941406 1.304688 -10.980469 Z M 1.304688 -10.980469 "/></g></g></g><g fill="rgb(0%, 0%, 0%)" fill-opacity="1"><g transform="translate(214.082187, 166.231497)"><g><path d="M 10.871094 -8.449219 C 10.535156 -8.675781 10.125 -8.5625 9.902344 -8.226562 C 7.40625 -4.207031 3.238281 -0.410156 1.972656 -0.929688 C 1.824219 -1.003906 0.632812 -1.710938 2.269531 -8.003906 C 2.34375 -8.414062 2.121094 -8.785156 1.75 -8.898438 C 1.339844 -8.972656 0.96875 -8.75 0.855469 -8.375 C -0.484375 -3.128906 -0.296875 -0.335938 1.378906 0.371094 C 1.636719 0.484375 1.898438 0.519531 2.160156 0.519531 C 4.953125 0.519531 9.230469 -4.46875 11.132812 -7.484375 C 11.316406 -7.816406 11.207031 -8.265625 10.871094 -8.449219 Z M 2.085938 -11.464844 C 3.984375 -11.355469 3.945312 -13.738281 2.417969 -13.214844 C 1.636719 -12.992188 0.632812 -11.539062 2.085938 -11.464844 Z M 2.085938 -11.464844 "/></g></g></g><g fill="rgb(0%, 0%, 0%)" fill-opacity="1"><g transform="translate(223.498132, 166.231497)"><g><path d="M 7.964844 -13.8125 C 7 -14.109375 4.46875 -13.921875 1.824219 -6.21875 C 3.3125 -14.628906 3.574219 -16.121094 3.535156 -16.378906 C 3.535156 -16.753906 3.203125 -17.085938 2.792969 -17.050781 C 2.417969 -17.011719 2.121094 -16.714844 2.121094 -16.34375 C 2.085938 -15.820312 1.152344 -10.796875 0.148438 -4.988281 C -0.0742188 -3.722656 -0.335938 -2.417969 -0.558594 -1.078125 C -1.078125 -0.894531 -1.601562 -0.707031 -2.121094 -0.558594 C -2.496094 -0.445312 -2.71875 -0.0742188 -2.605469 0.335938 C -2.496094 0.707031 -2.121094 0.929688 -1.75 0.820312 C -1.453125 0.746094 -1.152344 0.632812 -0.855469 0.558594 C -2.457031 9.640625 -4.28125 20.027344 -5.136719 25.722656 C -5.175781 26.097656 -4.914062 26.46875 -4.542969 26.503906 C -4.503906 26.503906 -4.46875 26.542969 -4.429688 26.542969 C -4.09375 26.542969 -3.761719 26.28125 -3.722656 25.949219 C -2.792969 20.4375 -0.222656 7.371094 1.710938 -0.558594 C 2.867188 -1.152344 3.945312 -1.824219 4.953125 -2.605469 C 6.550781 -3.910156 8.597656 -5.992188 9.308594 -8.710938 C 10.015625 -11.207031 9.417969 -13.363281 7.964844 -13.8125 Z M 7.929688 -9.082031 C 7.222656 -6.441406 4.875 -4.09375 2.195312 -2.457031 C 2.53125 -3.722656 2.828125 -4.800781 3.089844 -5.585938 C 5.027344 -11.28125 6.8125 -12.433594 7.445312 -12.433594 C 7.484375 -12.433594 7.519531 -12.433594 7.558594 -12.433594 C 8.042969 -12.285156 8.449219 -10.980469 7.929688 -9.082031 Z M 7.929688 -9.082031 "/></g></g></g><g fill="rgb(0%, 0%, 0%)" fill-opacity="1"><g transform="translate(234.737724, 166.231497)"><g><path d="M 31.417969 -21.964844 C 30.9375 -22.632812 28.777344 -23.042969 5.660156 -22.523438 C 6.402344 -25.539062 7.074219 -28.253906 7.667969 -30.453125 C 7.78125 -30.859375 7.558594 -31.234375 7.183594 -31.34375 C 6.8125 -31.457031 6.402344 -31.234375 6.292969 -30.859375 C 5.660156 -28.515625 4.953125 -25.6875 4.167969 -22.484375 C 2.121094 -22.449219 -0.113281 -22.410156 -2.53125 -22.335938 C -5.84375 -22.261719 -8.449219 -22.1875 -9.457031 -22.1875 C -9.863281 -22.1875 -10.199219 -21.851562 -10.199219 -21.480469 C -10.199219 -21.070312 -9.863281 -20.734375 -9.457031 -20.734375 C -8.414062 -20.773438 -5.808594 -20.808594 -2.496094 -20.921875 C -0.746094 -20.957031 1.414062 -20.996094 3.835938 -21.070312 C 2.234375 -14.296875 0.410156 -6.179688 -1.226562 1.75 C -2.417969 7.558594 -3.386719 12.582031 -4.019531 16.269531 C -4.355469 18.203125 -4.578125 19.730469 -4.691406 20.773438 C -4.839844 22.1875 -4.914062 23.007812 -4.207031 23.265625 C -4.09375 23.265625 -4.019531 23.304688 -3.910156 23.304688 C -3.277344 23.304688 -2.941406 22.410156 -2.644531 21.589844 C -2.496094 21.21875 -2.679688 20.808594 -3.050781 20.660156 C -3.128906 20.660156 -3.164062 20.625 -3.238281 20.625 C -2.867188 17.71875 -1.75 11.207031 0.410156 0.929688 C 2.011719 -6.851562 3.761719 -14.628906 5.324219 -21.109375 C 15.5625 -21.332031 28.851562 -21.515625 30.378906 -20.996094 C 30.636719 -20.773438 30.972656 -20.773438 31.269531 -20.957031 C 31.570312 -21.183594 31.644531 -21.628906 31.417969 -21.964844 Z M 31.417969 -21.964844 "/></g></g></g><g fill="rgb(0%, 0%, 0%)" fill-opacity="1"><g transform="translate(106.613948, 218.154902)"><g><path d="M 28.8125 -35.8125 C 25.539062 -37.824219 20.625 -37.523438 15.746094 -35.21875 C 15.859375 -35.773438 15.96875 -36.332031 16.042969 -36.816406 C 16.121094 -37.191406 15.859375 -37.5625 15.488281 -37.636719 C 15.078125 -37.710938 14.703125 -37.449219 14.628906 -37.039062 C 14.519531 -36.257812 14.332031 -35.367188 14.144531 -34.359375 C 13.363281 -33.949219 12.582031 -33.429688 11.839844 -32.910156 C 5.84375 -28.589844 0.1875 -20.625 2.308594 -11.09375 C 2.382812 -10.722656 2.753906 -10.460938 3.164062 -10.574219 C 3.535156 -10.648438 3.796875 -11.019531 3.683594 -11.429688 C 1.710938 -20.25 7.035156 -27.695312 12.65625 -31.71875 C 13.03125 -31.976562 13.402344 -32.238281 13.773438 -32.5 C 13.066406 -28.886719 12.136719 -24.347656 11.132812 -19.359375 C 8.042969 -4.09375 6.179688 5.398438 5.175781 11.355469 C 4.839844 10.871094 4.617188 10.238281 4.542969 9.457031 C 4.46875 9.046875 4.132812 8.785156 3.722656 8.824219 C 3.351562 8.859375 3.050781 9.230469 3.089844 9.605469 C 3.277344 11.207031 3.910156 12.359375 4.875 13.066406 C 3.648438 20.550781 4.058594 21.183594 4.800781 21.40625 C 4.875 21.441406 4.988281 21.441406 5.0625 21.441406 C 5.769531 21.441406 6.253906 20.511719 7.035156 18.613281 C 7.183594 18.242188 7.035156 17.832031 6.664062 17.683594 C 6.292969 17.535156 5.882812 17.683594 5.734375 18.054688 C 5.660156 18.203125 5.621094 18.316406 5.585938 18.425781 C 5.695312 17.234375 5.917969 15.597656 6.21875 13.625 C 6.515625 13.664062 6.8125 13.699219 7.148438 13.738281 C 7.183594 13.738281 7.222656 13.738281 7.222656 13.738281 C 11.054688 13.738281 16.714844 9.679688 21.667969 3.386719 C 27.546875 -4.019531 31.492188 -13.328125 32.871094 -22.707031 C 34.0625 -30.785156 31.308594 -34.285156 28.8125 -35.8125 Z M 31.457031 -22.933594 C 29.671875 -10.574219 23.863281 -1.675781 20.550781 2.53125 C 15.226562 9.269531 10.015625 12.285156 7.222656 12.285156 C 7.222656 12.285156 7.183594 12.285156 7.183594 12.285156 C 6.925781 12.285156 6.699219 12.246094 6.476562 12.210938 C 7.890625 3.835938 10.535156 -9.269531 12.546875 -19.058594 C 13.664062 -24.644531 14.703125 -29.671875 15.410156 -33.429688 C 20.140625 -35.960938 24.980469 -36.445312 28.070312 -34.585938 C 31.121094 -32.722656 32.3125 -28.703125 31.457031 -22.933594 Z M 31.457031 -22.933594 "/></g></g></g><g fill="rgb(0%, 0%, 0%)" fill-opacity="1"><g transform="translate(138.285763, 218.154902)"><g><path d="M 12.582031 -8.300781 C 12.246094 -8.523438 11.800781 -8.449219 11.578125 -8.117188 C 8.785156 -4.207031 6.515625 -1.75 4.28125 -0.148438 C 3.164062 0.632812 2.085938 0.78125 1.378906 0.261719 C 0.929688 -0.0742188 -0.445312 -1.5625 1.152344 -6.773438 C 4.765625 -9.753906 6.738281 -12.582031 6.21875 -14.070312 C 6.03125 -14.519531 5.585938 -14.816406 5.101562 -14.816406 C 3.609375 -14.777344 1.339844 -12.210938 -0.148438 -7.40625 C -1.972656 -1.488281 -0.484375 0.671875 0.558594 1.414062 C 1.078125 1.824219 1.675781 2.011719 2.34375 2.011719 C 3.203125 2.011719 4.167969 1.675781 5.101562 1.003906 C 7.484375 -0.707031 9.828125 -3.238281 12.730469 -7.296875 C 12.953125 -7.632812 12.878906 -8.078125 12.582031 -8.300781 Z M 4.800781 -13.253906 C 4.652344 -12.65625 4.019531 -11.464844 2.269531 -9.679688 C 3.238281 -11.839844 4.28125 -12.878906 4.800781 -13.253906 Z M 4.800781 -13.253906 "/></g></g></g><g fill="rgb(0%, 0%, 0%)" fill-opacity="1"><g transform="translate(149.115963, 218.154902)"><g><path d="M 18.6875 -8.117188 C 18.390625 -8.375 17.945312 -8.339844 17.683594 -8.042969 C 16.15625 -6.253906 14.109375 -5.359375 12.433594 -5.808594 C 11.054688 -6.179688 10.050781 -7.519531 9.679688 -9.53125 C 9.605469 -9.863281 9.269531 -10.089844 8.933594 -10.089844 C 8.597656 -10.089844 8.300781 -9.828125 8.265625 -9.492188 C 7.484375 -3.910156 3.050781 2.753906 0.929688 3.460938 C 0.671875 3.535156 0.59375 3.5 0.59375 3.460938 C 0.410156 3.3125 -0.855469 1.5625 3.089844 -10.164062 C 3.203125 -10.535156 3.015625 -10.945312 2.644531 -11.054688 C 2.269531 -11.207031 1.863281 -10.980469 1.710938 -10.609375 C -2.605469 2.308594 -0.96875 3.945312 -0.445312 4.46875 C -0.222656 4.652344 0.148438 4.953125 0.707031 4.953125 C 0.894531 4.953125 1.117188 4.914062 1.378906 4.800781 C 2.753906 4.355469 4.617188 2.382812 6.292969 -0.410156 C 7.558594 -2.496094 8.523438 -4.726562 9.121094 -6.8125 C 9.828125 -5.585938 10.832031 -4.765625 12.0625 -4.429688 C 14.257812 -3.871094 16.863281 -4.914062 18.761719 -7.109375 C 19.023438 -7.40625 18.984375 -7.855469 18.6875 -8.117188 Z M 18.6875 -8.117188 "/></g></g></g><g fill="rgb(0%, 0%, 0%)" fill-opacity="1"><g transform="translate(166.682468, 218.154902)"><g><path d="M 12.582031 -8.300781 C 12.246094 -8.523438 11.800781 -8.449219 11.578125 -8.117188 C 8.785156 -4.207031 6.515625 -1.75 4.28125 -0.148438 C 3.164062 0.632812 2.085938 0.78125 1.378906 0.261719 C 0.929688 -0.0742188 -0.445312 -1.5625 1.152344 -6.773438 C 4.765625 -9.753906 6.738281 -12.582031 6.21875 -14.070312 C 6.03125 -14.519531 5.585938 -14.816406 5.101562 -14.816406 C 3.609375 -14.777344 1.339844 -12.210938 -0.148438 -7.40625 C -1.972656 -1.488281 -0.484375 0.671875 0.558594 1.414062 C 1.078125 1.824219 1.675781 2.011719 2.34375 2.011719 C 3.203125 2.011719 4.167969 1.675781 5.101562 1.003906 C 7.484375 -0.707031 9.828125 -3.238281 12.730469 -7.296875 C 12.953125 -7.632812 12.878906 -8.078125 12.582031 -8.300781 Z M 4.800781 -13.253906 C 4.652344 -12.65625 4.019531 -11.464844 2.269531 -9.679688 C 3.238281 -11.839844 4.28125 -12.878906 4.800781 -13.253906 Z M 4.800781 -13.253906 "/></g></g></g><g fill="rgb(0%, 0%, 0%)" fill-opacity="1"><g transform="translate(177.512668, 218.154902)"><g><path d="M 10.945312 -34.882812 C 10.683594 -35.21875 10.3125 -35.367188 9.941406 -35.328125 C 7.816406 -34.957031 5.546875 -27.027344 4.914062 -24.605469 C 3.050781 -17.496094 0.707031 -7.40625 -1.191406 1.636719 C -2.085938 5.917969 -2.792969 9.53125 -3.238281 12.136719 C -3.984375 16.527344 -3.871094 17.085938 -3.164062 17.273438 C -3.089844 17.3125 -3.015625 17.3125 -2.941406 17.3125 C -2.269531 17.3125 -1.9375 16.417969 -1.601562 15.449219 C -1.488281 15.078125 -1.675781 14.667969 -2.046875 14.554688 C -2.085938 14.519531 -2.121094 14.519531 -2.160156 14.519531 C -1.378906 9.15625 1.824219 -6.441406 5.101562 -19.507812 C 5.101562 -19.542969 5.136719 -19.582031 5.175781 -19.617188 C 10.015625 -27.289062 11.914062 -33.394531 10.945312 -34.882812 Z M 6.367188 -24.53125 C 7.78125 -29.78125 9.046875 -32.3125 9.714844 -33.355469 C 9.566406 -31.976562 8.75 -29 6.367188 -24.53125 Z M 6.367188 -24.53125 "/></g></g></g><g fill="rgb(0%, 0%, 0%)" fill-opacity="1"><g transform="translate(183.169676, 218.154902)"><g><path d="M 13.476562 -8.078125 C 13.140625 -8.339844 12.695312 -8.265625 12.472656 -7.964844 C 10.90625 -5.957031 8.339844 -4.28125 6.367188 -4.652344 C 6.402344 -4.914062 6.441406 -5.175781 6.441406 -5.433594 C 6.699219 -9.640625 5.398438 -10.496094 4.617188 -10.648438 C 3.722656 -10.832031 2.792969 -10.164062 2.34375 -9.046875 C 2.160156 -9.121094 1.9375 -9.121094 1.75 -8.972656 C 0.261719 -8.042969 -0.96875 -5.660156 -0.296875 -3.089844 C 0.148438 -1.5625 1.191406 -0.59375 2.570312 -0.59375 C 3.871094 -0.59375 5.25 -1.5625 5.957031 -3.277344 C 8.5625 -2.71875 11.6875 -4.652344 13.589844 -7.074219 C 13.847656 -7.40625 13.773438 -7.855469 13.476562 -8.078125 Z M 2.605469 -2.011719 C 2.570312 -2.011719 2.570312 -2.011719 2.570312 -2.011719 C 1.636719 -2.046875 1.226562 -2.941406 1.117188 -3.460938 C 0.746094 -4.726562 1.042969 -6.476562 2.085938 -7.445312 C 2.160156 -6.179688 2.867188 -4.800781 4.652344 -3.835938 C 4.132812 -2.644531 3.238281 -2.011719 2.605469 -2.011719 Z M 5.027344 -5.507812 C 4.988281 -5.433594 4.988281 -5.359375 4.988281 -5.285156 C 3.574219 -6.21875 3.351562 -7.40625 3.609375 -8.339844 C 3.796875 -8.933594 4.167969 -9.230469 4.355469 -9.230469 C 4.542969 -9.195312 5.175781 -8.488281 5.027344 -5.507812 Z M 5.027344 -5.507812 "/></g></g></g><g fill="rgb(0%, 0%, 0%)" fill-opacity="1"><g transform="translate(195.079174, 218.154902)"><g><path d="M 7.964844 -13.8125 C 7 -14.109375 4.46875 -13.921875 1.824219 -6.21875 C 3.3125 -14.628906 3.574219 -16.121094 3.535156 -16.378906 C 3.535156 -16.753906 3.203125 -17.085938 2.792969 -17.050781 C 2.417969 -17.011719 2.121094 -16.714844 2.121094 -16.34375 C 2.085938 -15.820312 1.152344 -10.796875 0.148438 -4.988281 C -0.0742188 -3.722656 -0.335938 -2.417969 -0.558594 -1.078125 C -1.078125 -0.894531 -1.601562 -0.707031 -2.121094 -0.558594 C -2.496094 -0.445312 -2.71875 -0.0742188 -2.605469 0.335938 C -2.496094 0.707031 -2.121094 0.929688 -1.75 0.820312 C -1.453125 0.746094 -1.152344 0.632812 -0.855469 0.558594 C -2.457031 9.640625 -4.28125 20.027344 -5.136719 25.722656 C -5.175781 26.097656 -4.914062 26.46875 -4.542969 26.503906 C -4.503906 26.503906 -4.46875 26.542969 -4.429688 26.542969 C -4.09375 26.542969 -3.761719 26.28125 -3.722656 25.949219 C -2.792969 20.4375 -0.222656 7.371094 1.710938 -0.558594 C 2.867188 -1.152344 3.945312 -1.824219 4.953125 -2.605469 C 6.550781 -3.910156 8.597656 -5.992188 9.308594 -8.710938 C 10.015625 -11.207031 9.417969 -13.363281 7.964844 -13.8125 Z M 7.929688 -9.082031 C 7.222656 -6.441406 4.875 -4.09375 2.195312 -2.457031 C 2.53125 -3.722656 2.828125 -4.800781 3.089844 -5.585938 C 5.027344 -11.28125 6.8125 -12.433594 7.445312 -12.433594 C 7.484375 -12.433594 7.519531 -12.433594 7.558594 -12.433594 C 8.042969 -12.285156 8.449219 -10.980469 7.929688 -9.082031 Z M 7.929688 -9.082031 "/></g></g></g><g fill="rgb(0%, 0%, 0%)" fill-opacity="1"><g transform="translate(206.318766, 218.154902)"><g><path d="M 12.582031 -8.300781 C 12.246094 -8.523438 11.800781 -8.449219 11.578125 -8.117188 C 8.785156 -4.207031 6.515625 -1.75 4.28125 -0.148438 C 3.164062 0.632812 2.085938 0.78125 1.378906 0.261719 C 0.929688 -0.0742188 -0.445312 -1.5625 1.152344 -6.773438 C 4.765625 -9.753906 6.738281 -12.582031 6.21875 -14.070312 C 6.03125 -14.519531 5.585938 -14.816406 5.101562 -14.816406 C 3.609375 -14.777344 1.339844 -12.210938 -0.148438 -7.40625 C -1.972656 -1.488281 -0.484375 0.671875 0.558594 1.414062 C 1.078125 1.824219 1.675781 2.011719 2.34375 2.011719 C 3.203125 2.011719 4.167969 1.675781 5.101562 1.003906 C 7.484375 -0.707031 9.828125 -3.238281 12.730469 -7.296875 C 12.953125 -7.632812 12.878906 -8.078125 12.582031 -8.300781 Z M 4.800781 -13.253906 C 4.652344 -12.65625 4.019531 -11.464844 2.269531 -9.679688 C 3.238281 -11.839844 4.28125 -12.878906 4.800781 -13.253906 Z M 4.800781 -13.253906 "/></g></g></g><g fill="rgb(0%, 0%, 0%)" fill-opacity="1"><g transform="translate(217.148966, 218.154902)"><g><path d="M 16.34375 -8.414062 C 15.96875 -8.597656 15.523438 -8.449219 15.375 -8.078125 C 11.09375 0.929688 7.035156 5.546875 6.140625 5.398438 C 6.066406 5.359375 4.765625 4.09375 8.972656 -8.824219 C 9.082031 -9.15625 9.34375 -9.941406 8.75 -10.347656 C 8.191406 -10.796875 7.558594 -10.386719 6.515625 -9.679688 C 5.398438 -8.972656 3.871094 -7.964844 2.679688 -8.117188 C 6.476562 -14.667969 6.105469 -16.121094 5.25 -16.679688 C 3.910156 -17.460938 1.972656 -15.1875 1.078125 -13.886719 C -0.746094 -11.054688 -0.707031 -8.488281 1.226562 -7.183594 C 3.203125 -5.808594 5.769531 -7.484375 7.296875 -8.488281 C 7.332031 -8.523438 7.332031 -8.523438 7.371094 -8.5625 C 5.917969 -3.984375 4.988281 -0.371094 4.652344 2.121094 C 4.242188 4.875 4.542969 6.328125 5.585938 6.738281 C 5.769531 6.773438 5.917969 6.8125 6.105469 6.8125 C 9.082031 6.8125 14.257812 -2.34375 16.679688 -7.445312 C 16.828125 -7.816406 16.679688 -8.265625 16.34375 -8.414062 Z M 1.304688 -10.980469 C 1.824219 -12.992188 3.574219 -14.855469 4.355469 -15.300781 C 4.28125 -14.703125 3.871094 -13.03125 1.488281 -8.898438 C 1.226562 -9.308594 1.042969 -9.941406 1.304688 -10.980469 Z M 1.304688 -10.980469 "/></g></g></g><g fill="rgb(0%, 0%, 0%)" fill-opacity="1"><g transform="translate(129.271268, 78.839654)"><g><path d="M 18.265625 -6.03125 L 8.859375 -13.703125 C 8.679688 -13.617188 8.398438 -13.507812 8.015625 -13.375 L 4.109375 -12.09375 L 7.3125 -2.421875 L 3.78125 -1.25 L -4.921875 -27.5625 L 2.109375 -29.890625 C 3.898438 -30.484375 5.601562 -30.695312 7.21875 -30.53125 C 8.84375 -30.363281 10.253906 -29.796875 11.453125 -28.828125 C 12.660156 -27.867188 13.550781 -26.53125 14.125 -24.8125 C 14.65625 -23.1875 14.789062 -21.570312 14.53125 -19.96875 C 14.269531 -18.375 13.507812 -16.984375 12.25 -15.796875 L 22.390625 -7.40625 Z M 6.8125 -16.78125 C 8.695312 -17.40625 9.894531 -18.351562 10.40625 -19.625 C 10.914062 -20.894531 10.957031 -22.175781 10.53125 -23.46875 C 10.269531 -24.25 9.835938 -24.953125 9.234375 -25.578125 C 8.628906 -26.210938 7.863281 -26.648438 6.9375 -26.890625 C 6.019531 -27.140625 4.976562 -27.070312 3.8125 -26.6875 L -0.265625 -25.34375 L 2.984375 -15.515625 Z M 6.8125 -16.78125 "/></g></g></g><g fill="rgb(0%, 0%, 0%)" fill-opacity="1"><g transform="translate(160.442155, 69.738537)"><g><path d="M 10.265625 -3.59375 C 11.585938 -3.707031 12.828125 -4.28125 13.984375 -5.3125 L 15.875 -2.828125 C 15.082031 -2.191406 14.207031 -1.664062 13.25 -1.25 C 12.300781 -0.84375 11.367188 -0.601562 10.453125 -0.53125 C 8.691406 -0.375 7.125 -0.601562 5.75 -1.21875 C 4.382812 -1.832031 3.285156 -2.742188 2.453125 -3.953125 C 1.628906 -5.171875 1.148438 -6.578125 1.015625 -8.171875 C 0.878906 -9.722656 1.140625 -11.175781 1.796875 -12.53125 C 2.460938 -13.882812 3.4375 -14.992188 4.71875 -15.859375 C 6 -16.734375 7.441406 -17.238281 9.046875 -17.375 C 11.109375 -17.5625 12.890625 -17.109375 14.390625 -16.015625 C 15.890625 -14.929688 16.984375 -13.332031 17.671875 -11.21875 L 5.546875 -5.734375 C 6.054688 -4.984375 6.722656 -4.414062 7.546875 -4.03125 C 8.367188 -3.65625 9.273438 -3.507812 10.265625 -3.59375 Z M 9.015625 -14.546875 C 7.578125 -14.410156 6.429688 -13.785156 5.578125 -12.671875 C 4.722656 -11.566406 4.367188 -10.226562 4.515625 -8.65625 C 4.546875 -8.28125 4.585938 -7.992188 4.640625 -7.796875 L 13.53125 -12 C 13.070312 -12.832031 12.46875 -13.484375 11.71875 -13.953125 C 10.96875 -14.429688 10.066406 -14.628906 9.015625 -14.546875 Z M 9.015625 -14.546875 "/></g></g></g><g fill="rgb(0%, 0%, 0%)" fill-opacity="1"><g transform="translate(187.619658, 68.015065)"><g><path d="M 21.328125 -13.15625 L 19.21875 2.578125 L 15.6875 2.109375 L 16.03125 -0.484375 C 15.375 0.179688 14.472656 0.753906 13.328125 1.234375 C 12.179688 1.710938 10.9375 1.863281 9.59375 1.6875 C 8.101562 1.488281 6.796875 0.984375 5.671875 0.171875 C 4.554688 -0.640625 3.734375 -1.710938 3.203125 -3.046875 C 2.671875 -4.378906 2.523438 -5.90625 2.765625 -7.625 C 2.992188 -9.351562 3.554688 -10.804688 4.453125 -11.984375 C 5.347656 -13.171875 6.457031 -14.03125 7.78125 -14.5625 C 9.101562 -15.09375 10.507812 -15.257812 12 -15.0625 C 13.34375 -14.882812 14.46875 -14.4375 15.375 -13.71875 C 16.289062 -13 16.988281 -12.128906 17.46875 -11.109375 L 18.0625 -13.59375 Z M 10.9375 -1.125 C 12.226562 -0.945312 13.382812 -1.15625 14.40625 -1.75 C 15.425781 -2.34375 16.144531 -3.242188 16.5625 -4.453125 L 16.984375 -7.578125 C 16.828125 -8.722656 16.3125 -9.707031 15.4375 -10.53125 C 14.570312 -11.363281 13.519531 -11.863281 12.28125 -12.03125 C 11.34375 -12.15625 10.445312 -12.046875 9.59375 -11.703125 C 8.738281 -11.359375 8.019531 -10.804688 7.4375 -10.046875 C 6.863281 -9.285156 6.503906 -8.382812 6.359375 -7.34375 C 6.222656 -6.332031 6.335938 -5.375 6.703125 -4.46875 C 7.078125 -3.570312 7.632812 -2.820312 8.375 -2.21875 C 9.125 -1.613281 9.976562 -1.25 10.9375 -1.125 Z M 10.9375 -1.125 "/></g></g></g><g fill="rgb(0%, 0%, 0%)" fill-opacity="1"><g transform="translate(217.033995, 73.021203)"><g><path d="M 15.546875 4.015625 C 14.671875 4.316406 13.710938 4.457031 12.671875 4.4375 C 11.640625 4.425781 10.644531 4.25 9.6875 3.90625 C 8.070312 3.320312 6.757812 2.476562 5.75 1.375 C 4.75 0.28125 4.117188 -0.984375 3.859375 -2.421875 C 3.597656 -3.859375 3.75 -5.359375 4.3125 -6.921875 C 4.863281 -8.460938 5.71875 -9.695312 6.875 -10.625 C 8.03125 -11.550781 9.320312 -12.125 10.75 -12.34375 C 12.1875 -12.5625 13.601562 -12.414062 15 -11.90625 C 17.28125 -11.082031 18.941406 -9.78125 19.984375 -8 L 17.5 -6.40625 C 17.15625 -6.945312 16.710938 -7.453125 16.171875 -7.921875 C 15.628906 -8.398438 15.003906 -8.769531 14.296875 -9.03125 C 13.398438 -9.34375 12.503906 -9.410156 11.609375 -9.234375 C 10.722656 -9.054688 9.929688 -8.65625 9.234375 -8.03125 C 8.535156 -7.414062 8.019531 -6.640625 7.6875 -5.703125 C 7.351562 -4.765625 7.265625 -3.832031 7.421875 -2.90625 C 7.585938 -1.988281 7.972656 -1.15625 8.578125 -0.40625 C 9.179688 0.332031 9.976562 0.878906 10.96875 1.234375 C 12.195312 1.671875 13.394531 1.691406 14.5625 1.296875 Z M 15.546875 4.015625 "/></g></g></g><g fill="rgb(0%, 0%, 0%)" fill-opacity="1"><g transform="translate(240.343768, 82.32675)"><g><path d="M 18.609375 -15.609375 L 15.078125 -9.546875 L 18.828125 -7.359375 L 17.40625 -4.90625 L 13.65625 -7.09375 L 7.125 4.140625 L 4.015625 2.328125 L 10.546875 -8.90625 L 8.015625 -10.375 L 9.4375 -12.828125 L 11.96875 -11.359375 L 15.5 -17.421875 Z M 18.609375 -15.609375 "/></g></g></g><g fill="rgb(0%, 0%, 0%)" fill-opacity="1"><g transform="translate(258.661221, 93.795955)"><g><path d="M 13.34375 -1.765625 L 11.359375 0.671875 L 5.828125 -3.84375 L 7.8125 -6.28125 Z M 13.34375 -1.765625 "/></g></g></g><g fill="rgb(0%, 0%, 0%)" fill-opacity="1"><g transform="translate(273.585759, 105.601487)"><g><path d="M 39.140625 5.296875 L 16.484375 22.8125 L 16.40625 22.71875 L 20.296875 -6.015625 L 4.734375 6.125 L 2.4375 3.15625 L 25.015625 -14.3125 L 25.125 -14.171875 L 21.046875 14.671875 L 36.859375 2.359375 Z M 39.140625 5.296875 "/></g></g></g><g fill="rgb(0%, 0%, 0%)" fill-opacity="1"><g transform="translate(296.189307, 137.362635)"><g><path d="M 22.09375 11.828125 L 7.421875 17.90625 L 6.0625 14.625 L 8.46875 13.625 C 7.570312 13.382812 6.625 12.890625 5.625 12.140625 C 4.632812 11.398438 3.882812 10.40625 3.375 9.15625 C 2.789062 7.757812 2.566406 6.367188 2.703125 4.984375 C 2.847656 3.609375 3.363281 2.359375 4.25 1.234375 C 5.132812 0.109375 6.378906 -0.785156 7.984375 -1.453125 C 9.597656 -2.109375 11.140625 -2.347656 12.609375 -2.171875 C 14.078125 -1.992188 15.367188 -1.46875 16.484375 -0.59375 C 17.609375 0.28125 18.457031 1.414062 19.03125 2.8125 C 19.550781 4.0625 19.726562 5.257812 19.5625 6.40625 C 19.40625 7.550781 19.015625 8.585938 18.390625 9.515625 L 20.828125 8.78125 Z M 6.453125 8.890625 C 6.953125 10.085938 7.71875 10.984375 8.75 11.578125 C 9.789062 12.171875 10.9375 12.34375 12.1875 12.09375 L 15.09375 10.875 C 16.007812 10.164062 16.601562 9.226562 16.875 8.0625 C 17.15625 6.894531 17.054688 5.734375 16.578125 4.578125 C 16.210938 3.703125 15.664062 2.976562 14.9375 2.40625 C 14.207031 1.84375 13.367188 1.5 12.421875 1.375 C 11.484375 1.257812 10.523438 1.40625 9.546875 1.8125 C 8.609375 2.195312 7.835938 2.773438 7.234375 3.546875 C 6.640625 4.316406 6.265625 5.175781 6.109375 6.125 C 5.960938 7.070312 6.078125 7.992188 6.453125 8.890625 Z M 6.453125 8.890625 "/></g></g></g><g fill="rgb(0%, 0%, 0%)" fill-opacity="1"><g transform="translate(306.558888, 165.449368)"><g><path d="M 24.015625 3.671875 L 17.125 5.03125 L 17.953125 9.296875 L 15.171875 9.84375 L 14.34375 5.578125 L 1.59375 8.078125 L 0.890625 4.546875 L 13.640625 2.046875 L 13.078125 -0.8125 L 15.859375 -1.359375 L 16.421875 1.5 L 23.3125 0.140625 Z M 24.015625 3.671875 "/></g></g></g><g fill="rgb(0%, 0%, 0%)" fill-opacity="1"><g transform="translate(309.995093, 186.842804)"><g><path d="M 16.140625 6.015625 L 0.28125 6.671875 L 0.125 3.109375 L 15.984375 2.453125 Z M 22 2.09375 C 22.5625 2.070312 23.039062 2.269531 23.4375 2.6875 C 23.832031 3.101562 24.046875 3.59375 24.078125 4.15625 C 24.097656 4.71875 23.925781 5.21875 23.5625 5.65625 C 23.195312 6.09375 22.734375 6.320312 22.171875 6.34375 C 21.609375 6.375 21.125 6.1875 20.71875 5.78125 C 20.320312 5.375 20.113281 4.890625 20.09375 4.328125 C 20.0625 3.765625 20.226562 3.257812 20.59375 2.8125 C 20.96875 2.363281 21.4375 2.125 22 2.09375 Z M 22 2.09375 "/></g></g></g><g fill="rgb(0%, 0%, 0%)" fill-opacity="1"><g transform="translate(310.438415, 204.356807)"><g><path d="M 13.375 20.109375 L -1.71875 9.59375 L -1.6875 9.40625 L 15.640625 2.796875 L 15.09375 7 L 4.4375 10.453125 L 13.890625 16.15625 Z M 13.375 20.109375 "/></g></g></g><g fill="rgb(0%, 0%, 0%)" fill-opacity="1"><g transform="translate(306.303917, 230.363666)"><g><path d="M -0.96875 10.84375 C -1.40625 12.082031 -1.398438 13.445312 -0.953125 14.9375 L -4 15.625 C -4.25 14.632812 -4.363281 13.625 -4.34375 12.59375 C -4.320312 11.5625 -4.160156 10.613281 -3.859375 9.75 C -3.265625 8.082031 -2.40625 6.75 -1.28125 5.75 C -0.15625 4.75 1.125 4.125 2.5625 3.875 C 4.007812 3.625 5.492188 3.765625 7.015625 4.296875 C 8.484375 4.816406 9.695312 5.65625 10.65625 6.8125 C 11.625 7.976562 12.234375 9.320312 12.484375 10.84375 C 12.742188 12.375 12.609375 13.90625 12.078125 15.4375 C 11.390625 17.375 10.238281 18.800781 8.625 19.71875 C 7.019531 20.632812 5.113281 20.972656 2.90625 20.734375 L 2.921875 7.40625 C 2.015625 7.582031 1.222656 7.960938 0.546875 8.546875 C -0.128906 9.128906 -0.632812 9.894531 -0.96875 10.84375 Z M 9.5 14.234375 C 9.976562 12.867188 9.890625 11.566406 9.234375 10.328125 C 8.578125 9.097656 7.503906 8.21875 6.015625 7.6875 C 5.660156 7.5625 5.378906 7.476562 5.171875 7.4375 L 5.328125 17.28125 C 6.273438 17.207031 7.117188 16.925781 7.859375 16.4375 C 8.597656 15.957031 9.144531 15.222656 9.5 14.234375 Z M 9.5 14.234375 "/></g></g></g><g clip-path="url(#id15)"><path fill="rgb(36.468506%, 31.369019%, 15.289307%)" d="M 330.644531 267.390625 L 323.976562 281.265625 L 337.859375 287.917969 L 322.59375 285.890625 L 320.53125 301.113281 L 317.765625 285.996094 L 302.609375 288.753906 L 316.164062 281.425781 L 308.84375 267.933594 L 319.988281 278.507812 Z M 330.644531 267.390625 " fill-opacity="1" fill-rule="nonzero"/></g><g fill="rgb(100%, 100%, 100%)" fill-opacity="1"><g transform="translate(16.375809, 279.626173)"><g><path d="M 2.90625 -4.75 L 2.90625 0 L 1.578125 0 L 1.578125 -11.421875 L 4.703125 -11.421875 C 6.109375 -11.421875 7.144531 -11.148438 7.8125 -10.609375 C 8.476562 -10.078125 8.8125 -9.273438 8.8125 -8.203125 C 8.8125 -6.691406 8.046875 -5.671875 6.515625 -5.140625 L 9.625 0 L 8.046875 0 L 5.28125 -4.75 Z M 2.90625 -5.890625 L 4.71875 -5.890625 C 5.65625 -5.890625 6.34375 -6.078125 6.78125 -6.453125 C 7.21875 -6.828125 7.4375 -7.382812 7.4375 -8.125 C 7.4375 -8.882812 7.210938 -9.429688 6.765625 -9.765625 C 6.328125 -10.097656 5.613281 -10.265625 4.625 -10.265625 L 2.90625 -10.265625 Z M 2.90625 -5.890625 "/></g></g></g><g fill="rgb(100%, 100%, 100%)" fill-opacity="1"><g transform="translate(26.264018, 279.626173)"><g><path d="M 5 0.15625 C 3.726562 0.15625 2.726562 -0.226562 2 -1 C 1.269531 -1.769531 0.90625 -2.84375 0.90625 -4.21875 C 0.90625 -5.59375 1.242188 -6.6875 1.921875 -7.5 C 2.597656 -8.3125 3.507812 -8.71875 4.65625 -8.71875 C 5.726562 -8.71875 6.578125 -8.363281 7.203125 -7.65625 C 7.828125 -6.957031 8.140625 -6.03125 8.140625 -4.875 L 8.140625 -4.046875 L 2.25 -4.046875 C 2.269531 -3.046875 2.519531 -2.285156 3 -1.765625 C 3.488281 -1.242188 4.171875 -0.984375 5.046875 -0.984375 C 5.960938 -0.984375 6.875 -1.175781 7.78125 -1.5625 L 7.78125 -0.40625 C 7.320312 -0.207031 6.882812 -0.0664062 6.46875 0.015625 C 6.0625 0.109375 5.570312 0.15625 5 0.15625 Z M 4.640625 -7.640625 C 3.953125 -7.640625 3.40625 -7.414062 3 -6.96875 C 2.59375 -6.519531 2.351562 -5.898438 2.28125 -5.109375 L 6.75 -5.109375 C 6.75 -5.921875 6.566406 -6.546875 6.203125 -6.984375 C 5.835938 -7.421875 5.316406 -7.640625 4.640625 -7.640625 Z M 4.640625 -7.640625 "/></g></g></g><g fill="rgb(100%, 100%, 100%)" fill-opacity="1"><g transform="translate(35.238394, 279.626173)"><g><path d="M 6.640625 0 L 6.390625 -1.21875 L 6.328125 -1.21875 C 5.898438 -0.6875 5.472656 -0.320312 5.046875 -0.125 C 4.617188 0.0625 4.085938 0.15625 3.453125 0.15625 C 2.609375 0.15625 1.941406 -0.0625 1.453125 -0.5 C 0.972656 -0.9375 0.734375 -1.5625 0.734375 -2.375 C 0.734375 -4.101562 2.117188 -5.007812 4.890625 -5.09375 L 6.34375 -5.140625 L 6.34375 -5.671875 C 6.34375 -6.335938 6.195312 -6.832031 5.90625 -7.15625 C 5.613281 -7.476562 5.148438 -7.640625 4.515625 -7.640625 C 3.804688 -7.640625 3 -7.421875 2.09375 -6.984375 L 1.703125 -7.96875 C 2.117188 -8.195312 2.578125 -8.375 3.078125 -8.5 C 3.585938 -8.632812 4.09375 -8.703125 4.59375 -8.703125 C 5.613281 -8.703125 6.367188 -8.472656 6.859375 -8.015625 C 7.359375 -7.566406 7.609375 -6.84375 7.609375 -5.84375 L 7.609375 0 Z M 3.71875 -0.921875 C 4.519531 -0.921875 5.148438 -1.140625 5.609375 -1.578125 C 6.078125 -2.023438 6.3125 -2.644531 6.3125 -3.4375 L 6.3125 -4.21875 L 5.015625 -4.15625 C 3.984375 -4.125 3.238281 -3.960938 2.78125 -3.671875 C 2.320312 -3.390625 2.09375 -2.953125 2.09375 -2.359375 C 2.09375 -1.890625 2.234375 -1.53125 2.515625 -1.28125 C 2.804688 -1.039062 3.207031 -0.921875 3.71875 -0.921875 Z M 3.71875 -0.921875 "/></g></g></g><g fill="rgb(100%, 100%, 100%)" fill-opacity="1"><g transform="translate(44.134664, 279.626173)"><g><path d="M 4.796875 0.15625 C 3.554688 0.15625 2.597656 -0.222656 1.921875 -0.984375 C 1.242188 -1.753906 0.90625 -2.835938 0.90625 -4.234375 C 0.90625 -5.660156 1.25 -6.765625 1.9375 -7.546875 C 2.625 -8.328125 3.609375 -8.71875 4.890625 -8.71875 C 5.296875 -8.71875 5.703125 -8.671875 6.109375 -8.578125 C 6.523438 -8.492188 6.851562 -8.394531 7.09375 -8.28125 L 6.6875 -7.171875 C 6.40625 -7.285156 6.09375 -7.378906 5.75 -7.453125 C 5.414062 -7.535156 5.117188 -7.578125 4.859375 -7.578125 C 3.117188 -7.578125 2.25 -6.46875 2.25 -4.25 C 2.25 -3.195312 2.457031 -2.390625 2.875 -1.828125 C 3.300781 -1.265625 3.929688 -0.984375 4.765625 -0.984375 C 5.484375 -0.984375 6.21875 -1.132812 6.96875 -1.4375 L 6.96875 -0.296875 C 6.394531 0.00390625 5.671875 0.15625 4.796875 0.15625 Z M 4.796875 0.15625 "/></g></g></g><g fill="rgb(100%, 100%, 100%)" fill-opacity="1"><g transform="translate(51.749998, 279.626173)"><g><path d="M 4.140625 -0.921875 C 4.367188 -0.921875 4.585938 -0.9375 4.796875 -0.96875 C 5.015625 -1 5.1875 -1.035156 5.3125 -1.078125 L 5.3125 -0.078125 C 5.175781 -0.00390625 4.96875 0.0507812 4.6875 0.09375 C 4.414062 0.132812 4.171875 0.15625 3.953125 0.15625 C 2.296875 0.15625 1.46875 -0.71875 1.46875 -2.46875 L 1.46875 -7.5625 L 0.25 -7.5625 L 0.25 -8.1875 L 1.46875 -8.71875 L 2.015625 -10.546875 L 2.765625 -10.546875 L 2.765625 -8.5625 L 5.25 -8.5625 L 5.25 -7.5625 L 2.765625 -7.5625 L 2.765625 -2.515625 C 2.765625 -2.003906 2.882812 -1.609375 3.125 -1.328125 C 3.375 -1.054688 3.710938 -0.921875 4.140625 -0.921875 Z M 4.140625 -0.921875 "/></g></g></g><g fill="rgb(100%, 100%, 100%)" fill-opacity="1"><g transform="translate(57.397061, 279.626173)"><g><path d="M 2.734375 -1.859375 L 2.859375 -1.6875 C 2.722656 -1.164062 2.523438 -0.5625 2.265625 0.125 C 2.015625 0.820312 1.75 1.46875 1.46875 2.0625 L 0.5 2.0625 C 0.632812 1.519531 0.785156 0.847656 0.953125 0.046875 C 1.128906 -0.742188 1.25 -1.378906 1.3125 -1.859375 Z M 2.734375 -1.859375 "/></g></g></g><g fill="rgb(100%, 100%, 100%)" fill-opacity="1"><g transform="translate(61.317979, 279.626173)"><g/></g></g><g fill="rgb(100%, 100%, 100%)" fill-opacity="1"><g transform="translate(65.473214, 279.626173)"><g><path d="M 10.5 0 L 8.984375 0 L 2.734375 -9.59375 L 2.671875 -9.59375 C 2.753906 -8.46875 2.796875 -7.4375 2.796875 -6.5 L 2.796875 0 L 1.578125 0 L 1.578125 -11.421875 L 3.078125 -11.421875 L 9.296875 -1.875 L 9.359375 -1.875 C 9.347656 -2.019531 9.320312 -2.472656 9.28125 -3.234375 C 9.25 -3.992188 9.238281 -4.539062 9.25 -4.875 L 9.25 -11.421875 L 10.5 -11.421875 Z M 10.5 0 "/></g></g></g><g fill="rgb(100%, 100%, 100%)" fill-opacity="1"><g transform="translate(77.532768, 279.626173)"><g><path d="M 8.765625 -4.296875 C 8.765625 -2.898438 8.410156 -1.804688 7.703125 -1.015625 C 7.003906 -0.234375 6.035156 0.15625 4.796875 0.15625 C 4.035156 0.15625 3.359375 -0.0195312 2.765625 -0.375 C 2.171875 -0.738281 1.710938 -1.253906 1.390625 -1.921875 C 1.066406 -2.597656 0.90625 -3.390625 0.90625 -4.296875 C 0.90625 -5.691406 1.253906 -6.773438 1.953125 -7.546875 C 2.648438 -8.328125 3.617188 -8.71875 4.859375 -8.71875 C 6.054688 -8.71875 7.003906 -8.316406 7.703125 -7.515625 C 8.410156 -6.722656 8.765625 -5.648438 8.765625 -4.296875 Z M 2.25 -4.296875 C 2.25 -3.203125 2.46875 -2.367188 2.90625 -1.796875 C 3.34375 -1.222656 3.984375 -0.9375 4.828125 -0.9375 C 5.679688 -0.9375 6.328125 -1.21875 6.765625 -1.78125 C 7.203125 -2.351562 7.421875 -3.191406 7.421875 -4.296875 C 7.421875 -5.378906 7.203125 -6.203125 6.765625 -6.765625 C 6.328125 -7.335938 5.675781 -7.625 4.8125 -7.625 C 3.96875 -7.625 3.328125 -7.34375 2.890625 -6.78125 C 2.460938 -6.226562 2.25 -5.398438 2.25 -4.296875 Z M 2.25 -4.296875 "/></g></g></g><g fill="rgb(100%, 100%, 100%)" fill-opacity="1"><g transform="translate(87.194476, 279.626173)"><g><path d="M 7.203125 -1.15625 L 7.140625 -1.15625 C 6.535156 -0.28125 5.640625 0.15625 4.453125 0.15625 C 3.328125 0.15625 2.453125 -0.222656 1.828125 -0.984375 C 1.210938 -1.753906 0.90625 -2.847656 0.90625 -4.265625 C 0.90625 -5.671875 1.21875 -6.765625 1.84375 -7.546875 C 2.46875 -8.328125 3.335938 -8.71875 4.453125 -8.71875 C 5.609375 -8.71875 6.5 -8.296875 7.125 -7.453125 L 7.21875 -7.453125 L 7.171875 -8.078125 L 7.140625 -8.671875 L 7.140625 -12.15625 L 8.4375 -12.15625 L 8.4375 0 L 7.375 0 Z M 4.609375 -0.9375 C 5.492188 -0.9375 6.132812 -1.175781 6.53125 -1.65625 C 6.9375 -2.132812 7.140625 -2.910156 7.140625 -3.984375 L 7.140625 -4.265625 C 7.140625 -5.472656 6.9375 -6.335938 6.53125 -6.859375 C 6.125 -7.378906 5.476562 -7.640625 4.59375 -7.640625 C 3.832031 -7.640625 3.25 -7.34375 2.84375 -6.75 C 2.445312 -6.15625 2.25 -5.320312 2.25 -4.25 C 2.25 -3.15625 2.445312 -2.328125 2.84375 -1.765625 C 3.25 -1.210938 3.835938 -0.9375 4.609375 -0.9375 Z M 4.609375 -0.9375 "/></g></g></g><g fill="rgb(100%, 100%, 100%)" fill-opacity="1"><g transform="translate(96.996775, 279.626173)"><g><path d="M 5 0.15625 C 3.726562 0.15625 2.726562 -0.226562 2 -1 C 1.269531 -1.769531 0.90625 -2.84375 0.90625 -4.21875 C 0.90625 -5.59375 1.242188 -6.6875 1.921875 -7.5 C 2.597656 -8.3125 3.507812 -8.71875 4.65625 -8.71875 C 5.726562 -8.71875 6.578125 -8.363281 7.203125 -7.65625 C 7.828125 -6.957031 8.140625 -6.03125 8.140625 -4.875 L 8.140625 -4.046875 L 2.25 -4.046875 C 2.269531 -3.046875 2.519531 -2.285156 3 -1.765625 C 3.488281 -1.242188 4.171875 -0.984375 5.046875 -0.984375 C 5.960938 -0.984375 6.875 -1.175781 7.78125 -1.5625 L 7.78125 -0.40625 C 7.320312 -0.207031 6.882812 -0.0664062 6.46875 0.015625 C 6.0625 0.109375 5.570312 0.15625 5 0.15625 Z M 4.640625 -7.640625 C 3.953125 -7.640625 3.40625 -7.414062 3 -6.96875 C 2.59375 -6.519531 2.351562 -5.898438 2.28125 -5.109375 L 6.75 -5.109375 C 6.75 -5.921875 6.566406 -6.546875 6.203125 -6.984375 C 5.835938 -7.421875 5.316406 -7.640625 4.640625 -7.640625 Z M 4.640625 -7.640625 "/></g></g></g><g fill="rgb(100%, 100%, 100%)" fill-opacity="1"><g transform="translate(105.971151, 279.626173)"><g><path d="M 2.734375 -1.859375 L 2.859375 -1.6875 C 2.722656 -1.164062 2.523438 -0.5625 2.265625 0.125 C 2.015625 0.820312 1.75 1.46875 1.46875 2.0625 L 0.5 2.0625 C 0.632812 1.519531 0.785156 0.847656 0.953125 0.046875 C 1.128906 -0.742188 1.25 -1.378906 1.3125 -1.859375 Z M 2.734375 -1.859375 "/></g></g></g><g fill="rgb(100%, 100%, 100%)" fill-opacity="1"><g transform="translate(109.892068, 279.626173)"><g/></g></g><g fill="rgb(100%, 100%, 100%)" fill-opacity="1"><g transform="translate(114.047303, 279.626173)"><g><path d="M 7.9375 0 L 1.578125 0 L 1.578125 -11.421875 L 7.9375 -11.421875 L 7.9375 -10.25 L 2.90625 -10.25 L 2.90625 -6.5625 L 7.640625 -6.5625 L 7.640625 -5.390625 L 2.90625 -5.390625 L 2.90625 -1.1875 L 7.9375 -1.1875 Z M 7.9375 0 "/></g></g></g><g fill="rgb(100%, 100%, 100%)" fill-opacity="1"><g transform="translate(122.943573, 279.626173)"><g><path d="M 3.4375 -4.390625 L 0.46875 -8.5625 L 1.9375 -8.5625 L 4.203125 -5.28125 L 6.453125 -8.5625 L 7.90625 -8.5625 L 4.9375 -4.390625 L 8.0625 0 L 6.59375 0 L 4.203125 -3.46875 L 1.78125 0 L 0.3125 0 Z M 3.4375 -4.390625 "/></g></g></g><g fill="rgb(100%, 100%, 100%)" fill-opacity="1"><g transform="translate(131.324344, 279.626173)"><g><path d="M 5.359375 0.15625 C 4.804688 0.15625 4.296875 0.0507812 3.828125 -0.15625 C 3.367188 -0.363281 2.984375 -0.679688 2.671875 -1.109375 L 2.578125 -1.109375 C 2.640625 -0.609375 2.671875 -0.128906 2.671875 0.328125 L 2.671875 3.84375 L 1.375 3.84375 L 1.375 -8.5625 L 2.4375 -8.5625 L 2.609375 -7.390625 L 2.671875 -7.390625 C 3.003906 -7.859375 3.390625 -8.195312 3.828125 -8.40625 C 4.273438 -8.613281 4.785156 -8.71875 5.359375 -8.71875 C 6.492188 -8.71875 7.367188 -8.328125 7.984375 -7.546875 C 8.609375 -6.773438 8.921875 -5.691406 8.921875 -4.296875 C 8.921875 -2.890625 8.601562 -1.796875 7.96875 -1.015625 C 7.34375 -0.234375 6.472656 0.15625 5.359375 0.15625 Z M 5.171875 -7.625 C 4.296875 -7.625 3.660156 -7.378906 3.265625 -6.890625 C 2.878906 -6.410156 2.679688 -5.640625 2.671875 -4.578125 L 2.671875 -4.296875 C 2.671875 -3.085938 2.867188 -2.222656 3.265625 -1.703125 C 3.671875 -1.191406 4.316406 -0.9375 5.203125 -0.9375 C 5.941406 -0.9375 6.519531 -1.234375 6.9375 -1.828125 C 7.363281 -2.429688 7.578125 -3.257812 7.578125 -4.3125 C 7.578125 -5.375 7.363281 -6.191406 6.9375 -6.765625 C 6.519531 -7.335938 5.929688 -7.625 5.171875 -7.625 Z M 5.171875 -7.625 "/></g></g></g><g fill="rgb(100%, 100%, 100%)" fill-opacity="1"><g transform="translate(141.126643, 279.626173)"><g><path d="M 5.28125 -8.71875 C 5.664062 -8.71875 6.007812 -8.6875 6.3125 -8.625 L 6.125 -7.421875 C 5.769531 -7.503906 5.457031 -7.546875 5.1875 -7.546875 C 4.5 -7.546875 3.90625 -7.265625 3.40625 -6.703125 C 2.914062 -6.140625 2.671875 -5.4375 2.671875 -4.59375 L 2.671875 0 L 1.375 0 L 1.375 -8.5625 L 2.453125 -8.5625 L 2.59375 -6.984375 L 2.65625 -6.984375 C 2.976562 -7.535156 3.363281 -7.960938 3.8125 -8.265625 C 4.257812 -8.566406 4.75 -8.71875 5.28125 -8.71875 Z M 5.28125 -8.71875 "/></g></g></g><g fill="rgb(100%, 100%, 100%)" fill-opacity="1"><g transform="translate(147.656298, 279.626173)"><g><path d="M 5 0.15625 C 3.726562 0.15625 2.726562 -0.226562 2 -1 C 1.269531 -1.769531 0.90625 -2.84375 0.90625 -4.21875 C 0.90625 -5.59375 1.242188 -6.6875 1.921875 -7.5 C 2.597656 -8.3125 3.507812 -8.71875 4.65625 -8.71875 C 5.726562 -8.71875 6.578125 -8.363281 7.203125 -7.65625 C 7.828125 -6.957031 8.140625 -6.03125 8.140625 -4.875 L 8.140625 -4.046875 L 2.25 -4.046875 C 2.269531 -3.046875 2.519531 -2.285156 3 -1.765625 C 3.488281 -1.242188 4.171875 -0.984375 5.046875 -0.984375 C 5.960938 -0.984375 6.875 -1.175781 7.78125 -1.5625 L 7.78125 -0.40625 C 7.320312 -0.207031 6.882812 -0.0664062 6.46875 0.015625 C 6.0625 0.109375 5.570312 0.15625 5 0.15625 Z M 4.640625 -7.640625 C 3.953125 -7.640625 3.40625 -7.414062 3 -6.96875 C 2.59375 -6.519531 2.351562 -5.898438 2.28125 -5.109375 L 6.75 -5.109375 C 6.75 -5.921875 6.566406 -6.546875 6.203125 -6.984375 C 5.835938 -7.421875 5.316406 -7.640625 4.640625 -7.640625 Z M 4.640625 -7.640625 "/></g></g></g><g fill="rgb(100%, 100%, 100%)" fill-opacity="1"><g transform="translate(156.630674, 279.626173)"><g><path d="M 6.90625 -2.34375 C 6.90625 -1.539062 6.609375 -0.921875 6.015625 -0.484375 C 5.421875 -0.0546875 4.585938 0.15625 3.515625 0.15625 C 2.378906 0.15625 1.492188 -0.0234375 0.859375 -0.390625 L 0.859375 -1.59375 C 1.265625 -1.382812 1.703125 -1.21875 2.171875 -1.09375 C 2.648438 -0.976562 3.109375 -0.921875 3.546875 -0.921875 C 4.222656 -0.921875 4.742188 -1.023438 5.109375 -1.234375 C 5.472656 -1.453125 5.65625 -1.785156 5.65625 -2.234375 C 5.65625 -2.566406 5.507812 -2.847656 5.21875 -3.078125 C 4.925781 -3.316406 4.363281 -3.597656 3.53125 -3.921875 C 2.726562 -4.222656 2.160156 -4.484375 1.828125 -4.703125 C 1.492188 -4.921875 1.242188 -5.171875 1.078125 -5.453125 C 0.910156 -5.734375 0.828125 -6.070312 0.828125 -6.46875 C 0.828125 -7.164062 1.109375 -7.710938 1.671875 -8.109375 C 2.242188 -8.515625 3.023438 -8.71875 4.015625 -8.71875 C 4.941406 -8.71875 5.84375 -8.53125 6.71875 -8.15625 L 6.265625 -7.109375 C 5.398438 -7.460938 4.617188 -7.640625 3.921875 -7.640625 C 3.304688 -7.640625 2.84375 -7.539062 2.53125 -7.34375 C 2.21875 -7.15625 2.0625 -6.890625 2.0625 -6.546875 C 2.0625 -6.316406 2.117188 -6.117188 2.234375 -5.953125 C 2.359375 -5.796875 2.550781 -5.644531 2.8125 -5.5 C 3.070312 -5.351562 3.570312 -5.144531 4.3125 -4.875 C 5.320312 -4.5 6.003906 -4.125 6.359375 -3.75 C 6.722656 -3.375 6.90625 -2.90625 6.90625 -2.34375 Z M 6.90625 -2.34375 "/></g></g></g><g fill="rgb(100%, 100%, 100%)" fill-opacity="1"><g transform="translate(164.261629, 279.626173)"><g><path d="M 6.90625 -2.34375 C 6.90625 -1.539062 6.609375 -0.921875 6.015625 -0.484375 C 5.421875 -0.0546875 4.585938 0.15625 3.515625 0.15625 C 2.378906 0.15625 1.492188 -0.0234375 0.859375 -0.390625 L 0.859375 -1.59375 C 1.265625 -1.382812 1.703125 -1.21875 2.171875 -1.09375 C 2.648438 -0.976562 3.109375 -0.921875 3.546875 -0.921875 C 4.222656 -0.921875 4.742188 -1.023438 5.109375 -1.234375 C 5.472656 -1.453125 5.65625 -1.785156 5.65625 -2.234375 C 5.65625 -2.566406 5.507812 -2.847656 5.21875 -3.078125 C 4.925781 -3.316406 4.363281 -3.597656 3.53125 -3.921875 C 2.726562 -4.222656 2.160156 -4.484375 1.828125 -4.703125 C 1.492188 -4.921875 1.242188 -5.171875 1.078125 -5.453125 C 0.910156 -5.734375 0.828125 -6.070312 0.828125 -6.46875 C 0.828125 -7.164062 1.109375 -7.710938 1.671875 -8.109375 C 2.242188 -8.515625 3.023438 -8.71875 4.015625 -8.71875 C 4.941406 -8.71875 5.84375 -8.53125 6.71875 -8.15625 L 6.265625 -7.109375 C 5.398438 -7.460938 4.617188 -7.640625 3.921875 -7.640625 C 3.304688 -7.640625 2.84375 -7.539062 2.53125 -7.34375 C 2.21875 -7.15625 2.0625 -6.890625 2.0625 -6.546875 C 2.0625 -6.316406 2.117188 -6.117188 2.234375 -5.953125 C 2.359375 -5.796875 2.550781 -5.644531 2.8125 -5.5 C 3.070312 -5.351562 3.570312 -5.144531 4.3125 -4.875 C 5.320312 -4.5 6.003906 -4.125 6.359375 -3.75 C 6.722656 -3.375 6.90625 -2.90625 6.90625 -2.34375 Z M 6.90625 -2.34375 "/></g></g></g><g fill="rgb(100%, 100%, 100%)" fill-opacity="1"><g transform="translate(171.892583, 279.626173)"><g><path d="M 2.734375 -1.859375 L 2.859375 -1.6875 C 2.722656 -1.164062 2.523438 -0.5625 2.265625 0.125 C 2.015625 0.820312 1.75 1.46875 1.46875 2.0625 L 0.5 2.0625 C 0.632812 1.519531 0.785156 0.847656 0.953125 0.046875 C 1.128906 -0.742188 1.25 -1.378906 1.3125 -1.859375 Z M 2.734375 -1.859375 "/></g></g></g><g fill="rgb(100%, 100%, 100%)" fill-opacity="1"><g transform="translate(175.8135, 279.626173)"><g/></g></g><g fill="rgb(100%, 100%, 100%)" fill-opacity="1"><g transform="translate(179.968735, 279.626173)"><g><path d="M 2.90625 -4.75 L 2.90625 0 L 1.578125 0 L 1.578125 -11.421875 L 4.703125 -11.421875 C 6.109375 -11.421875 7.144531 -11.148438 7.8125 -10.609375 C 8.476562 -10.078125 8.8125 -9.273438 8.8125 -8.203125 C 8.8125 -6.691406 8.046875 -5.671875 6.515625 -5.140625 L 9.625 0 L 8.046875 0 L 5.28125 -4.75 Z M 2.90625 -5.890625 L 4.71875 -5.890625 C 5.65625 -5.890625 6.34375 -6.078125 6.78125 -6.453125 C 7.21875 -6.828125 7.4375 -7.382812 7.4375 -8.125 C 7.4375 -8.882812 7.210938 -9.429688 6.765625 -9.765625 C 6.328125 -10.097656 5.613281 -10.265625 4.625 -10.265625 L 2.90625 -10.265625 Z M 2.90625 -5.890625 "/></g></g></g><g fill="rgb(100%, 100%, 100%)" fill-opacity="1"><g transform="translate(189.856945, 279.626173)"><g><path d="M 7.9375 0 L 1.578125 0 L 1.578125 -11.421875 L 7.9375 -11.421875 L 7.9375 -10.25 L 2.90625 -10.25 L 2.90625 -6.5625 L 7.640625 -6.5625 L 7.640625 -5.390625 L 2.90625 -5.390625 L 2.90625 -1.1875 L 7.9375 -1.1875 Z M 7.9375 0 "/></g></g></g><g fill="rgb(100%, 100%, 100%)" fill-opacity="1"><g transform="translate(198.753215, 279.626173)"><g><path d="M 8.015625 -3.046875 C 8.015625 -2.035156 7.648438 -1.25 6.921875 -0.6875 C 6.191406 -0.125 5.203125 0.15625 3.953125 0.15625 C 2.597656 0.15625 1.554688 -0.0195312 0.828125 -0.375 L 0.828125 -1.65625 C 1.296875 -1.457031 1.804688 -1.300781 2.359375 -1.1875 C 2.910156 -1.070312 3.457031 -1.015625 4 -1.015625 C 4.882812 -1.015625 5.550781 -1.179688 6 -1.515625 C 6.445312 -1.847656 6.671875 -2.316406 6.671875 -2.921875 C 6.671875 -3.316406 6.59375 -3.640625 6.4375 -3.890625 C 6.28125 -4.140625 6.015625 -4.367188 5.640625 -4.578125 C 5.265625 -4.796875 4.695312 -5.039062 3.9375 -5.3125 C 2.875 -5.695312 2.113281 -6.148438 1.65625 -6.671875 C 1.207031 -7.191406 0.984375 -7.867188 0.984375 -8.703125 C 0.984375 -9.585938 1.3125 -10.289062 1.96875 -10.8125 C 2.632812 -11.332031 3.507812 -11.59375 4.59375 -11.59375 C 5.726562 -11.59375 6.773438 -11.382812 7.734375 -10.96875 L 7.3125 -9.8125 C 6.375 -10.207031 5.457031 -10.40625 4.5625 -10.40625 C 3.863281 -10.40625 3.316406 -10.253906 2.921875 -9.953125 C 2.523438 -9.648438 2.328125 -9.226562 2.328125 -8.6875 C 2.328125 -8.289062 2.398438 -7.96875 2.546875 -7.71875 C 2.691406 -7.46875 2.9375 -7.234375 3.28125 -7.015625 C 3.625 -6.804688 4.15625 -6.578125 4.875 -6.328125 C 6.070312 -5.898438 6.894531 -5.441406 7.34375 -4.953125 C 7.789062 -4.460938 8.015625 -3.828125 8.015625 -3.046875 Z M 8.015625 -3.046875 "/></g></g></g><g fill="rgb(100%, 100%, 100%)" fill-opacity="1"><g transform="translate(207.532321, 279.626173)"><g><path d="M 5.09375 0 L 3.765625 0 L 3.765625 -10.25 L 0.140625 -10.25 L 0.140625 -11.421875 L 8.703125 -11.421875 L 8.703125 -10.25 L 5.09375 -10.25 Z M 5.09375 0 "/></g></g></g><g fill="rgb(100%, 100%, 100%)" fill-opacity="1"><g transform="translate(216.381716, 279.626173)"><g/></g></g><g fill="rgb(100%, 100%, 100%)" fill-opacity="1"><g transform="translate(220.536951, 279.626173)"><g><path d="M 8.75 0 L 7.328125 -3.640625 L 2.75 -3.640625 L 1.34375 0 L 0 0 L 4.515625 -11.46875 L 5.640625 -11.46875 L 10.125 0 Z M 6.921875 -4.828125 L 5.59375 -8.375 C 5.414062 -8.820312 5.238281 -9.367188 5.0625 -10.015625 C 4.945312 -9.515625 4.78125 -8.96875 4.5625 -8.375 L 3.21875 -4.828125 Z M 6.921875 -4.828125 "/></g></g></g><g fill="rgb(100%, 100%, 100%)" fill-opacity="1"><g transform="translate(230.659478, 279.626173)"><g><path d="M 8.8125 -8.09375 C 8.8125 -6.9375 8.414062 -6.046875 7.625 -5.421875 C 6.84375 -4.804688 5.71875 -4.5 4.25 -4.5 L 2.90625 -4.5 L 2.90625 0 L 1.578125 0 L 1.578125 -11.421875 L 4.53125 -11.421875 C 7.382812 -11.421875 8.8125 -10.3125 8.8125 -8.09375 Z M 2.90625 -5.640625 L 4.09375 -5.640625 C 5.269531 -5.640625 6.117188 -5.828125 6.640625 -6.203125 C 7.171875 -6.585938 7.4375 -7.195312 7.4375 -8.03125 C 7.4375 -8.789062 7.1875 -9.351562 6.6875 -9.71875 C 6.195312 -10.09375 5.429688 -10.28125 4.390625 -10.28125 L 2.90625 -10.28125 Z M 2.90625 -5.640625 "/></g></g></g><g fill="rgb(100%, 100%, 100%)" fill-opacity="1"><g transform="translate(240.289932, 279.626173)"><g><path d="M 1.578125 0 L 1.578125 -11.421875 L 2.90625 -11.421875 L 2.90625 0 Z M 1.578125 0 "/></g></g></g><g fill="rgb(100%, 100%, 100%)" fill-opacity="1"><g transform="translate(244.749786, 279.626173)"><g><path d="M 2.734375 -1.859375 L 2.859375 -1.6875 C 2.722656 -1.164062 2.523438 -0.5625 2.265625 0.125 C 2.015625 0.820312 1.75 1.46875 1.46875 2.0625 L 0.5 2.0625 C 0.632812 1.519531 0.785156 0.847656 0.953125 0.046875 C 1.128906 -0.742188 1.25 -1.378906 1.3125 -1.859375 Z M 2.734375 -1.859375 "/></g></g></g><g fill="rgb(100%, 100%, 100%)" fill-opacity="1"><g transform="translate(248.670715, 279.626173)"><g/></g></g><g fill="rgb(100%, 100%, 100%)" fill-opacity="1"><g transform="translate(252.82595, 279.626173)"><g><path d="M 8.75 0 L 7.328125 -3.640625 L 2.75 -3.640625 L 1.34375 0 L 0 0 L 4.515625 -11.46875 L 5.640625 -11.46875 L 10.125 0 Z M 6.921875 -4.828125 L 5.59375 -8.375 C 5.414062 -8.820312 5.238281 -9.367188 5.0625 -10.015625 C 4.945312 -9.515625 4.78125 -8.96875 4.5625 -8.375 L 3.21875 -4.828125 Z M 6.921875 -4.828125 "/></g></g></g><g fill="rgb(100%, 100%, 100%)" fill-opacity="1"><g transform="translate(262.948477, 279.626173)"><g><path d="M 8.390625 -8.5625 L 8.390625 -7.75 L 6.796875 -7.5625 C 6.941406 -7.375 7.070312 -7.132812 7.1875 -6.84375 C 7.300781 -6.550781 7.359375 -6.21875 7.359375 -5.84375 C 7.359375 -5.007812 7.070312 -4.34375 6.5 -3.84375 C 5.925781 -3.34375 5.140625 -3.09375 4.140625 -3.09375 C 3.890625 -3.09375 3.648438 -3.113281 3.421875 -3.15625 C 2.867188 -2.863281 2.59375 -2.492188 2.59375 -2.046875 C 2.59375 -1.816406 2.6875 -1.644531 2.875 -1.53125 C 3.070312 -1.414062 3.40625 -1.359375 3.875 -1.359375 L 5.390625 -1.359375 C 6.316406 -1.359375 7.03125 -1.160156 7.53125 -0.765625 C 8.03125 -0.378906 8.28125 0.1875 8.28125 0.9375 C 8.28125 1.882812 7.898438 2.601562 7.140625 3.09375 C 6.378906 3.59375 5.269531 3.84375 3.8125 3.84375 C 2.6875 3.84375 1.820312 3.632812 1.21875 3.21875 C 0.613281 2.800781 0.3125 2.210938 0.3125 1.453125 C 0.3125 0.929688 0.476562 0.476562 0.8125 0.09375 C 1.144531 -0.28125 1.613281 -0.535156 2.21875 -0.671875 C 2 -0.773438 1.8125 -0.929688 1.65625 -1.140625 C 1.507812 -1.347656 1.4375 -1.585938 1.4375 -1.859375 C 1.4375 -2.171875 1.519531 -2.441406 1.6875 -2.671875 C 1.851562 -2.910156 2.117188 -3.140625 2.484375 -3.359375 C 2.035156 -3.546875 1.671875 -3.859375 1.390625 -4.296875 C 1.117188 -4.734375 0.984375 -5.234375 0.984375 -5.796875 C 0.984375 -6.734375 1.265625 -7.453125 1.828125 -7.953125 C 2.390625 -8.460938 3.1875 -8.71875 4.21875 -8.71875 C 4.664062 -8.71875 5.066406 -8.664062 5.421875 -8.5625 Z M 1.5625 1.4375 C 1.5625 1.90625 1.753906 2.257812 2.140625 2.5 C 2.535156 2.738281 3.097656 2.859375 3.828125 2.859375 C 4.910156 2.859375 5.710938 2.691406 6.234375 2.359375 C 6.765625 2.035156 7.03125 1.597656 7.03125 1.046875 C 7.03125 0.578125 6.882812 0.25 6.59375 0.0625 C 6.3125 -0.113281 5.773438 -0.203125 4.984375 -0.203125 L 3.421875 -0.203125 C 2.835938 -0.203125 2.378906 -0.0625 2.046875 0.21875 C 1.722656 0.507812 1.5625 0.914062 1.5625 1.4375 Z M 2.265625 -5.828125 C 2.265625 -5.222656 2.429688 -4.765625 2.765625 -4.453125 C 3.109375 -4.148438 3.582031 -4 4.1875 -4 C 5.445312 -4 6.078125 -4.613281 6.078125 -5.84375 C 6.078125 -7.132812 5.4375 -7.78125 4.15625 -7.78125 C 3.550781 -7.78125 3.082031 -7.613281 2.75 -7.28125 C 2.425781 -6.957031 2.265625 -6.472656 2.265625 -5.828125 Z M 2.265625 -5.828125 "/></g></g></g><g fill="rgb(100%, 100%, 100%)" fill-opacity="1"><g transform="translate(271.711973, 279.626173)"><g><path d="M 2.671875 0 L 1.375 0 L 1.375 -8.5625 L 2.671875 -8.5625 Z M 1.265625 -10.890625 C 1.265625 -11.179688 1.335938 -11.394531 1.484375 -11.53125 C 1.628906 -11.675781 1.8125 -11.75 2.03125 -11.75 C 2.238281 -11.75 2.414062 -11.675781 2.5625 -11.53125 C 2.71875 -11.394531 2.796875 -11.179688 2.796875 -10.890625 C 2.796875 -10.597656 2.71875 -10.378906 2.5625 -10.234375 C 2.414062 -10.085938 2.238281 -10.015625 2.03125 -10.015625 C 1.8125 -10.015625 1.628906 -10.085938 1.484375 -10.234375 C 1.335938 -10.378906 1.265625 -10.597656 1.265625 -10.890625 Z M 1.265625 -10.890625 "/></g></g></g><g fill="rgb(100%, 100%, 100%)" fill-opacity="1"><g transform="translate(275.757872, 279.626173)"><g><path d="M 2.671875 0 L 1.375 0 L 1.375 -12.15625 L 2.671875 -12.15625 Z M 2.671875 0 "/></g></g></g><g fill="rgb(100%, 100%, 100%)" fill-opacity="1"><g transform="translate(279.80377, 279.626173)"><g><path d="M 5 0.15625 C 3.726562 0.15625 2.726562 -0.226562 2 -1 C 1.269531 -1.769531 0.90625 -2.84375 0.90625 -4.21875 C 0.90625 -5.59375 1.242188 -6.6875 1.921875 -7.5 C 2.597656 -8.3125 3.507812 -8.71875 4.65625 -8.71875 C 5.726562 -8.71875 6.578125 -8.363281 7.203125 -7.65625 C 7.828125 -6.957031 8.140625 -6.03125 8.140625 -4.875 L 8.140625 -4.046875 L 2.25 -4.046875 C 2.269531 -3.046875 2.519531 -2.285156 3 -1.765625 C 3.488281 -1.242188 4.171875 -0.984375 5.046875 -0.984375 C 5.960938 -0.984375 6.875 -1.175781 7.78125 -1.5625 L 7.78125 -0.40625 C 7.320312 -0.207031 6.882812 -0.0664062 6.46875 0.015625 C 6.0625 0.109375 5.570312 0.15625 5 0.15625 Z M 4.640625 -7.640625 C 3.953125 -7.640625 3.40625 -7.414062 3 -6.96875 C 2.59375 -6.519531 2.351562 -5.898438 2.28125 -5.109375 L 6.75 -5.109375 C 6.75 -5.921875 6.566406 -6.546875 6.203125 -6.984375 C 5.835938 -7.421875 5.316406 -7.640625 4.640625 -7.640625 Z M 4.640625 -7.640625 "/></g></g></g><g fill="rgb(100%, 100%, 100%)" fill-opacity="1"><g transform="translate(288.766416, 279.626173)"><g/></g></g></svg>