<svg xmlns="http://www.w3.org/2000/svg" xmlns:xlink="http://www.w3.org/1999/xlink" width="375" zoomAndPan="magnify" viewBox="0 0 375 374.999991" height="374.999991" preserveAspectRatio="xMidYMid meet" version="1.0"><defs><g><g id="id1"/><g id="id2"/><g id="id3"/><g id="id4"/><g id="id5"/><g id="id6"/><g id="id7"/><g id="id8"/><g id="id9"/><g id="id10"/><g id="id11"/><g id="id12"/><g id="id13"/></g><clipPath id="id14"><path d="M 187.5 138.324219 L 204 138.324219 L 204 154.074219 L 187.5 154.074219 Z M 187.5 138.324219 " clip-rule="nonzero"/></clipPath><clipPath id="id15"><path d="M 260.132812 223.03125 L 276.632812 223.03125 L 276.632812 238.78125 L 260.132812 238.78125 Z M 260.132812 223.03125 " clip-rule="nonzero"/></clipPath></defs><rect x="-37.5" width="450" fill="rgb(100%, 100%, 100%)" y="-37.499999" height="449.999989" fill-opacity="1"/><rect x="-37.5" width="450" fill="rgb(100%, 100%, 100%)" y="-37.499999" height="449.999989" fill-opacity="1"/><rect x="-37.5" width="450" fill="rgb(9.01947%, 31.369019%, 60.778809%)" y="-37.499999" height="449.999989" fill-opacity="1"/><g clip-path="url(#id14)"><path fill="rgb(23.139954%, 22.749329%, 21.569824%)" d="M 200.625 138.328125 L 197.5 144.804688 L 204 147.910156 L 196.855469 146.964844 L 195.890625 154.074219 L 194.59375 147.015625 L 187.5 148.304688 L 193.847656 144.882812 L 190.417969 138.582031 L 195.636719 143.519531 Z M 200.625 138.328125 " fill-opacity="1" fill-rule="nonzero"/></g><g fill="rgb(0%, 0%, 0%)" fill-opacity="1"><g transform="translate(160.264918, 185.760632)"><g><path d="M 14.550781 -7.90625 C 14.53125 -8.097656 14.378906 -8.214844 14.191406 -8.199219 C 12.957031 -8.042969 11.792969 -7.820312 10.714844 -7.515625 C 11.125 -9.328125 11.519531 -11.023438 11.863281 -12.425781 C 12.445312 -14.855469 12.339844 -16.15625 11.519531 -16.414062 C 10.527344 -16.722656 9.175781 -14.960938 8.644531 -13.554688 C 8.0625 -11.964844 8.386719 -10.714844 9.515625 -10.21875 C 9.6875 -10.132812 9.875 -10.21875 9.945312 -10.371094 C 10.03125 -10.542969 9.945312 -10.730469 9.789062 -10.816406 C 8.695312 -11.296875 9.003906 -12.597656 9.277344 -13.332031 C 9.824219 -14.804688 10.9375 -15.902344 11.332031 -15.78125 C 11.503906 -15.730469 11.808594 -15.046875 11.210938 -12.582031 C 10.851562 -11.074219 10.425781 -9.242188 9.980469 -7.292969 C 8.421875 -6.777344 7.035156 -6.078125 5.835938 -5.203125 C 3.972656 -3.851562 2.585938 -2.089844 1.746094 0 C 0.222656 3.75 0.804688 7.789062 2.226562 9.515625 C 2.894531 10.320312 3.664062 10.730469 4.449219 10.730469 C 4.605469 10.730469 4.777344 10.714844 4.945312 10.679688 C 6.144531 10.390625 7.070312 9.019531 7.53125 6.847656 C 7.855469 5.339844 9.242188 -1.09375 10.542969 -6.796875 C 11.640625 -7.121094 12.871094 -7.378906 14.257812 -7.546875 C 14.445312 -7.566406 14.582031 -7.71875 14.550781 -7.90625 Z M 6.898438 6.710938 C 6.488281 8.625 5.734375 9.808594 4.777344 10.046875 C 4.109375 10.203125 3.371094 9.859375 2.738281 9.105469 C 1.09375 7.101562 1.265625 2.945312 2.34375 0.238281 C 3.320312 -2.140625 5.375 -4.980469 9.808594 -6.554688 C 8.542969 -0.957031 7.207031 5.238281 6.898438 6.710938 Z M 6.898438 6.710938 "/></g></g></g><g fill="rgb(0%, 0%, 0%)" fill-opacity="1"><g transform="translate(173.615724, 185.760632)"><g><path d="M 7.15625 -3.800781 C 7 -3.867188 6.796875 -3.800781 6.726562 -3.644531 C 5.425781 -0.992188 4.449219 -0.152344 3.988281 -0.238281 C 3.800781 -0.273438 3.183594 -0.632812 3.03125 -3.628906 C 3.03125 -3.765625 2.925781 -3.886719 2.808594 -3.917969 C 2.671875 -3.953125 2.515625 -3.917969 2.449219 -3.800781 C 2.34375 -3.679688 2.242188 -3.542969 2.140625 -3.390625 C 1.710938 -2.808594 1.148438 -2.019531 0.460938 -1.285156 C 0.359375 -1.164062 0.273438 -1.09375 0.222656 -1.0625 C 0.101562 -1.660156 0.734375 -3.953125 1.746094 -4.671875 C 2.035156 -4.878906 2.429688 -5.03125 2.960938 -4.417969 C 3.082031 -4.277344 3.285156 -4.261719 3.421875 -4.382812 C 3.558594 -4.484375 3.578125 -4.707031 3.476562 -4.84375 C 2.824219 -5.597656 2.207031 -5.578125 1.796875 -5.441406 C 0.480469 -4.980469 -0.410156 -2.449219 -0.445312 -1.285156 C -0.460938 -0.804688 -0.324219 -0.496094 -0.0507812 -0.394531 C 0.375 -0.222656 0.804688 -0.683594 0.941406 -0.839844 C 1.523438 -1.472656 2.054688 -2.15625 2.429688 -2.6875 C 2.617188 -0.734375 3.082031 0.238281 3.851562 0.410156 C 3.917969 0.410156 3.988281 0.429688 4.054688 0.429688 C 5.21875 0.429688 6.46875 -1.609375 7.308594 -3.355469 C 7.394531 -3.527344 7.324219 -3.714844 7.15625 -3.800781 Z M 7.15625 -3.800781 "/></g></g></g><g fill="rgb(0%, 0%, 0%)" fill-opacity="1"><g transform="translate(179.983028, 185.760632)"><g><path d="M 8.59375 -3.730469 C 8.457031 -3.851562 8.25 -3.835938 8.128906 -3.695312 C 7.429688 -2.875 6.488281 -2.464844 5.71875 -2.671875 C 5.082031 -2.839844 4.621094 -3.457031 4.449219 -4.382812 C 4.417969 -4.535156 4.261719 -4.636719 4.109375 -4.636719 C 3.953125 -4.636719 3.816406 -4.519531 3.800781 -4.363281 C 3.441406 -1.796875 1.402344 1.265625 0.429688 1.59375 C 0.308594 1.625 0.273438 1.609375 0.273438 1.59375 C 0.1875 1.523438 -0.394531 0.71875 1.421875 -4.671875 C 1.472656 -4.84375 1.386719 -5.03125 1.214844 -5.082031 C 1.042969 -5.152344 0.855469 -5.050781 0.789062 -4.878906 C -1.199219 1.0625 -0.445312 1.8125 -0.207031 2.054688 C -0.101562 2.140625 0.0703125 2.277344 0.324219 2.277344 C 0.410156 2.277344 0.511719 2.257812 0.632812 2.207031 C 1.265625 2.003906 2.121094 1.09375 2.894531 -0.1875 C 3.476562 -1.148438 3.917969 -2.171875 4.195312 -3.132812 C 4.519531 -2.566406 4.980469 -2.191406 5.546875 -2.035156 C 6.554688 -1.78125 7.753906 -2.257812 8.625 -3.269531 C 8.746094 -3.40625 8.730469 -3.613281 8.59375 -3.730469 Z M 8.59375 -3.730469 "/></g></g></g><g fill="rgb(0%, 0%, 0%)" fill-opacity="1"><g transform="translate(188.061975, 185.760632)"><g><path d="M 7.15625 -3.800781 C 7 -3.867188 6.796875 -3.800781 6.726562 -3.644531 C 5.425781 -0.992188 4.449219 -0.152344 3.988281 -0.238281 C 3.800781 -0.273438 3.183594 -0.632812 3.03125 -3.628906 C 3.03125 -3.765625 2.925781 -3.886719 2.808594 -3.917969 C 2.671875 -3.953125 2.515625 -3.917969 2.449219 -3.800781 C 2.34375 -3.679688 2.242188 -3.542969 2.140625 -3.390625 C 1.710938 -2.808594 1.148438 -2.019531 0.460938 -1.285156 C 0.359375 -1.164062 0.273438 -1.09375 0.222656 -1.0625 C 0.101562 -1.660156 0.734375 -3.953125 1.746094 -4.671875 C 2.035156 -4.878906 2.429688 -5.03125 2.960938 -4.417969 C 3.082031 -4.277344 3.285156 -4.261719 3.421875 -4.382812 C 3.558594 -4.484375 3.578125 -4.707031 3.476562 -4.84375 C 2.824219 -5.597656 2.207031 -5.578125 1.796875 -5.441406 C 0.480469 -4.980469 -0.410156 -2.449219 -0.445312 -1.285156 C -0.460938 -0.804688 -0.324219 -0.496094 -0.0507812 -0.394531 C 0.375 -0.222656 0.804688 -0.683594 0.941406 -0.839844 C 1.523438 -1.472656 2.054688 -2.15625 2.429688 -2.6875 C 2.617188 -0.734375 3.082031 0.238281 3.851562 0.410156 C 3.917969 0.410156 3.988281 0.429688 4.054688 0.429688 C 5.21875 0.429688 6.46875 -1.609375 7.308594 -3.355469 C 7.394531 -3.527344 7.324219 -3.714844 7.15625 -3.800781 Z M 7.15625 -3.800781 "/></g></g></g><g fill="rgb(0%, 0%, 0%)" fill-opacity="1"><g transform="translate(194.429279, 185.760632)"><g><path d="M 7.617188 -3.917969 C 7.480469 -4.039062 7.273438 -4.023438 7.15625 -3.886719 C 5.800781 -2.328125 3.679688 0.152344 3.335938 0.597656 C 3.234375 0.71875 3.132812 0.855469 3.03125 0.992188 C 2.894531 0.652344 2.722656 0.324219 2.5 -0.015625 C 1.675781 -1.285156 0.941406 -2.480469 0.976562 -3.320312 C 1.011719 -3.988281 1.351562 -4.570312 1.917969 -4.914062 C 2.378906 -5.1875 2.894531 -5.238281 3.285156 -5.050781 C 3.441406 -4.980469 3.644531 -5.050781 3.714844 -5.21875 C 3.800781 -5.375 3.730469 -5.578125 3.558594 -5.648438 C 2.976562 -5.921875 2.226562 -5.855469 1.574219 -5.476562 C 0.820312 -5.015625 0.375 -4.246094 0.324219 -3.355469 C 0.273438 -2.3125 1.027344 -1.0625 1.953125 0.34375 C 2.242188 0.789062 2.429688 1.214844 2.550781 1.625 C 1.214844 3.441406 -0.222656 5.769531 0.511719 6.488281 C 0.632812 6.605469 0.789062 6.660156 0.941406 6.660156 C 1.214844 6.660156 1.523438 6.519531 1.847656 6.265625 C 2.773438 5.496094 3.730469 3.75 3.269531 1.761719 C 3.457031 1.523438 3.644531 1.265625 3.851562 1.011719 C 4.195312 0.582031 6.316406 -1.898438 7.652344 -3.457031 C 7.769531 -3.59375 7.753906 -3.800781 7.617188 -3.917969 Z M 2.054688 5.03125 C 1.59375 5.71875 1.128906 5.992188 0.976562 6.007812 C 0.90625 5.769531 1.128906 4.777344 2.722656 2.515625 C 2.789062 3.75 2.277344 4.691406 2.054688 5.03125 Z M 2.054688 5.03125 "/></g></g></g><g fill="rgb(0%, 0%, 0%)" fill-opacity="1"><g transform="translate(201.327195, 185.760632)"><g><path d="M 5.648438 -3.886719 C 5.496094 -3.972656 5.289062 -3.9375 5.203125 -3.78125 C 4.039062 -2.019531 2.105469 0.925781 0.839844 0.652344 C 0.632812 0.597656 0.460938 0.460938 0.34375 0.238281 C 0 -0.375 0.0507812 -1.609375 0.445312 -2.6875 C 0.871094 -3.835938 1.386719 -4.125 1.488281 -4.109375 C 1.507812 -4.089844 1.609375 -3.867188 1.472656 -3.335938 C 1.421875 -3.148438 1.523438 -2.976562 1.695312 -2.925781 C 1.882812 -2.894531 2.054688 -2.996094 2.105469 -3.167969 C 2.429688 -4.398438 1.867188 -4.671875 1.695312 -4.742188 C 1.0625 -4.929688 0.289062 -4.175781 -0.171875 -2.910156 C -0.566406 -1.847656 -0.734375 -0.34375 -0.222656 0.566406 C -0.015625 0.957031 0.308594 1.199219 0.703125 1.285156 C 0.804688 1.316406 0.90625 1.316406 1.011719 1.316406 C 2.5 1.316406 4.109375 -0.925781 5.75 -3.421875 C 5.855469 -3.578125 5.800781 -3.78125 5.648438 -3.886719 Z M 5.648438 -3.886719 "/></g></g></g><g fill="rgb(0%, 0%, 0%)" fill-opacity="1"><g transform="translate(206.393655, 185.760632)"><g><path d="M 7.515625 -3.867188 C 7.34375 -3.953125 7.136719 -3.886719 7.070312 -3.714844 C 5.101562 0.429688 3.234375 2.550781 2.824219 2.480469 C 2.789062 2.464844 2.191406 1.882812 4.125 -4.054688 C 4.175781 -4.210938 4.296875 -4.570312 4.023438 -4.757812 C 3.765625 -4.964844 3.476562 -4.777344 2.996094 -4.449219 C 2.480469 -4.125 1.78125 -3.664062 1.230469 -3.730469 C 2.976562 -6.742188 2.808594 -7.410156 2.414062 -7.667969 C 1.796875 -8.027344 0.90625 -6.984375 0.496094 -6.382812 C -0.34375 -5.082031 -0.324219 -3.902344 0.566406 -3.304688 C 1.472656 -2.671875 2.652344 -3.441406 3.355469 -3.902344 C 3.371094 -3.917969 3.371094 -3.917969 3.390625 -3.9375 C 2.722656 -1.832031 2.292969 -0.171875 2.140625 0.976562 C 1.953125 2.242188 2.089844 2.910156 2.566406 3.097656 C 2.652344 3.113281 2.722656 3.132812 2.808594 3.132812 C 4.175781 3.132812 6.554688 -1.078125 7.667969 -3.421875 C 7.738281 -3.59375 7.667969 -3.800781 7.515625 -3.867188 Z M 0.597656 -5.050781 C 0.839844 -5.972656 1.644531 -6.828125 2.003906 -7.035156 C 1.96875 -6.761719 1.78125 -5.992188 0.683594 -4.089844 C 0.566406 -4.277344 0.480469 -4.570312 0.597656 -5.050781 Z M 0.597656 -5.050781 "/></g></g></g><g fill="rgb(0%, 0%, 0%)" fill-opacity="1"><g transform="translate(213.223106, 185.760632)"><g><path d="M 4.996094 -3.886719 C 4.84375 -3.988281 4.65625 -3.9375 4.554688 -3.78125 C 3.40625 -1.933594 1.488281 -0.1875 0.90625 -0.429688 C 0.839844 -0.460938 0.289062 -0.789062 1.042969 -3.679688 C 1.078125 -3.867188 0.976562 -4.039062 0.804688 -4.089844 C 0.617188 -4.125 0.445312 -4.023438 0.394531 -3.851562 C -0.222656 -1.4375 -0.136719 -0.152344 0.632812 0.171875 C 0.753906 0.222656 0.871094 0.238281 0.992188 0.238281 C 2.277344 0.238281 4.246094 -2.054688 5.117188 -3.441406 C 5.203125 -3.59375 5.152344 -3.800781 4.996094 -3.886719 Z M 0.957031 -5.273438 C 1.832031 -5.21875 1.8125 -6.316406 1.113281 -6.078125 C 0.753906 -5.972656 0.289062 -5.304688 0.957031 -5.273438 Z M 0.957031 -5.273438 "/></g></g></g><g fill="rgb(0%, 0%, 0%)" fill-opacity="1"><g transform="translate(217.55356, 185.760632)"><g><path d="M 3.664062 -6.351562 C 3.21875 -6.488281 2.054688 -6.402344 0.839844 -2.859375 C 1.523438 -6.726562 1.644531 -7.410156 1.625 -7.53125 C 1.625 -7.703125 1.472656 -7.855469 1.285156 -7.839844 C 1.113281 -7.820312 0.976562 -7.683594 0.976562 -7.515625 C 0.957031 -7.273438 0.53125 -4.964844 0.0703125 -2.292969 C -0.0351562 -1.710938 -0.152344 -1.113281 -0.257812 -0.496094 C -0.496094 -0.410156 -0.734375 -0.324219 -0.976562 -0.257812 C -1.148438 -0.207031 -1.25 -0.0351562 -1.199219 0.152344 C -1.148438 0.324219 -0.976562 0.429688 -0.804688 0.375 C -0.667969 0.34375 -0.53125 0.289062 -0.394531 0.257812 C -1.128906 4.433594 -1.96875 9.207031 -2.363281 11.828125 C -2.378906 12 -2.257812 12.167969 -2.089844 12.1875 C -2.070312 12.1875 -2.054688 12.203125 -2.035156 12.203125 C -1.882812 12.203125 -1.730469 12.085938 -1.710938 11.929688 C -1.285156 9.398438 -0.101562 3.390625 0.789062 -0.257812 C 1.316406 -0.53125 1.8125 -0.839844 2.277344 -1.199219 C 3.011719 -1.796875 3.953125 -2.753906 4.277344 -4.003906 C 4.605469 -5.152344 4.332031 -6.144531 3.664062 -6.351562 Z M 3.644531 -4.175781 C 3.320312 -2.960938 2.242188 -1.882812 1.011719 -1.128906 C 1.164062 -1.710938 1.300781 -2.207031 1.421875 -2.566406 C 2.3125 -5.1875 3.132812 -5.71875 3.421875 -5.71875 C 3.441406 -5.71875 3.457031 -5.71875 3.476562 -5.71875 C 3.695312 -5.648438 3.886719 -5.050781 3.644531 -4.175781 Z M 3.644531 -4.175781 "/></g></g></g><g fill="rgb(0%, 0%, 0%)" fill-opacity="1"><g transform="translate(222.722717, 185.760632)"><g><path d="M 14.445312 -10.097656 C 14.222656 -10.40625 13.230469 -10.59375 2.601562 -10.355469 C 2.945312 -11.742188 3.253906 -12.992188 3.527344 -14 C 3.578125 -14.191406 3.476562 -14.359375 3.304688 -14.410156 C 3.132812 -14.464844 2.945312 -14.359375 2.894531 -14.191406 C 2.601562 -13.109375 2.277344 -11.808594 1.917969 -10.339844 C 0.976562 -10.320312 -0.0507812 -10.304688 -1.164062 -10.269531 C -2.6875 -10.234375 -3.886719 -10.203125 -4.347656 -10.203125 C -4.535156 -10.203125 -4.691406 -10.046875 -4.691406 -9.875 C -4.691406 -9.6875 -4.535156 -9.535156 -4.347656 -9.535156 C -3.867188 -9.550781 -2.671875 -9.566406 -1.148438 -9.621094 C -0.34375 -9.636719 0.652344 -9.652344 1.761719 -9.6875 C 1.027344 -6.574219 0.1875 -2.839844 -0.566406 0.804688 C -1.113281 3.476562 -1.558594 5.785156 -1.847656 7.480469 C -2.003906 8.371094 -2.105469 9.070312 -2.15625 9.550781 C -2.226562 10.203125 -2.257812 10.578125 -1.933594 10.699219 C -1.882812 10.699219 -1.847656 10.714844 -1.796875 10.714844 C -1.507812 10.714844 -1.351562 10.304688 -1.214844 9.925781 C -1.148438 9.757812 -1.230469 9.566406 -1.402344 9.5 C -1.4375 9.5 -1.453125 9.484375 -1.488281 9.484375 C -1.316406 8.148438 -0.804688 5.152344 0.1875 0.429688 C 0.925781 -3.148438 1.730469 -6.726562 2.449219 -9.703125 C 7.15625 -9.808594 13.265625 -9.894531 13.96875 -9.652344 C 14.085938 -9.550781 14.242188 -9.550781 14.378906 -9.636719 C 14.515625 -9.738281 14.550781 -9.945312 14.445312 -10.097656 Z M 14.445312 -10.097656 "/></g></g></g><g fill="rgb(0%, 0%, 0%)" fill-opacity="1"><g transform="translate(138.956465, 210.83818)"><g/></g></g><g fill="rgb(0%, 0%, 0%)" fill-opacity="1"><g transform="translate(143.558189, 210.83818)"><g/></g></g><g fill="rgb(0%, 0%, 0%)" fill-opacity="1"><g transform="translate(148.159914, 210.83818)"><g/></g></g><g fill="rgb(0%, 0%, 0%)" fill-opacity="1"><g transform="translate(152.761639, 210.83818)"><g/></g></g><g fill="rgb(0%, 0%, 0%)" fill-opacity="1"><g transform="translate(157.363363, 210.83818)"><g/></g></g><g fill="rgb(0%, 0%, 0%)" fill-opacity="1"><g transform="translate(161.965088, 210.83818)"><g/></g></g><g fill="rgb(0%, 0%, 0%)" fill-opacity="1"><g transform="translate(166.566812, 210.83818)"><g/></g></g><g fill="rgb(0%, 0%, 0%)" fill-opacity="1"><g transform="translate(171.168537, 210.83818)"><g/></g></g><g fill="rgb(0%, 0%, 0%)" fill-opacity="1"><g transform="translate(175.770261, 210.83818)"><g/></g></g><g fill="rgb(0%, 0%, 0%)" fill-opacity="1"><g transform="translate(180.371986, 210.83818)"><g/></g></g><g fill="rgb(0%, 0%, 0%)" fill-opacity="1"><g transform="translate(184.97371, 210.83818)"><g/></g></g><g fill="rgb(0%, 0%, 0%)" fill-opacity="1"><g transform="translate(189.575435, 210.83818)"><g/></g></g><g fill="rgb(0%, 0%, 0%)" fill-opacity="1"><g transform="translate(194.174341, 210.83818)"><g><path d="M 11.601562 -14.421875 C 10.285156 -15.230469 8.304688 -15.109375 6.339844 -14.179688 C 6.386719 -14.40625 6.429688 -14.632812 6.460938 -14.824219 C 6.492188 -14.976562 6.386719 -15.125 6.234375 -15.15625 C 6.070312 -15.1875 5.921875 -15.082031 5.890625 -14.914062 C 5.847656 -14.601562 5.769531 -14.242188 5.695312 -13.835938 C 5.382812 -13.671875 5.066406 -13.460938 4.765625 -13.25 C 2.355469 -11.511719 0.0742188 -8.304688 0.929688 -4.46875 C 0.960938 -4.316406 1.109375 -4.210938 1.273438 -4.257812 C 1.425781 -4.289062 1.527344 -4.4375 1.484375 -4.601562 C 0.691406 -8.15625 2.832031 -11.152344 5.097656 -12.773438 C 5.246094 -12.878906 5.398438 -12.980469 5.546875 -13.085938 C 5.261719 -11.632812 4.886719 -9.804688 4.480469 -7.796875 C 3.238281 -1.648438 2.488281 2.171875 2.082031 4.570312 C 1.949219 4.378906 1.859375 4.121094 1.828125 3.808594 C 1.800781 3.644531 1.664062 3.539062 1.5 3.554688 C 1.347656 3.566406 1.230469 3.71875 1.246094 3.867188 C 1.320312 4.511719 1.574219 4.976562 1.964844 5.261719 C 1.46875 8.273438 1.632812 8.53125 1.933594 8.621094 C 1.964844 8.632812 2.007812 8.632812 2.039062 8.632812 C 2.324219 8.632812 2.519531 8.261719 2.832031 7.496094 C 2.894531 7.34375 2.832031 7.179688 2.683594 7.121094 C 2.535156 7.0625 2.367188 7.121094 2.308594 7.269531 C 2.277344 7.332031 2.261719 7.375 2.25 7.421875 C 2.292969 6.941406 2.382812 6.28125 2.503906 5.488281 C 2.625 5.5 2.742188 5.515625 2.878906 5.53125 C 2.894531 5.53125 2.910156 5.53125 2.910156 5.53125 C 4.453125 5.53125 6.730469 3.898438 8.726562 1.363281 C 11.09375 -1.617188 12.683594 -5.367188 13.238281 -9.144531 C 13.714844 -12.398438 12.605469 -13.804688 11.601562 -14.421875 Z M 12.667969 -9.234375 C 11.949219 -4.257812 9.609375 -0.675781 8.273438 1.019531 C 6.132812 3.734375 4.03125 4.945312 2.910156 4.945312 C 2.910156 4.945312 2.894531 4.945312 2.894531 4.945312 C 2.789062 4.945312 2.699219 4.933594 2.609375 4.917969 C 3.179688 1.542969 4.242188 -3.734375 5.050781 -7.675781 C 5.5 -9.925781 5.921875 -11.949219 6.207031 -13.460938 C 8.109375 -14.480469 10.058594 -14.675781 11.304688 -13.925781 C 12.53125 -13.175781 13.011719 -11.558594 12.667969 -9.234375 Z M 12.667969 -9.234375 "/></g></g></g><g fill="rgb(0%, 0%, 0%)" fill-opacity="1"><g transform="translate(206.930262, 210.83818)"><g><path d="M 5.066406 -3.34375 C 4.933594 -3.433594 4.753906 -3.402344 4.664062 -3.269531 C 3.539062 -1.695312 2.625 -0.703125 1.722656 -0.0585938 C 1.273438 0.253906 0.839844 0.316406 0.554688 0.105469 C 0.375 -0.03125 -0.179688 -0.628906 0.464844 -2.726562 C 1.917969 -3.925781 2.714844 -5.066406 2.503906 -5.667969 C 2.429688 -5.847656 2.25 -5.964844 2.054688 -5.964844 C 1.453125 -5.953125 0.539062 -4.917969 -0.0585938 -2.984375 C -0.792969 -0.601562 -0.195312 0.269531 0.226562 0.570312 C 0.433594 0.734375 0.675781 0.808594 0.945312 0.808594 C 1.289062 0.808594 1.679688 0.675781 2.054688 0.40625 C 3.011719 -0.285156 3.957031 -1.304688 5.125 -2.9375 C 5.21875 -3.074219 5.1875 -3.253906 5.066406 -3.34375 Z M 1.933594 -5.335938 C 1.875 -5.097656 1.617188 -4.617188 0.914062 -3.898438 C 1.304688 -4.765625 1.722656 -5.1875 1.933594 -5.335938 Z M 1.933594 -5.335938 "/></g></g></g><g fill="rgb(0%, 0%, 0%)" fill-opacity="1"><g transform="translate(211.29216, 210.83818)"><g><path d="M 7.523438 -3.269531 C 7.40625 -3.371094 7.226562 -3.359375 7.121094 -3.238281 C 6.507812 -2.519531 5.679688 -2.160156 5.007812 -2.339844 C 4.453125 -2.488281 4.046875 -3.027344 3.898438 -3.835938 C 3.867188 -3.972656 3.734375 -4.0625 3.597656 -4.0625 C 3.460938 -4.0625 3.34375 -3.957031 3.328125 -3.824219 C 3.011719 -1.574219 1.230469 1.109375 0.375 1.394531 C 0.269531 1.425781 0.238281 1.410156 0.238281 1.394531 C 0.164062 1.335938 -0.34375 0.628906 1.246094 -4.09375 C 1.289062 -4.242188 1.214844 -4.40625 1.0625 -4.453125 C 0.914062 -4.511719 0.75 -4.421875 0.691406 -4.273438 C -1.050781 0.929688 -0.390625 1.589844 -0.179688 1.800781 C -0.0898438 1.875 0.0585938 1.992188 0.285156 1.992188 C 0.359375 1.992188 0.449219 1.980469 0.554688 1.933594 C 1.109375 1.753906 1.859375 0.960938 2.535156 -0.164062 C 3.042969 -1.003906 3.433594 -1.902344 3.671875 -2.742188 C 3.957031 -2.25 4.363281 -1.917969 4.855469 -1.785156 C 5.742188 -1.558594 6.789062 -1.980469 7.554688 -2.863281 C 7.660156 -2.984375 7.644531 -3.164062 7.523438 -3.269531 Z M 7.523438 -3.269531 "/></g></g></g><g fill="rgb(0%, 0%, 0%)" fill-opacity="1"><g transform="translate(218.367123, 210.83818)"><g><path d="M 5.066406 -3.34375 C 4.933594 -3.433594 4.753906 -3.402344 4.664062 -3.269531 C 3.539062 -1.695312 2.625 -0.703125 1.722656 -0.0585938 C 1.273438 0.253906 0.839844 0.316406 0.554688 0.105469 C 0.375 -0.03125 -0.179688 -0.628906 0.464844 -2.726562 C 1.917969 -3.925781 2.714844 -5.066406 2.503906 -5.667969 C 2.429688 -5.847656 2.25 -5.964844 2.054688 -5.964844 C 1.453125 -5.953125 0.539062 -4.917969 -0.0585938 -2.984375 C -0.792969 -0.601562 -0.195312 0.269531 0.226562 0.570312 C 0.433594 0.734375 0.675781 0.808594 0.945312 0.808594 C 1.289062 0.808594 1.679688 0.675781 2.054688 0.40625 C 3.011719 -0.285156 3.957031 -1.304688 5.125 -2.9375 C 5.21875 -3.074219 5.1875 -3.253906 5.066406 -3.34375 Z M 1.933594 -5.335938 C 1.875 -5.097656 1.617188 -4.617188 0.914062 -3.898438 C 1.304688 -4.765625 1.722656 -5.1875 1.933594 -5.335938 Z M 1.933594 -5.335938 "/></g></g></g><g fill="rgb(0%, 0%, 0%)" fill-opacity="1"><g transform="translate(222.729021, 210.83818)"><g><path d="M 4.40625 -14.046875 C 4.300781 -14.179688 4.152344 -14.242188 4.003906 -14.226562 C 3.148438 -14.078125 2.234375 -10.882812 1.980469 -9.910156 C 1.230469 -7.046875 0.285156 -2.984375 -0.480469 0.660156 C -0.839844 2.382812 -1.125 3.835938 -1.304688 4.886719 C -1.605469 6.65625 -1.558594 6.878906 -1.273438 6.957031 C -1.246094 6.972656 -1.214844 6.972656 -1.183594 6.972656 C -0.914062 6.972656 -0.78125 6.609375 -0.644531 6.222656 C -0.601562 6.070312 -0.675781 5.90625 -0.824219 5.863281 C -0.839844 5.847656 -0.855469 5.847656 -0.871094 5.847656 C -0.554688 3.6875 0.734375 -2.59375 2.054688 -7.855469 C 2.054688 -7.871094 2.070312 -7.886719 2.082031 -7.898438 C 4.03125 -10.988281 4.796875 -13.445312 4.40625 -14.046875 Z M 2.5625 -9.878906 C 3.132812 -11.992188 3.644531 -13.011719 3.914062 -13.433594 C 3.851562 -12.878906 3.523438 -11.679688 2.5625 -9.878906 Z M 2.5625 -9.878906 "/></g></g></g><g fill="rgb(0%, 0%, 0%)" fill-opacity="1"><g transform="translate(225.007398, 210.83818)"><g><path d="M 5.425781 -3.253906 C 5.292969 -3.359375 5.113281 -3.328125 5.023438 -3.207031 C 4.390625 -2.398438 3.359375 -1.722656 2.5625 -1.875 C 2.578125 -1.980469 2.59375 -2.082031 2.59375 -2.1875 C 2.699219 -3.882812 2.171875 -4.226562 1.859375 -4.289062 C 1.5 -4.363281 1.125 -4.09375 0.945312 -3.644531 C 0.871094 -3.671875 0.78125 -3.671875 0.703125 -3.613281 C 0.105469 -3.238281 -0.390625 -2.277344 -0.121094 -1.246094 C 0.0585938 -0.628906 0.480469 -0.238281 1.035156 -0.238281 C 1.558594 -0.238281 2.113281 -0.628906 2.398438 -1.320312 C 3.449219 -1.09375 4.707031 -1.875 5.472656 -2.847656 C 5.578125 -2.984375 5.546875 -3.164062 5.425781 -3.253906 Z M 1.050781 -0.808594 C 1.035156 -0.808594 1.035156 -0.808594 1.035156 -0.808594 C 0.660156 -0.824219 0.496094 -1.183594 0.449219 -1.394531 C 0.300781 -1.902344 0.417969 -2.609375 0.839844 -3 C 0.871094 -2.488281 1.152344 -1.933594 1.875 -1.542969 C 1.664062 -1.0625 1.304688 -0.808594 1.050781 -0.808594 Z M 2.023438 -2.21875 C 2.007812 -2.1875 2.007812 -2.160156 2.007812 -2.128906 C 1.4375 -2.503906 1.347656 -2.984375 1.453125 -3.359375 C 1.527344 -3.597656 1.679688 -3.71875 1.753906 -3.71875 C 1.828125 -3.703125 2.082031 -3.417969 2.023438 -2.21875 Z M 2.023438 -2.21875 "/></g></g></g><g fill="rgb(0%, 0%, 0%)" fill-opacity="1"><g transform="translate(229.803984, 210.83818)"><g><path d="M 3.207031 -5.5625 C 2.816406 -5.679688 1.800781 -5.605469 0.734375 -2.503906 C 1.335938 -5.890625 1.4375 -6.492188 1.425781 -6.597656 C 1.425781 -6.746094 1.289062 -6.878906 1.125 -6.867188 C 0.972656 -6.851562 0.855469 -6.730469 0.855469 -6.582031 C 0.839844 -6.371094 0.464844 -4.347656 0.0585938 -2.007812 C -0.03125 -1.5 -0.136719 -0.972656 -0.226562 -0.433594 C -0.433594 -0.359375 -0.644531 -0.285156 -0.855469 -0.226562 C -1.003906 -0.179688 -1.09375 -0.03125 -1.050781 0.136719 C -1.003906 0.285156 -0.855469 0.375 -0.703125 0.328125 C -0.585938 0.300781 -0.464844 0.253906 -0.34375 0.226562 C -0.988281 3.882812 -1.722656 8.066406 -2.070312 10.359375 C -2.082031 10.507812 -1.980469 10.660156 -1.828125 10.671875 C -1.8125 10.671875 -1.800781 10.6875 -1.785156 10.6875 C -1.648438 10.6875 -1.515625 10.582031 -1.5 10.449219 C -1.125 8.230469 -0.0898438 2.96875 0.691406 -0.226562 C 1.152344 -0.464844 1.589844 -0.734375 1.992188 -1.050781 C 2.636719 -1.574219 3.460938 -2.414062 3.746094 -3.507812 C 4.03125 -4.511719 3.792969 -5.382812 3.207031 -5.5625 Z M 3.191406 -3.65625 C 2.910156 -2.59375 1.964844 -1.648438 0.882812 -0.988281 C 1.019531 -1.5 1.140625 -1.933594 1.246094 -2.25 C 2.023438 -4.542969 2.742188 -5.007812 3 -5.007812 C 3.011719 -5.007812 3.027344 -5.007812 3.042969 -5.007812 C 3.238281 -4.945312 3.402344 -4.421875 3.191406 -3.65625 Z M 3.191406 -3.65625 "/></g></g></g><g fill="rgb(0%, 0%, 0%)" fill-opacity="1"><g transform="translate(234.330763, 210.83818)"><g><path d="M 5.066406 -3.34375 C 4.933594 -3.433594 4.753906 -3.402344 4.664062 -3.269531 C 3.539062 -1.695312 2.625 -0.703125 1.722656 -0.0585938 C 1.273438 0.253906 0.839844 0.316406 0.554688 0.105469 C 0.375 -0.03125 -0.179688 -0.628906 0.464844 -2.726562 C 1.917969 -3.925781 2.714844 -5.066406 2.503906 -5.667969 C 2.429688 -5.847656 2.25 -5.964844 2.054688 -5.964844 C 1.453125 -5.953125 0.539062 -4.917969 -0.0585938 -2.984375 C -0.792969 -0.601562 -0.195312 0.269531 0.226562 0.570312 C 0.433594 0.734375 0.675781 0.808594 0.945312 0.808594 C 1.289062 0.808594 1.679688 0.675781 2.054688 0.40625 C 3.011719 -0.285156 3.957031 -1.304688 5.125 -2.9375 C 5.21875 -3.074219 5.1875 -3.253906 5.066406 -3.34375 Z M 1.933594 -5.335938 C 1.875 -5.097656 1.617188 -4.617188 0.914062 -3.898438 C 1.304688 -4.765625 1.722656 -5.1875 1.933594 -5.335938 Z M 1.933594 -5.335938 "/></g></g></g><g fill="rgb(0%, 0%, 0%)" fill-opacity="1"><g transform="translate(238.692662, 210.83818)"><g><path d="M 6.582031 -3.386719 C 6.429688 -3.460938 6.25 -3.402344 6.191406 -3.253906 C 4.46875 0.375 2.832031 2.234375 2.472656 2.171875 C 2.445312 2.160156 1.917969 1.648438 3.613281 -3.554688 C 3.65625 -3.6875 3.761719 -4.003906 3.523438 -4.167969 C 3.296875 -4.347656 3.042969 -4.183594 2.625 -3.898438 C 2.171875 -3.613281 1.558594 -3.207031 1.078125 -3.269531 C 2.609375 -5.90625 2.457031 -6.492188 2.113281 -6.714844 C 1.574219 -7.03125 0.792969 -6.117188 0.433594 -5.589844 C -0.300781 -4.453125 -0.285156 -3.417969 0.496094 -2.894531 C 1.289062 -2.339844 2.324219 -3.011719 2.9375 -3.417969 C 2.953125 -3.433594 2.953125 -3.433594 2.96875 -3.449219 C 2.382812 -1.605469 2.007812 -0.148438 1.875 0.855469 C 1.707031 1.964844 1.828125 2.546875 2.25 2.714844 C 2.324219 2.726562 2.382812 2.742188 2.457031 2.742188 C 3.65625 2.742188 5.742188 -0.945312 6.714844 -3 C 6.777344 -3.148438 6.714844 -3.328125 6.582031 -3.386719 Z M 0.523438 -4.421875 C 0.734375 -5.230469 1.4375 -5.980469 1.753906 -6.160156 C 1.722656 -5.921875 1.558594 -5.246094 0.601562 -3.582031 C 0.496094 -3.746094 0.417969 -4.003906 0.523438 -4.421875 Z M 0.523438 -4.421875 "/></g></g></g><g fill="rgb(0%, 0%, 0%)" fill-opacity="1"><g transform="translate(244.67152, 210.83818)"><g/></g></g><g fill="rgb(0%, 0%, 0%)" fill-opacity="1"><g transform="translate(210.619849, 151.400345)"><g><path d="M 6.546875 -0.296875 C 6.335938 -0.285156 6.101562 -0.378906 5.84375 -0.578125 C 5.582031 -0.773438 5.335938 -1.054688 5.109375 -1.421875 L 3.546875 -3.78125 L 2.484375 -3.703125 L 2.578125 -1.796875 C 2.609375 -1.460938 2.648438 -1.226562 2.703125 -1.09375 C 2.765625 -0.957031 2.851562 -0.867188 2.96875 -0.828125 C 3.09375 -0.796875 3.296875 -0.789062 3.578125 -0.8125 L 3.625 -0.765625 L 3.546875 -0.234375 C 3.441406 -0.234375 3.238281 -0.222656 2.9375 -0.203125 C 2.632812 -0.179688 2.316406 -0.160156 1.984375 -0.140625 C 1.679688 -0.117188 1.414062 -0.09375 1.1875 -0.0625 C 0.957031 -0.0390625 0.804688 -0.0234375 0.734375 -0.015625 L 0.796875 -0.59375 C 1.066406 -0.644531 1.265625 -0.703125 1.390625 -0.765625 C 1.523438 -0.835938 1.613281 -0.941406 1.65625 -1.078125 C 1.695312 -1.222656 1.707031 -1.421875 1.6875 -1.671875 L 1.296875 -7.03125 C 1.273438 -7.300781 1.226562 -7.476562 1.15625 -7.5625 C 1.09375 -7.65625 0.96875 -7.695312 0.78125 -7.6875 C 0.695312 -7.675781 0.609375 -7.664062 0.515625 -7.65625 C 0.429688 -7.644531 0.375 -7.640625 0.34375 -7.640625 L 0.296875 -7.671875 L 0.359375 -8.234375 C 0.460938 -8.234375 0.65625 -8.238281 0.9375 -8.25 C 1.21875 -8.269531 1.5 -8.289062 1.78125 -8.3125 C 2.0625 -8.332031 2.359375 -8.359375 2.671875 -8.390625 C 2.992188 -8.429688 3.21875 -8.460938 3.34375 -8.484375 C 4.132812 -8.535156 4.769531 -8.398438 5.25 -8.078125 C 5.738281 -7.765625 6.007812 -7.296875 6.0625 -6.671875 C 6.09375 -6.160156 5.960938 -5.675781 5.671875 -5.21875 C 5.378906 -4.769531 4.945312 -4.390625 4.375 -4.078125 L 5.953125 -1.984375 C 6.234375 -1.585938 6.492188 -1.316406 6.734375 -1.171875 C 6.984375 -1.035156 7.28125 -0.984375 7.625 -1.015625 L 7.671875 -0.96875 L 7.625 -0.53125 Z M 3.78125 -4.375 C 3.78125 -4.351562 3.898438 -4.421875 4.140625 -4.578125 C 4.390625 -4.734375 4.601562 -4.957031 4.78125 -5.25 C 4.96875 -5.550781 5.046875 -5.925781 5.015625 -6.375 C 4.921875 -7.5 4.09375 -8 2.53125 -7.875 C 2.445312 -7.875 2.394531 -7.847656 2.375 -7.796875 C 2.351562 -7.753906 2.34375 -7.675781 2.34375 -7.5625 C 2.351562 -6.257812 2.390625 -5.207031 2.453125 -4.40625 Z M 3.78125 -4.375 "/></g></g></g><g fill="rgb(0%, 0%, 0%)" fill-opacity="1"><g transform="translate(220.7255, 150.981121)"><g><path d="M 3.09375 0.59375 C 2.582031 0.519531 2.132812 0.335938 1.75 0.046875 C 1.375 -0.242188 1.101562 -0.617188 0.9375 -1.078125 C 0.78125 -1.535156 0.738281 -2.035156 0.8125 -2.578125 C 0.894531 -3.148438 1.097656 -3.664062 1.421875 -4.125 C 1.742188 -4.59375 2.140625 -4.941406 2.609375 -5.171875 C 3.085938 -5.410156 3.570312 -5.492188 4.0625 -5.421875 C 4.675781 -5.335938 5.125 -5.113281 5.40625 -4.75 C 5.695312 -4.394531 5.800781 -3.921875 5.71875 -3.328125 C 5.6875 -3.085938 5.628906 -2.882812 5.546875 -2.71875 L 5.359375 -2.59375 L 1.859375 -3.078125 C 1.734375 -2.265625 1.804688 -1.613281 2.078125 -1.125 C 2.359375 -0.632812 2.796875 -0.347656 3.390625 -0.265625 C 3.867188 -0.191406 4.40625 -0.242188 5 -0.421875 L 5.078125 -0.390625 L 5.15625 -0.015625 C 4.8125 0.160156 4.445312 0.3125 4.0625 0.4375 C 3.675781 0.570312 3.351562 0.625 3.09375 0.59375 Z M 4.28125 -3.34375 C 4.414062 -3.34375 4.507812 -3.359375 4.5625 -3.390625 C 4.613281 -3.429688 4.644531 -3.507812 4.65625 -3.625 C 4.707031 -3.96875 4.648438 -4.238281 4.484375 -4.4375 C 4.328125 -4.644531 4.078125 -4.769531 3.734375 -4.8125 C 3.335938 -4.875 2.976562 -4.785156 2.65625 -4.546875 C 2.34375 -4.316406 2.113281 -3.984375 1.96875 -3.546875 Z M 4.28125 -3.34375 "/></g></g></g><g fill="rgb(0%, 0%, 0%)" fill-opacity="1"><g transform="translate(228.726937, 152.309072)"><g><path d="M 4.453125 1.6875 C 3.796875 1.46875 3.550781 1.019531 3.71875 0.34375 L 3.671875 0.328125 C 3.273438 0.515625 2.929688 0.648438 2.640625 0.734375 C 2.347656 0.828125 2.132812 0.851562 2 0.8125 C 1.5625 0.65625 1.242188 0.382812 1.046875 0 C 0.859375 -0.382812 0.835938 -0.796875 0.984375 -1.234375 C 1.066406 -1.460938 1.195312 -1.644531 1.375 -1.78125 C 1.550781 -1.925781 1.742188 -1.992188 1.953125 -1.984375 L 4.46875 -1.8125 L 4.65625 -2.34375 C 4.789062 -2.75 4.804688 -3.09375 4.703125 -3.375 C 4.597656 -3.664062 4.375 -3.875 4.03125 -4 C 3.800781 -4.070312 3.546875 -4.097656 3.265625 -4.078125 C 2.984375 -4.054688 2.691406 -3.988281 2.390625 -3.875 L 2.34375 -3.9375 L 2.359375 -4.515625 C 2.816406 -4.597656 3.265625 -4.660156 3.703125 -4.703125 C 4.148438 -4.742188 4.460938 -4.734375 4.640625 -4.671875 C 5.160156 -4.492188 5.519531 -4.21875 5.71875 -3.84375 C 5.925781 -3.46875 5.941406 -3.035156 5.765625 -2.546875 C 5.703125 -2.367188 5.554688 -2.015625 5.328125 -1.484375 C 4.929688 -0.628906 4.691406 -0.078125 4.609375 0.171875 C 4.546875 0.347656 4.539062 0.5 4.59375 0.625 C 4.65625 0.757812 4.757812 0.851562 4.90625 0.90625 C 5.03125 0.945312 5.171875 0.957031 5.328125 0.9375 C 5.492188 0.914062 5.625 0.882812 5.71875 0.84375 L 5.828125 1.09375 C 5.640625 1.257812 5.414062 1.398438 5.15625 1.515625 C 4.90625 1.640625 4.671875 1.695312 4.453125 1.6875 Z M 2.5 0.0625 C 2.65625 0.113281 2.851562 0.117188 3.09375 0.078125 C 3.34375 0.0351562 3.582031 -0.0351562 3.8125 -0.140625 L 4.28125 -1.375 L 2.46875 -1.421875 C 2.21875 -1.441406 2.046875 -1.316406 1.953125 -1.046875 C 1.867188 -0.816406 1.878906 -0.59375 1.984375 -0.375 C 2.085938 -0.164062 2.257812 -0.0195312 2.5 0.0625 Z M 2.5 0.0625 "/></g></g></g><g fill="rgb(0%, 0%, 0%)" fill-opacity="1"><g transform="translate(236.534009, 155.269466)"><g><path d="M 2.640625 1.703125 C 1.941406 1.296875 1.503906 0.75 1.328125 0.0625 C 1.160156 -0.625 1.289062 -1.34375 1.71875 -2.09375 C 2.019531 -2.613281 2.40625 -3.023438 2.875 -3.328125 C 3.351562 -3.640625 3.859375 -3.804688 4.390625 -3.828125 C 4.929688 -3.847656 5.445312 -3.71875 5.9375 -3.4375 C 6.144531 -3.3125 6.332031 -3.175781 6.5 -3.03125 C 6.664062 -2.894531 6.800781 -2.773438 6.90625 -2.671875 C 7.007812 -2.578125 7.070312 -2.507812 7.09375 -2.46875 L 7.09375 -2.390625 C 7.0625 -2.359375 6.988281 -2.28125 6.875 -2.15625 C 6.769531 -2.039062 6.632812 -1.878906 6.46875 -1.671875 C 6.300781 -1.460938 6.140625 -1.234375 5.984375 -0.984375 L 5.484375 -1.21875 L 5.6875 -1.5625 C 5.84375 -1.832031 5.882812 -2.097656 5.8125 -2.359375 C 5.75 -2.628906 5.582031 -2.84375 5.3125 -3 C 4.863281 -3.257812 4.421875 -3.300781 3.984375 -3.125 C 3.554688 -2.945312 3.171875 -2.554688 2.828125 -1.953125 C 2.460938 -1.316406 2.304688 -0.734375 2.359375 -0.203125 C 2.410156 0.328125 2.664062 0.726562 3.125 1 C 3.320312 1.101562 3.523438 1.179688 3.734375 1.234375 C 3.953125 1.296875 4.140625 1.332031 4.296875 1.34375 C 4.460938 1.351562 4.566406 1.359375 4.609375 1.359375 L 4.65625 1.421875 L 4.578125 1.828125 C 4.503906 1.828125 4.347656 1.835938 4.109375 1.859375 C 3.867188 1.878906 3.601562 1.878906 3.3125 1.859375 C 3.03125 1.847656 2.804688 1.796875 2.640625 1.703125 Z M 2.640625 1.703125 "/></g></g></g><g fill="rgb(0%, 0%, 0%)" fill-opacity="1"><g transform="translate(243.223797, 159.430971)"><g><path d="M 1.9375 1.8125 C 1.488281 1.4375 1.242188 1.082031 1.203125 0.75 C 1.160156 0.414062 1.320312 0.0351562 1.6875 -0.390625 L 3.703125 -2.8125 C 3.859375 -2.988281 3.925781 -3.144531 3.90625 -3.28125 C 3.894531 -3.414062 3.78125 -3.582031 3.5625 -3.78125 L 3.578125 -3.875 L 3.859375 -4.125 C 4.140625 -4.050781 4.421875 -4.003906 4.703125 -3.984375 C 4.992188 -3.972656 5.238281 -3.972656 5.4375 -3.984375 C 5.644531 -3.992188 5.773438 -4 5.828125 -4 L 5.96875 -3.75 C 5.925781 -3.726562 5.847656 -3.660156 5.734375 -3.546875 C 5.617188 -3.441406 5.46875 -3.289062 5.28125 -3.09375 L 6.734375 -1.90625 L 6.765625 -1.859375 L 6.21875 -1.40625 L 4.8125 -2.625 C 4.175781 -1.945312 3.472656 -1.148438 2.703125 -0.234375 C 2.421875 0.109375 2.28125 0.394531 2.28125 0.625 C 2.28125 0.851562 2.421875 1.085938 2.703125 1.328125 C 2.804688 1.410156 2.914062 1.476562 3.03125 1.53125 C 3.144531 1.59375 3.25 1.632812 3.34375 1.65625 C 3.4375 1.675781 3.5 1.691406 3.53125 1.703125 L 3.40625 2.046875 C 3.34375 2.046875 3.207031 2.039062 3 2.03125 C 2.800781 2.019531 2.59375 1.992188 2.375 1.953125 C 2.15625 1.921875 2.007812 1.875 1.9375 1.8125 Z M 1.9375 1.8125 "/></g></g></g><g fill="rgb(0%, 0%, 0%)" fill-opacity="1"><g transform="translate(248.254467, 163.860562)"><g><path d="M 2.65625 -1.21875 L 3.203125 -1.578125 L 4.859375 -0.046875 C 5.035156 0.128906 5.175781 0.257812 5.28125 0.34375 C 5.382812 0.4375 5.453125 0.488281 5.484375 0.5 L 5.46875 0.65625 L 4.875 1.046875 L 2.640625 -1.0625 Z M 2.65625 -1.21875 "/></g></g></g><g fill="rgb(0%, 0%, 0%)" fill-opacity="1"><g transform="translate(252.914737, 169.312968)"><g><path d="M 2.96875 6.6875 C 3.644531 5.488281 4.273438 4.332031 4.859375 3.21875 C 5.441406 2.101562 5.914062 1.195312 6.28125 0.5 C 6.644531 -0.195312 6.875 -0.644531 6.96875 -0.84375 L 6.9375 -0.90625 L 2.078125 1.625 C 1.910156 1.707031 1.804688 1.789062 1.765625 1.875 C 1.734375 1.96875 1.75 2.078125 1.8125 2.203125 L 2.140625 2.78125 L 2.109375 2.828125 L 1.53125 2.984375 C 1.5 2.898438 1.421875 2.726562 1.296875 2.46875 C 1.171875 2.207031 1.054688 1.976562 0.953125 1.78125 C 0.847656 1.582031 0.722656 1.378906 0.578125 1.171875 C 0.429688 0.972656 0.332031 0.835938 0.28125 0.765625 L 0.84375 0.546875 C 1 0.765625 1.160156 0.898438 1.328125 0.953125 C 1.492188 1.015625 1.691406 0.984375 1.921875 0.859375 L 6.9375 -1.609375 C 7.164062 -1.734375 7.289062 -1.890625 7.3125 -2.078125 C 7.34375 -2.265625 7.273438 -2.5625 7.109375 -2.96875 L 7.15625 -3.03125 L 7.625 -3.15625 C 7.644531 -3.09375 7.707031 -2.941406 7.8125 -2.703125 C 7.925781 -2.472656 8.019531 -2.289062 8.09375 -2.15625 C 8.175781 -2 8.257812 -1.847656 8.34375 -1.703125 C 8.4375 -1.554688 8.5 -1.46875 8.53125 -1.4375 C 7.957031 -0.414062 7.410156 0.59375 6.890625 1.59375 C 6.367188 2.601562 5.9375 3.4375 5.59375 4.09375 C 5.25 4.757812 5.035156 5.175781 4.953125 5.34375 L 4.984375 5.40625 L 9.546875 2.984375 C 9.878906 2.804688 9.976562 2.59375 9.84375 2.34375 L 9.609375 1.90625 L 9.640625 1.890625 L 10.1875 1.703125 C 10.226562 1.785156 10.300781 1.929688 10.40625 2.140625 C 10.507812 2.359375 10.617188 2.582031 10.734375 2.8125 C 10.835938 3 10.960938 3.203125 11.109375 3.421875 C 11.253906 3.648438 11.351562 3.800781 11.40625 3.875 L 10.859375 4.09375 C 10.679688 3.851562 10.503906 3.695312 10.328125 3.625 C 10.160156 3.5625 9.96875 3.585938 9.75 3.703125 L 3.3125 6.921875 Z M 2.96875 6.6875 "/></g></g></g><g fill="rgb(0%, 0%, 0%)" fill-opacity="1"><g transform="translate(257.887169, 179.604436)"><g><path d="M 1.0625 4.65625 C 0.882812 3.976562 1.125 3.519531 1.78125 3.28125 L 1.765625 3.234375 C 1.398438 3.003906 1.09375 2.789062 0.84375 2.59375 C 0.601562 2.40625 0.46875 2.242188 0.4375 2.109375 C 0.320312 1.660156 0.367188 1.25 0.578125 0.875 C 0.796875 0.5 1.128906 0.253906 1.578125 0.140625 C 1.816406 0.078125 2.039062 0.078125 2.25 0.140625 C 2.457031 0.210938 2.625 0.335938 2.75 0.515625 L 3.984375 2.703125 L 4.53125 2.5625 C 4.945312 2.457031 5.242188 2.28125 5.421875 2.03125 C 5.609375 1.789062 5.65625 1.492188 5.5625 1.140625 C 5.5 0.898438 5.378906 0.664062 5.203125 0.4375 C 5.035156 0.21875 4.820312 0.015625 4.5625 -0.171875 L 4.578125 -0.25 L 5.0625 -0.546875 C 5.394531 -0.210938 5.703125 0.125 5.984375 0.46875 C 6.265625 0.8125 6.429688 1.070312 6.484375 1.25 C 6.617188 1.78125 6.582031 2.234375 6.375 2.609375 C 6.164062 2.992188 5.8125 3.25 5.3125 3.375 C 5.132812 3.425781 4.757812 3.5 4.1875 3.59375 C 3.257812 3.75 2.671875 3.859375 2.421875 3.921875 C 2.242188 3.972656 2.113281 4.054688 2.03125 4.171875 C 1.945312 4.285156 1.925781 4.421875 1.96875 4.578125 C 2 4.703125 2.066406 4.820312 2.171875 4.9375 C 2.285156 5.0625 2.394531 5.15625 2.5 5.21875 L 2.34375 5.46875 C 2.101562 5.394531 1.859375 5.285156 1.609375 5.140625 C 1.367188 4.992188 1.1875 4.832031 1.0625 4.65625 Z M 1.34375 2.109375 C 1.382812 2.265625 1.488281 2.429688 1.65625 2.609375 C 1.820312 2.796875 2.015625 2.957031 2.234375 3.09375 L 3.515625 2.796875 L 2.5625 1.265625 C 2.425781 1.046875 2.222656 0.972656 1.953125 1.046875 C 1.703125 1.109375 1.519531 1.238281 1.40625 1.4375 C 1.300781 1.644531 1.28125 1.867188 1.34375 2.109375 Z M 1.34375 2.109375 "/></g></g></g><g fill="rgb(0%, 0%, 0%)" fill-opacity="1"><g transform="translate(259.736745, 187.791187)"><g><path d="M 0.046875 2.640625 C 0.00390625 2.066406 0.0859375 1.648438 0.296875 1.390625 C 0.515625 1.128906 0.90625 0.976562 1.46875 0.9375 L 4.609375 0.6875 C 4.835938 0.664062 4.992188 0.601562 5.078125 0.5 C 5.171875 0.394531 5.210938 0.195312 5.203125 -0.09375 L 5.265625 -0.15625 L 5.65625 -0.109375 C 5.800781 0.128906 5.96875 0.359375 6.15625 0.578125 C 6.34375 0.796875 6.507812 0.972656 6.65625 1.109375 C 6.800781 1.253906 6.898438 1.347656 6.953125 1.390625 L 6.859375 1.640625 C 6.816406 1.628906 6.710938 1.625 6.546875 1.625 C 6.390625 1.625 6.171875 1.625 5.890625 1.625 L 6.078125 3.484375 L 6.046875 3.53125 L 5.359375 3.453125 L 5.25 1.609375 C 4.3125 1.628906 3.25 1.6875 2.0625 1.78125 C 1.625 1.820312 1.320312 1.921875 1.15625 2.078125 C 0.988281 2.234375 0.921875 2.492188 0.953125 2.859375 C 0.960938 2.984375 0.988281 3.109375 1.03125 3.234375 C 1.070312 3.359375 1.113281 3.460938 1.15625 3.546875 C 1.207031 3.628906 1.238281 3.679688 1.25 3.703125 L 0.921875 3.859375 C 0.867188 3.816406 0.773438 3.71875 0.640625 3.5625 C 0.515625 3.40625 0.382812 3.234375 0.25 3.046875 C 0.125 2.867188 0.0546875 2.734375 0.046875 2.640625 Z M 0.046875 2.640625 "/></g></g></g><g fill="rgb(0%, 0%, 0%)" fill-opacity="1"><g transform="translate(260.05307, 194.533688)"><g><path d="M 0.328125 0.640625 C 0.367188 0.898438 0.453125 1.085938 0.578125 1.203125 C 0.710938 1.328125 0.890625 1.398438 1.109375 1.421875 L 4.34375 1.65625 C 4.800781 1.6875 5.039062 1.546875 5.0625 1.234375 C 5.0625 1.171875 5.054688 1.101562 5.046875 1.03125 C 5.046875 0.96875 5.046875 0.925781 5.046875 0.90625 L 5.5 1 C 5.53125 1.351562 5.570312 1.722656 5.625 2.109375 C 5.6875 2.503906 5.726562 2.757812 5.75 2.875 L 5.578125 2.921875 C 5.410156 2.828125 4.875 2.71875 3.96875 2.59375 C 3.0625 2.46875 2.101562 2.367188 1.09375 2.296875 C 0.851562 2.273438 0.671875 2.289062 0.546875 2.34375 C 0.421875 2.40625 0.351562 2.519531 0.34375 2.6875 C 0.332031 2.78125 0.328125 2.867188 0.328125 2.953125 C 0.335938 3.035156 0.335938 3.09375 0.328125 3.125 L 0.28125 3.140625 L -0.25 3 C -0.25 2.925781 -0.234375 2.785156 -0.203125 2.578125 C -0.179688 2.367188 -0.160156 2.132812 -0.140625 1.875 C -0.117188 1.65625 -0.117188 1.398438 -0.140625 1.109375 C -0.160156 0.816406 -0.179688 0.628906 -0.203125 0.546875 Z M 7.3125 2.234375 C 7.320312 2.035156 7.394531 1.882812 7.53125 1.78125 C 7.664062 1.6875 7.820312 1.644531 8 1.65625 C 8.207031 1.664062 8.378906 1.75 8.515625 1.90625 C 8.648438 2.070312 8.707031 2.257812 8.6875 2.46875 C 8.675781 2.664062 8.601562 2.8125 8.46875 2.90625 C 8.34375 3.007812 8.191406 3.054688 8.015625 3.046875 C 7.804688 3.023438 7.632812 2.9375 7.5 2.78125 C 7.363281 2.625 7.300781 2.441406 7.3125 2.234375 Z M 7.3125 2.234375 "/></g></g></g><g fill="rgb(0%, 0%, 0%)" fill-opacity="1"><g transform="translate(259.484724, 200.591709)"><g><path d="M -0.78125 2.21875 C -0.351562 2.1875 0.488281 2.128906 1.75 2.046875 C 3.019531 1.960938 3.890625 1.90625 4.359375 1.875 C 4.796875 1.820312 5.078125 1.585938 5.203125 1.171875 L 5.25 1.15625 L 5.640625 1.34375 L 5.359375 2.375 C 5.285156 2.6875 5.222656 2.992188 5.171875 3.296875 C 5.128906 3.597656 5.101562 3.789062 5.09375 3.875 L 5.015625 3.890625 L 4.65625 3.71875 C 4.71875 3.4375 4.738281 3.238281 4.71875 3.125 C 4.695312 3.007812 4.628906 2.9375 4.515625 2.90625 C 4.359375 2.863281 3.726562 2.863281 2.625 2.90625 C 1.519531 2.945312 0.773438 2.984375 0.390625 3.015625 L 0.375 3.0625 L 1.875 4.140625 C 2.363281 4.503906 2.785156 4.804688 3.140625 5.046875 C 3.492188 5.296875 3.722656 5.4375 3.828125 5.46875 C 3.929688 5.5 4.015625 5.476562 4.078125 5.40625 C 4.148438 5.332031 4.207031 5.203125 4.25 5.015625 L 4.359375 4.546875 L 4.453125 4.5 L 4.8125 4.65625 L 4.46875 5.984375 L 4.234375 7 L 3.8125 6.796875 C 3.820312 6.617188 3.78125 6.460938 3.6875 6.328125 C 3.59375 6.203125 3.382812 6.019531 3.0625 5.78125 L -0.734375 2.953125 Z M -0.78125 2.21875 "/></g></g></g><g fill="rgb(0%, 0%, 0%)" fill-opacity="1"><g transform="translate(257.333704, 208.379963)"><g><path d="M -1.453125 2.78125 C -1.234375 2.3125 -0.929688 1.9375 -0.546875 1.65625 C -0.160156 1.382812 0.269531 1.238281 0.75 1.21875 C 1.238281 1.195312 1.734375 1.300781 2.234375 1.53125 C 2.753906 1.769531 3.1875 2.113281 3.53125 2.5625 C 3.882812 3.019531 4.101562 3.507812 4.1875 4.03125 C 4.28125 4.550781 4.222656 5.035156 4.015625 5.484375 C 3.753906 6.046875 3.40625 6.40625 2.96875 6.5625 C 2.539062 6.726562 2.054688 6.6875 1.515625 6.4375 C 1.296875 6.332031 1.117188 6.222656 0.984375 6.109375 L 0.90625 5.890625 L 2.390625 2.6875 C 1.648438 2.320312 1.003906 2.195312 0.453125 2.3125 C -0.0859375 2.4375 -0.484375 2.769531 -0.734375 3.3125 C -0.941406 3.75 -1.046875 4.28125 -1.046875 4.90625 L -1.09375 4.96875 L -1.484375 4.9375 C -1.554688 4.5625 -1.597656 4.164062 -1.609375 3.75 C -1.617188 3.34375 -1.566406 3.019531 -1.453125 2.78125 Z M 1.9375 5.078125 C 1.90625 5.191406 1.898438 5.28125 1.921875 5.34375 C 1.941406 5.40625 2.007812 5.460938 2.125 5.515625 C 2.4375 5.660156 2.707031 5.6875 2.9375 5.59375 C 3.175781 5.5 3.367188 5.296875 3.515625 4.984375 C 3.679688 4.617188 3.703125 4.25 3.578125 3.875 C 3.453125 3.507812 3.203125 3.191406 2.828125 2.921875 Z M 1.9375 5.078125 "/></g></g></g><g clip-path="url(#id15)"><path fill="rgb(23.139954%, 22.749329%, 21.569824%)" d="M 273.253906 223.035156 L 270.132812 229.511719 L 276.632812 232.617188 L 269.484375 231.671875 L 268.519531 238.777344 L 267.226562 231.722656 L 260.132812 233.007812 L 266.476562 229.585938 L 263.050781 223.289062 L 268.265625 228.222656 Z M 273.253906 223.035156 " fill-opacity="1" fill-rule="nonzero"/></g><g fill="rgb(100%, 100%, 100%)" fill-opacity="1"><g transform="translate(142.833268, 233.804017)"><g><path d="M 5.078125 0.359375 C 4.566406 -0.441406 4.066406 -1.207031 3.578125 -1.9375 C 3.085938 -2.664062 2.679688 -3.253906 2.359375 -3.703125 C 2.046875 -4.148438 1.847656 -4.4375 1.765625 -4.5625 L 1.71875 -4.5625 L 1.671875 -0.75 C 1.671875 -0.613281 1.691406 -0.519531 1.734375 -0.46875 C 1.773438 -0.414062 1.847656 -0.390625 1.953125 -0.390625 L 2.40625 -0.40625 L 2.421875 -0.359375 L 2.34375 0.03125 C 2.28125 0.03125 2.144531 0.0234375 1.9375 0.015625 C 1.738281 0.00390625 1.5625 0 1.40625 0 C 1.25 0 1.082031 0.0078125 0.90625 0.03125 C 0.738281 0.0507812 0.628906 0.0664062 0.578125 0.078125 L 0.609375 -0.34375 C 0.796875 -0.363281 0.929688 -0.414062 1.015625 -0.5 C 1.109375 -0.59375 1.160156 -0.726562 1.171875 -0.90625 L 1.28125 -4.796875 C 1.28125 -4.984375 1.222656 -5.113281 1.109375 -5.1875 C 1.003906 -5.269531 0.804688 -5.328125 0.515625 -5.359375 L 0.484375 -5.390625 L 0.546875 -5.734375 C 0.609375 -5.722656 0.726562 -5.710938 0.90625 -5.703125 C 1.082031 -5.691406 1.222656 -5.6875 1.328125 -5.6875 C 1.441406 -5.6875 1.554688 -5.6875 1.671875 -5.6875 C 1.796875 -5.695312 1.878906 -5.707031 1.921875 -5.71875 C 2.359375 -5.03125 2.796875 -4.359375 3.234375 -3.703125 C 3.679688 -3.054688 4.050781 -2.519531 4.34375 -2.09375 C 4.644531 -1.675781 4.835938 -1.410156 4.921875 -1.296875 L 4.953125 -1.296875 L 4.953125 -4.90625 C 4.953125 -5.164062 4.859375 -5.296875 4.671875 -5.296875 L 4.328125 -5.28125 L 4.3125 -5.3125 L 4.390625 -5.71875 C 4.453125 -5.707031 4.566406 -5.695312 4.734375 -5.6875 C 4.898438 -5.6875 5.066406 -5.6875 5.234375 -5.6875 C 5.390625 -5.6875 5.5625 -5.695312 5.75 -5.71875 C 5.9375 -5.738281 6.0625 -5.75 6.125 -5.75 L 6.078125 -5.34375 C 5.867188 -5.3125 5.71875 -5.253906 5.625 -5.171875 C 5.53125 -5.085938 5.476562 -4.957031 5.46875 -4.78125 L 5.34375 0.234375 Z M 5.078125 0.359375 "/></g></g></g><g fill="rgb(100%, 100%, 100%)" fill-opacity="1"><g transform="translate(149.249961, 233.804017)"><g><path d="M 2.046875 0.109375 C 1.710938 0.109375 1.414062 0.0234375 1.15625 -0.140625 C 0.894531 -0.304688 0.691406 -0.539062 0.546875 -0.84375 C 0.398438 -1.144531 0.328125 -1.488281 0.328125 -1.875 C 0.328125 -2.289062 0.414062 -2.671875 0.59375 -3.015625 C 0.769531 -3.367188 1.015625 -3.644531 1.328125 -3.84375 C 1.648438 -4.039062 2.003906 -4.140625 2.390625 -4.140625 C 2.722656 -4.140625 3.019531 -4.054688 3.28125 -3.890625 C 3.550781 -3.722656 3.757812 -3.488281 3.90625 -3.1875 C 4.050781 -2.882812 4.125 -2.539062 4.125 -2.15625 C 4.125 -1.738281 4.03125 -1.351562 3.84375 -1 C 3.664062 -0.65625 3.414062 -0.382812 3.09375 -0.1875 C 2.78125 0.0078125 2.429688 0.109375 2.046875 0.109375 Z M 2.296875 -0.328125 C 2.628906 -0.328125 2.894531 -0.460938 3.09375 -0.734375 C 3.289062 -1.003906 3.390625 -1.375 3.390625 -1.84375 C 3.390625 -2.1875 3.332031 -2.492188 3.21875 -2.765625 C 3.113281 -3.046875 2.960938 -3.265625 2.765625 -3.421875 C 2.578125 -3.578125 2.363281 -3.65625 2.125 -3.65625 C 1.789062 -3.65625 1.523438 -3.519531 1.328125 -3.25 C 1.128906 -2.976562 1.03125 -2.601562 1.03125 -2.125 C 1.03125 -1.78125 1.082031 -1.46875 1.1875 -1.1875 C 1.300781 -0.914062 1.453125 -0.703125 1.640625 -0.546875 C 1.828125 -0.398438 2.046875 -0.328125 2.296875 -0.328125 Z M 2.296875 -0.328125 "/></g></g></g><g fill="rgb(100%, 100%, 100%)" fill-opacity="1"><g transform="translate(153.694344, 233.804017)"><g><path d="M 4.015625 0.109375 C 3.546875 0.109375 3.28125 -0.101562 3.21875 -0.53125 L 3.15625 -0.546875 C 2.539062 -0.128906 2.171875 0.078125 2.046875 0.078125 C 1.703125 0.078125 1.398438 0 1.140625 -0.15625 C 0.878906 -0.3125 0.675781 -0.53125 0.53125 -0.8125 C 0.394531 -1.101562 0.328125 -1.429688 0.328125 -1.796875 C 0.328125 -2.222656 0.425781 -2.613281 0.625 -2.96875 C 0.820312 -3.320312 1.085938 -3.601562 1.421875 -3.8125 C 1.765625 -4.03125 2.140625 -4.140625 2.546875 -4.140625 C 2.734375 -4.140625 2.9375 -4.128906 3.15625 -4.109375 L 3.15625 -5.578125 C 3.15625 -5.898438 3.046875 -6.0625 2.828125 -6.0625 C 2.785156 -6.0625 2.738281 -6.054688 2.6875 -6.046875 C 2.644531 -6.046875 2.617188 -6.039062 2.609375 -6.03125 L 2.640625 -6.359375 C 2.898438 -6.398438 3.164062 -6.445312 3.4375 -6.5 C 3.707031 -6.5625 3.882812 -6.601562 3.96875 -6.625 L 4.015625 -6.5 C 3.953125 -6.40625 3.894531 -5.78125 3.84375 -4.625 C 3.789062 -3.46875 3.765625 -2.238281 3.765625 -0.9375 C 3.765625 -0.800781 3.796875 -0.695312 3.859375 -0.625 C 3.929688 -0.5625 4.019531 -0.53125 4.125 -0.53125 C 4.207031 -0.53125 4.289062 -0.546875 4.375 -0.578125 C 4.457031 -0.609375 4.519531 -0.640625 4.5625 -0.671875 C 4.613281 -0.710938 4.648438 -0.738281 4.671875 -0.75 L 4.796875 -0.609375 C 4.773438 -0.578125 4.726562 -0.507812 4.65625 -0.40625 C 4.582031 -0.3125 4.488281 -0.210938 4.375 -0.109375 C 4.257812 -0.00390625 4.140625 0.0664062 4.015625 0.109375 Z M 2.1875 -0.5 C 2.3125 -0.5 2.445312 -0.535156 2.59375 -0.609375 C 2.738281 -0.679688 2.859375 -0.753906 2.953125 -0.828125 C 3.054688 -0.898438 3.125 -0.945312 3.15625 -0.96875 L 3.15625 -3.421875 C 3.132812 -3.429688 3.085938 -3.453125 3.015625 -3.484375 C 2.953125 -3.515625 2.851562 -3.546875 2.71875 -3.578125 C 2.59375 -3.609375 2.453125 -3.625 2.296875 -3.625 C 1.890625 -3.625 1.570312 -3.488281 1.34375 -3.21875 C 1.125 -2.945312 1.015625 -2.578125 1.015625 -2.109375 C 1.015625 -1.804688 1.066406 -1.53125 1.171875 -1.28125 C 1.273438 -1.039062 1.414062 -0.847656 1.59375 -0.703125 C 1.769531 -0.566406 1.96875 -0.5 2.1875 -0.5 Z M 2.1875 -0.5 "/></g></g></g><g fill="rgb(100%, 100%, 100%)" fill-opacity="1"><g transform="translate(158.486781, 233.804017)"><g><path d="M 2.1875 0.109375 C 1.820312 0.109375 1.492188 0.0234375 1.203125 -0.140625 C 0.921875 -0.304688 0.703125 -0.535156 0.546875 -0.828125 C 0.398438 -1.128906 0.328125 -1.472656 0.328125 -1.859375 C 0.328125 -2.265625 0.414062 -2.640625 0.59375 -2.984375 C 0.769531 -3.335938 1.007812 -3.617188 1.3125 -3.828125 C 1.625 -4.035156 1.953125 -4.140625 2.296875 -4.140625 C 2.722656 -4.140625 3.050781 -4.03125 3.28125 -3.8125 C 3.507812 -3.59375 3.625 -3.269531 3.625 -2.84375 C 3.625 -2.675781 3.601562 -2.53125 3.5625 -2.40625 L 3.453125 -2.296875 L 0.984375 -2.296875 C 0.984375 -1.722656 1.097656 -1.28125 1.328125 -0.96875 C 1.566406 -0.65625 1.894531 -0.5 2.3125 -0.5 C 2.644531 -0.5 3.007812 -0.59375 3.40625 -0.78125 L 3.46875 -0.765625 L 3.5625 -0.5 C 3.34375 -0.34375 3.101562 -0.203125 2.84375 -0.078125 C 2.59375 0.046875 2.375 0.109375 2.1875 0.109375 Z M 2.640625 -2.71875 C 2.734375 -2.726562 2.789062 -2.742188 2.8125 -2.765625 C 2.84375 -2.796875 2.859375 -2.859375 2.859375 -2.953125 C 2.859375 -3.191406 2.796875 -3.375 2.671875 -3.5 C 2.546875 -3.625 2.363281 -3.6875 2.125 -3.6875 C 1.84375 -3.6875 1.601562 -3.585938 1.40625 -3.390625 C 1.207031 -3.203125 1.082031 -2.945312 1.03125 -2.625 Z M 2.640625 -2.71875 "/></g></g></g><g fill="rgb(100%, 100%, 100%)" fill-opacity="1"><g transform="translate(162.48494, 233.804017)"><g><path d="M 0.5625 1.265625 L 0.5625 1.171875 C 0.769531 1.035156 0.9375 0.867188 1.0625 0.671875 C 1.195312 0.472656 1.265625 0.28125 1.265625 0.09375 C 1.265625 -0.0195312 1.238281 -0.128906 1.1875 -0.234375 C 1.132812 -0.347656 1.066406 -0.445312 0.984375 -0.53125 L 1 -0.65625 C 1.195312 -0.8125 1.367188 -0.890625 1.515625 -0.890625 C 1.648438 -0.890625 1.757812 -0.828125 1.84375 -0.703125 C 1.925781 -0.578125 1.96875 -0.40625 1.96875 -0.1875 C 1.96875 0.125 1.84375 0.414062 1.59375 0.6875 C 1.34375 0.96875 1.050781 1.207031 0.71875 1.40625 Z M 0.5625 1.265625 "/></g></g></g><g fill="rgb(100%, 100%, 100%)" fill-opacity="1"><g transform="translate(165.108736, 233.804017)"><g/></g></g><g fill="rgb(100%, 100%, 100%)" fill-opacity="1"><g transform="translate(166.875783, 233.804017)"><g><path d="M 4.5625 0.140625 C 4.414062 0.140625 4.257812 0.0664062 4.09375 -0.078125 C 3.925781 -0.234375 3.769531 -0.441406 3.625 -0.703125 L 2.671875 -2.4375 L 1.921875 -2.4375 L 1.90625 -1.109375 C 1.90625 -0.878906 1.914062 -0.710938 1.9375 -0.609375 C 1.96875 -0.515625 2.023438 -0.453125 2.109375 -0.421875 C 2.191406 -0.390625 2.335938 -0.375 2.546875 -0.375 L 2.5625 -0.34375 L 2.484375 0.03125 C 2.410156 0.03125 2.265625 0.0234375 2.046875 0.015625 C 1.835938 0.015625 1.617188 0.015625 1.390625 0.015625 C 1.179688 0.015625 0.992188 0.015625 0.828125 0.015625 C 0.671875 0.0234375 0.566406 0.03125 0.515625 0.03125 L 0.59375 -0.359375 C 0.78125 -0.390625 0.921875 -0.425781 1.015625 -0.46875 C 1.109375 -0.507812 1.171875 -0.570312 1.203125 -0.65625 C 1.242188 -0.75 1.265625 -0.890625 1.265625 -1.078125 L 1.28125 -4.8125 C 1.28125 -5.007812 1.253906 -5.140625 1.203125 -5.203125 C 1.160156 -5.265625 1.078125 -5.296875 0.953125 -5.296875 C 0.890625 -5.296875 0.828125 -5.289062 0.765625 -5.28125 C 0.703125 -5.28125 0.660156 -5.28125 0.640625 -5.28125 L 0.625 -5.3125 L 0.6875 -5.703125 C 0.757812 -5.703125 0.894531 -5.695312 1.09375 -5.6875 C 1.289062 -5.6875 1.484375 -5.6875 1.671875 -5.6875 C 1.878906 -5.6875 2.09375 -5.6875 2.3125 -5.6875 C 2.539062 -5.695312 2.695312 -5.707031 2.78125 -5.71875 C 3.332031 -5.71875 3.765625 -5.59375 4.078125 -5.34375 C 4.398438 -5.09375 4.5625 -4.75 4.5625 -4.3125 C 4.5625 -3.957031 4.445312 -3.628906 4.21875 -3.328125 C 3.988281 -3.035156 3.664062 -2.796875 3.25 -2.609375 L 4.234375 -1.046875 C 4.410156 -0.765625 4.578125 -0.566406 4.734375 -0.453125 C 4.898438 -0.347656 5.101562 -0.296875 5.34375 -0.296875 L 5.375 -0.265625 L 5.328125 0.046875 Z M 2.859375 -2.84375 C 2.859375 -2.820312 2.945312 -2.859375 3.125 -2.953125 C 3.3125 -3.054688 3.472656 -3.203125 3.609375 -3.390625 C 3.753906 -3.585938 3.828125 -3.84375 3.828125 -4.15625 C 3.828125 -4.9375 3.28125 -5.328125 2.1875 -5.328125 C 2.132812 -5.328125 2.097656 -5.3125 2.078125 -5.28125 C 2.054688 -5.257812 2.039062 -5.207031 2.03125 -5.125 C 1.976562 -4.21875 1.945312 -3.488281 1.9375 -2.9375 Z M 2.859375 -2.84375 "/></g></g></g><g fill="rgb(100%, 100%, 100%)" fill-opacity="1"><g transform="translate(172.328626, 233.804017)"><g><path d="M 2.1875 0.109375 C 1.820312 0.109375 1.492188 0.0234375 1.203125 -0.140625 C 0.921875 -0.304688 0.703125 -0.535156 0.546875 -0.828125 C 0.398438 -1.128906 0.328125 -1.472656 0.328125 -1.859375 C 0.328125 -2.265625 0.414062 -2.640625 0.59375 -2.984375 C 0.769531 -3.335938 1.007812 -3.617188 1.3125 -3.828125 C 1.625 -4.035156 1.953125 -4.140625 2.296875 -4.140625 C 2.722656 -4.140625 3.050781 -4.03125 3.28125 -3.8125 C 3.507812 -3.59375 3.625 -3.269531 3.625 -2.84375 C 3.625 -2.675781 3.601562 -2.53125 3.5625 -2.40625 L 3.453125 -2.296875 L 0.984375 -2.296875 C 0.984375 -1.722656 1.097656 -1.28125 1.328125 -0.96875 C 1.566406 -0.65625 1.894531 -0.5 2.3125 -0.5 C 2.644531 -0.5 3.007812 -0.59375 3.40625 -0.78125 L 3.46875 -0.765625 L 3.5625 -0.5 C 3.34375 -0.34375 3.101562 -0.203125 2.84375 -0.078125 C 2.59375 0.046875 2.375 0.109375 2.1875 0.109375 Z M 2.640625 -2.71875 C 2.734375 -2.726562 2.789062 -2.742188 2.8125 -2.765625 C 2.84375 -2.796875 2.859375 -2.859375 2.859375 -2.953125 C 2.859375 -3.191406 2.796875 -3.375 2.671875 -3.5 C 2.546875 -3.625 2.363281 -3.6875 2.125 -3.6875 C 1.84375 -3.6875 1.601562 -3.585938 1.40625 -3.390625 C 1.207031 -3.203125 1.082031 -2.945312 1.03125 -2.625 Z M 2.640625 -2.71875 "/></g></g></g><g fill="rgb(100%, 100%, 100%)" fill-opacity="1"><g transform="translate(176.326785, 233.804017)"><g><path d="M 3.3125 0.109375 C 2.832031 0.109375 2.570312 -0.128906 2.53125 -0.609375 L 2.484375 -0.625 C 2.273438 -0.40625 2.082031 -0.234375 1.90625 -0.109375 C 1.726562 0.015625 1.59375 0.078125 1.5 0.078125 C 1.175781 0.078125 0.90625 -0.0234375 0.6875 -0.234375 C 0.46875 -0.441406 0.359375 -0.707031 0.359375 -1.03125 C 0.359375 -1.207031 0.398438 -1.359375 0.484375 -1.484375 C 0.578125 -1.617188 0.695312 -1.707031 0.84375 -1.75 L 2.53125 -2.21875 L 2.546875 -2.609375 C 2.546875 -2.898438 2.472656 -3.128906 2.328125 -3.296875 C 2.191406 -3.460938 2 -3.546875 1.75 -3.546875 C 1.582031 -3.546875 1.40625 -3.503906 1.21875 -3.421875 C 1.039062 -3.347656 0.863281 -3.242188 0.6875 -3.109375 L 0.640625 -3.125 L 0.53125 -3.515625 C 0.8125 -3.671875 1.09375 -3.8125 1.375 -3.9375 C 1.65625 -4.070312 1.859375 -4.140625 1.984375 -4.140625 C 2.367188 -4.140625 2.671875 -4.035156 2.890625 -3.828125 C 3.117188 -3.628906 3.234375 -3.347656 3.234375 -2.984375 C 3.234375 -2.859375 3.210938 -2.59375 3.171875 -2.1875 C 3.097656 -1.53125 3.0625 -1.113281 3.0625 -0.9375 C 3.0625 -0.800781 3.09375 -0.695312 3.15625 -0.625 C 3.226562 -0.5625 3.320312 -0.53125 3.4375 -0.53125 C 3.53125 -0.53125 3.625 -0.550781 3.71875 -0.59375 C 3.820312 -0.632812 3.90625 -0.6875 3.96875 -0.75 L 4.09375 -0.609375 C 4.007812 -0.460938 3.894531 -0.316406 3.75 -0.171875 C 3.613281 -0.0351562 3.46875 0.0546875 3.3125 0.109375 Z M 1.65625 -0.53125 C 1.769531 -0.53125 1.898438 -0.570312 2.046875 -0.65625 C 2.203125 -0.738281 2.34375 -0.84375 2.46875 -0.96875 L 2.515625 -1.875 L 1.296875 -1.5 C 1.128906 -1.445312 1.046875 -1.328125 1.046875 -1.140625 C 1.046875 -0.960938 1.101562 -0.816406 1.21875 -0.703125 C 1.332031 -0.585938 1.476562 -0.53125 1.65625 -0.53125 Z M 1.65625 -0.53125 "/></g></g></g><g fill="rgb(100%, 100%, 100%)" fill-opacity="1"><g transform="translate(180.485585, 233.804017)"><g><path d="M 2.1875 0.109375 C 1.625 0.109375 1.171875 -0.0664062 0.828125 -0.421875 C 0.492188 -0.785156 0.328125 -1.265625 0.328125 -1.859375 C 0.328125 -2.285156 0.414062 -2.671875 0.59375 -3.015625 C 0.769531 -3.367188 1.015625 -3.644531 1.328125 -3.84375 C 1.640625 -4.039062 1.988281 -4.140625 2.375 -4.140625 C 2.539062 -4.140625 2.703125 -4.125 2.859375 -4.09375 C 3.015625 -4.070312 3.140625 -4.046875 3.234375 -4.015625 C 3.335938 -3.992188 3.398438 -3.976562 3.421875 -3.96875 L 3.453125 -3.90625 C 3.441406 -3.875 3.421875 -3.800781 3.390625 -3.6875 C 3.367188 -3.582031 3.34375 -3.4375 3.3125 -3.25 C 3.289062 -3.070312 3.273438 -2.878906 3.265625 -2.671875 L 2.90625 -2.65625 L 2.90625 -2.921875 C 2.90625 -3.140625 2.835938 -3.316406 2.703125 -3.453125 C 2.566406 -3.585938 2.390625 -3.65625 2.171875 -3.65625 C 1.804688 -3.65625 1.523438 -3.523438 1.328125 -3.265625 C 1.128906 -3.003906 1.03125 -2.640625 1.03125 -2.171875 C 1.03125 -1.648438 1.140625 -1.238281 1.359375 -0.9375 C 1.578125 -0.632812 1.875 -0.484375 2.25 -0.484375 C 2.394531 -0.484375 2.539062 -0.503906 2.6875 -0.546875 C 2.84375 -0.597656 2.96875 -0.644531 3.0625 -0.6875 C 3.164062 -0.738281 3.226562 -0.769531 3.25 -0.78125 L 3.3125 -0.765625 L 3.40625 -0.484375 C 3.363281 -0.460938 3.269531 -0.398438 3.125 -0.296875 C 2.988281 -0.203125 2.828125 -0.109375 2.640625 -0.015625 C 2.460938 0.0664062 2.3125 0.109375 2.1875 0.109375 Z M 2.1875 0.109375 "/></g></g></g><g fill="rgb(100%, 100%, 100%)" fill-opacity="1"><g transform="translate(184.269562, 233.804017)"><g><path d="M 1.84375 0.109375 C 1.4375 0.109375 1.148438 0.0234375 0.984375 -0.140625 C 0.816406 -0.304688 0.734375 -0.582031 0.734375 -0.96875 L 0.734375 -3.171875 C 0.734375 -3.328125 0.695312 -3.4375 0.625 -3.5 C 0.550781 -3.570312 0.414062 -3.609375 0.21875 -3.609375 L 0.1875 -3.671875 L 0.234375 -3.9375 C 0.398438 -4.019531 0.566406 -4.117188 0.734375 -4.234375 C 0.898438 -4.359375 1.035156 -4.46875 1.140625 -4.5625 C 1.242188 -4.65625 1.3125 -4.71875 1.34375 -4.75 L 1.515625 -4.671875 C 1.503906 -4.640625 1.492188 -4.566406 1.484375 -4.453125 C 1.472656 -4.347656 1.460938 -4.195312 1.453125 -4 L 2.75 -4.03125 L 2.78125 -4 L 2.703125 -3.53125 L 1.40625 -3.5625 C 1.363281 -2.90625 1.34375 -2.160156 1.34375 -1.328125 C 1.34375 -1.023438 1.394531 -0.8125 1.5 -0.6875 C 1.601562 -0.5625 1.785156 -0.5 2.046875 -0.5 C 2.128906 -0.5 2.210938 -0.507812 2.296875 -0.53125 C 2.390625 -0.5625 2.46875 -0.585938 2.53125 -0.609375 C 2.59375 -0.640625 2.632812 -0.65625 2.65625 -0.65625 L 2.734375 -0.421875 C 2.703125 -0.398438 2.628906 -0.347656 2.515625 -0.265625 C 2.398438 -0.179688 2.273438 -0.0976562 2.140625 -0.015625 C 2.003906 0.0664062 1.90625 0.109375 1.84375 0.109375 Z M 1.84375 0.109375 "/></g></g></g><g fill="rgb(100%, 100%, 100%)" fill-opacity="1"><g transform="translate(187.214631, 233.804017)"><g><path d="M 0.5625 1.265625 L 0.5625 1.171875 C 0.769531 1.035156 0.9375 0.867188 1.0625 0.671875 C 1.195312 0.472656 1.265625 0.28125 1.265625 0.09375 C 1.265625 -0.0195312 1.238281 -0.128906 1.1875 -0.234375 C 1.132812 -0.347656 1.066406 -0.445312 0.984375 -0.53125 L 1 -0.65625 C 1.195312 -0.8125 1.367188 -0.890625 1.515625 -0.890625 C 1.648438 -0.890625 1.757812 -0.828125 1.84375 -0.703125 C 1.925781 -0.578125 1.96875 -0.40625 1.96875 -0.1875 C 1.96875 0.125 1.84375 0.414062 1.59375 0.6875 C 1.34375 0.96875 1.050781 1.207031 0.71875 1.40625 Z M 0.5625 1.265625 "/></g></g></g><g fill="rgb(100%, 100%, 100%)" fill-opacity="1"><g transform="translate(189.838426, 233.804017)"><g/></g></g><g fill="rgb(100%, 100%, 100%)" fill-opacity="1"><g transform="translate(191.605474, 233.804017)"><g><path d="M 4.75 -1.484375 C 4.644531 -1.003906 4.5625 -0.503906 4.5 0.015625 L 4.453125 0.0625 C 3.210938 0.0195312 2.3125 0 1.75 0 C 1.3125 0 0.898438 0.03125 0.515625 0.09375 L 0.578125 -0.328125 C 0.835938 -0.359375 1.015625 -0.425781 1.109375 -0.53125 C 1.210938 -0.632812 1.265625 -0.816406 1.265625 -1.078125 L 1.28125 -4.8125 C 1.28125 -5.007812 1.253906 -5.140625 1.203125 -5.203125 C 1.160156 -5.265625 1.078125 -5.296875 0.953125 -5.296875 L 0.640625 -5.28125 L 0.625 -5.3125 L 0.6875 -5.703125 C 1.289062 -5.691406 1.703125 -5.6875 1.921875 -5.6875 C 2.628906 -5.6875 3.179688 -5.691406 3.578125 -5.703125 C 3.972656 -5.722656 4.316406 -5.753906 4.609375 -5.796875 L 4.625 -5.734375 C 4.519531 -5.265625 4.453125 -4.769531 4.421875 -4.25 L 4 -4.21875 L 4.015625 -4.609375 C 4.015625 -4.816406 3.988281 -4.957031 3.9375 -5.03125 C 3.882812 -5.113281 3.765625 -5.164062 3.578125 -5.1875 C 3.398438 -5.21875 3.09375 -5.234375 2.65625 -5.234375 C 2.445312 -5.234375 2.300781 -5.226562 2.21875 -5.21875 C 2.144531 -5.207031 2.09375 -5.175781 2.0625 -5.125 C 2.039062 -5.082031 2.03125 -5.003906 2.03125 -4.890625 L 1.953125 -3.15625 L 2.875 -3.15625 C 3.101562 -3.15625 3.46875 -3.1875 3.96875 -3.25 L 4 -3.203125 L 3.875 -2.671875 C 3.207031 -2.691406 2.789062 -2.703125 2.625 -2.703125 C 2.425781 -2.703125 2.195312 -2.679688 1.9375 -2.640625 L 1.90625 -0.9375 C 1.90625 -0.757812 1.914062 -0.632812 1.9375 -0.5625 C 1.96875 -0.5 2.03125 -0.457031 2.125 -0.4375 C 2.21875 -0.414062 2.378906 -0.40625 2.609375 -0.40625 C 3.109375 -0.40625 3.460938 -0.425781 3.671875 -0.46875 C 3.878906 -0.519531 4.023438 -0.613281 4.109375 -0.75 C 4.203125 -0.894531 4.273438 -1.140625 4.328125 -1.484375 L 4.71875 -1.53125 Z M 4.75 -1.484375 "/></g></g></g><g fill="rgb(100%, 100%, 100%)" fill-opacity="1"><g transform="translate(196.879836, 233.804017)"><g><path d="M 2.265625 0.015625 L 2.3125 -0.265625 C 2.46875 -0.273438 2.578125 -0.289062 2.640625 -0.3125 C 2.703125 -0.34375 2.734375 -0.390625 2.734375 -0.453125 C 2.734375 -0.535156 2.679688 -0.644531 2.578125 -0.78125 L 1.921875 -1.6875 C 1.628906 -1.332031 1.40625 -1.054688 1.25 -0.859375 C 1.101562 -0.660156 1.03125 -0.523438 1.03125 -0.453125 C 1.03125 -0.390625 1.050781 -0.347656 1.09375 -0.328125 C 1.144531 -0.316406 1.253906 -0.304688 1.421875 -0.296875 L 1.4375 -0.265625 L 1.390625 0.03125 C 1.328125 0.03125 1.21875 0.0234375 1.0625 0.015625 C 0.914062 0.00390625 0.773438 0 0.640625 0 C 0.515625 0 0.398438 0 0.296875 0 C 0.203125 0.0078125 0.140625 0.0195312 0.109375 0.03125 L 0.078125 -0.015625 L 0.140625 -0.296875 C 0.265625 -0.367188 0.367188 -0.445312 0.453125 -0.53125 C 0.546875 -0.613281 0.644531 -0.710938 0.75 -0.828125 C 0.851562 -0.953125 0.925781 -1.035156 0.96875 -1.078125 L 1.734375 -1.96875 L 1.046875 -2.9375 C 0.847656 -3.226562 0.691406 -3.421875 0.578125 -3.515625 C 0.460938 -3.609375 0.300781 -3.675781 0.09375 -3.71875 L 0.078125 -3.75 L 0.125 -4.046875 C 0.1875 -4.046875 0.304688 -4.039062 0.484375 -4.03125 C 0.671875 -4.03125 0.851562 -4.03125 1.03125 -4.03125 C 1.238281 -4.03125 1.425781 -4.035156 1.59375 -4.046875 C 1.769531 -4.054688 1.882812 -4.0625 1.9375 -4.0625 L 1.953125 -4.03125 L 1.90625 -3.75 C 1.757812 -3.75 1.65625 -3.734375 1.59375 -3.703125 C 1.53125 -3.679688 1.5 -3.640625 1.5 -3.578125 C 1.5 -3.523438 1.519531 -3.460938 1.5625 -3.390625 C 1.601562 -3.316406 1.65625 -3.238281 1.71875 -3.15625 L 2.203125 -2.4375 L 2.75 -3.125 C 2.851562 -3.25 2.925781 -3.34375 2.96875 -3.40625 C 3.007812 -3.46875 3.03125 -3.53125 3.03125 -3.59375 C 3.03125 -3.632812 3 -3.660156 2.9375 -3.671875 C 2.882812 -3.691406 2.785156 -3.703125 2.640625 -3.703125 L 2.625 -3.734375 L 2.671875 -4.03125 L 3.3125 -4.03125 C 3.445312 -4.03125 3.578125 -4.03125 3.703125 -4.03125 C 3.828125 -4.039062 3.910156 -4.050781 3.953125 -4.0625 L 3.984375 -4.015625 L 3.921875 -3.734375 C 3.765625 -3.679688 3.515625 -3.457031 3.171875 -3.0625 L 2.40625 -2.15625 L 3.234375 -0.984375 C 3.390625 -0.765625 3.535156 -0.601562 3.671875 -0.5 C 3.804688 -0.394531 3.957031 -0.335938 4.125 -0.328125 L 4.15625 -0.28125 L 4.09375 0.015625 C 4.03125 0.015625 3.921875 0.0078125 3.765625 0 C 3.609375 0 3.445312 0 3.28125 0 C 3.132812 0 2.945312 0.00390625 2.71875 0.015625 C 2.5 0.0351562 2.351562 0.046875 2.28125 0.046875 Z M 2.265625 0.015625 "/></g></g></g><g fill="rgb(100%, 100%, 100%)" fill-opacity="1"><g transform="translate(201.118957, 233.804017)"><g><path d="M 0.453125 1.765625 C 0.578125 1.742188 0.671875 1.710938 0.734375 1.671875 C 0.796875 1.640625 0.835938 1.582031 0.859375 1.5 C 0.890625 1.425781 0.90625 1.300781 0.90625 1.125 C 0.90625 0.875 0.90625 0.660156 0.90625 0.484375 L 0.921875 -0.359375 L 0.921875 -3.015625 C 0.921875 -3.210938 0.882812 -3.351562 0.8125 -3.4375 C 0.75 -3.519531 0.640625 -3.5625 0.484375 -3.5625 L 0.390625 -3.5625 L 0.359375 -3.59375 L 0.390625 -3.890625 C 0.640625 -3.929688 0.890625 -3.976562 1.140625 -4.03125 C 1.398438 -4.09375 1.5625 -4.132812 1.625 -4.15625 L 1.6875 -4.078125 C 1.675781 -4.046875 1.660156 -3.976562 1.640625 -3.875 C 1.617188 -3.78125 1.601562 -3.6875 1.59375 -3.59375 L 1.625 -3.53125 C 2.1875 -3.914062 2.535156 -4.109375 2.671875 -4.109375 C 3.003906 -4.109375 3.300781 -4.03125 3.5625 -3.875 C 3.832031 -3.71875 4.035156 -3.492188 4.171875 -3.203125 C 4.316406 -2.921875 4.390625 -2.597656 4.390625 -2.234375 C 4.390625 -1.804688 4.285156 -1.414062 4.078125 -1.0625 C 3.878906 -0.707031 3.609375 -0.421875 3.265625 -0.203125 C 2.929688 0.00390625 2.566406 0.109375 2.171875 0.109375 C 2.035156 0.109375 1.90625 0.101562 1.78125 0.09375 C 1.65625 0.0820312 1.566406 0.078125 1.515625 0.078125 L 1.53125 0.984375 C 1.53125 1.265625 1.554688 1.453125 1.609375 1.546875 C 1.660156 1.640625 1.769531 1.6875 1.9375 1.6875 L 2.25 1.6875 L 2.265625 1.71875 L 2.1875 2.046875 L 1.34375 2.046875 C 1.132812 2.046875 0.9375 2.054688 0.75 2.078125 C 0.570312 2.097656 0.457031 2.109375 0.40625 2.109375 Z M 2.421875 -0.390625 C 2.816406 -0.390625 3.128906 -0.523438 3.359375 -0.796875 C 3.585938 -1.066406 3.703125 -1.4375 3.703125 -1.90625 C 3.703125 -2.195312 3.648438 -2.460938 3.546875 -2.703125 C 3.441406 -2.953125 3.296875 -3.144531 3.109375 -3.28125 C 2.929688 -3.425781 2.738281 -3.5 2.53125 -3.5 C 2.40625 -3.5 2.253906 -3.457031 2.078125 -3.375 C 1.910156 -3.300781 1.75 -3.195312 1.59375 -3.0625 C 1.550781 -2.289062 1.53125 -1.453125 1.53125 -0.546875 C 1.644531 -0.503906 1.78125 -0.46875 1.9375 -0.4375 C 2.101562 -0.40625 2.265625 -0.390625 2.421875 -0.390625 Z M 2.421875 -0.390625 "/></g></g></g><g fill="rgb(100%, 100%, 100%)" fill-opacity="1"><g transform="translate(205.831073, 233.804017)"><g><path d="M 0.53125 -0.328125 C 0.707031 -0.335938 0.820312 -0.390625 0.875 -0.484375 C 0.9375 -0.585938 0.96875 -0.78125 0.96875 -1.0625 L 0.96875 -3.03125 C 0.96875 -3.21875 0.941406 -3.351562 0.890625 -3.4375 C 0.835938 -3.519531 0.753906 -3.5625 0.640625 -3.5625 C 0.585938 -3.5625 0.546875 -3.554688 0.515625 -3.546875 C 0.484375 -3.546875 0.460938 -3.546875 0.453125 -3.546875 L 0.40625 -3.609375 L 0.421875 -3.875 C 0.648438 -3.914062 0.890625 -3.96875 1.140625 -4.03125 C 1.398438 -4.09375 1.5625 -4.132812 1.625 -4.15625 L 1.6875 -4.09375 C 1.675781 -4.039062 1.660156 -3.914062 1.640625 -3.71875 C 1.617188 -3.53125 1.609375 -3.347656 1.609375 -3.171875 L 1.65625 -3.15625 C 1.832031 -3.425781 2.039062 -3.648438 2.28125 -3.828125 C 2.519531 -4.015625 2.726562 -4.109375 2.90625 -4.109375 C 2.988281 -4.109375 3.050781 -4.101562 3.09375 -4.09375 C 3.144531 -4.082031 3.175781 -4.070312 3.1875 -4.0625 L 3.21875 -4.03125 C 3.195312 -3.945312 3.164062 -3.769531 3.125 -3.5 C 3.09375 -3.226562 3.070312 -2.976562 3.0625 -2.75 L 2.71875 -2.734375 C 2.71875 -2.972656 2.703125 -3.132812 2.671875 -3.21875 C 2.640625 -3.300781 2.578125 -3.34375 2.484375 -3.34375 C 2.347656 -3.34375 2.207031 -3.285156 2.0625 -3.171875 C 1.914062 -3.054688 1.78125 -2.910156 1.65625 -2.734375 C 1.644531 -2.554688 1.628906 -2.269531 1.609375 -1.875 C 1.597656 -1.476562 1.585938 -1.15625 1.578125 -0.90625 C 1.578125 -0.707031 1.601562 -0.570312 1.65625 -0.5 C 1.71875 -0.425781 1.832031 -0.390625 2 -0.390625 C 2.082031 -0.390625 2.160156 -0.390625 2.234375 -0.390625 C 2.316406 -0.398438 2.375 -0.40625 2.40625 -0.40625 L 2.40625 -0.375 L 2.328125 0.015625 C 2.265625 0.015625 2.144531 0.0078125 1.96875 0 C 1.789062 0 1.609375 0 1.421875 0 C 1.203125 0 1 0.00390625 0.8125 0.015625 C 0.632812 0.0234375 0.523438 0.03125 0.484375 0.03125 Z M 0.53125 -0.328125 "/></g></g></g><g fill="rgb(100%, 100%, 100%)" fill-opacity="1"><g transform="translate(209.249147, 233.804017)"><g><path d="M 2.1875 0.109375 C 1.820312 0.109375 1.492188 0.0234375 1.203125 -0.140625 C 0.921875 -0.304688 0.703125 -0.535156 0.546875 -0.828125 C 0.398438 -1.128906 0.328125 -1.472656 0.328125 -1.859375 C 0.328125 -2.265625 0.414062 -2.640625 0.59375 -2.984375 C 0.769531 -3.335938 1.007812 -3.617188 1.3125 -3.828125 C 1.625 -4.035156 1.953125 -4.140625 2.296875 -4.140625 C 2.722656 -4.140625 3.050781 -4.03125 3.28125 -3.8125 C 3.507812 -3.59375 3.625 -3.269531 3.625 -2.84375 C 3.625 -2.675781 3.601562 -2.53125 3.5625 -2.40625 L 3.453125 -2.296875 L 0.984375 -2.296875 C 0.984375 -1.722656 1.097656 -1.28125 1.328125 -0.96875 C 1.566406 -0.65625 1.894531 -0.5 2.3125 -0.5 C 2.644531 -0.5 3.007812 -0.59375 3.40625 -0.78125 L 3.46875 -0.765625 L 3.5625 -0.5 C 3.34375 -0.34375 3.101562 -0.203125 2.84375 -0.078125 C 2.59375 0.046875 2.375 0.109375 2.1875 0.109375 Z M 2.640625 -2.71875 C 2.734375 -2.726562 2.789062 -2.742188 2.8125 -2.765625 C 2.84375 -2.796875 2.859375 -2.859375 2.859375 -2.953125 C 2.859375 -3.191406 2.796875 -3.375 2.671875 -3.5 C 2.546875 -3.625 2.363281 -3.6875 2.125 -3.6875 C 1.84375 -3.6875 1.601562 -3.585938 1.40625 -3.390625 C 1.207031 -3.203125 1.082031 -2.945312 1.03125 -2.625 Z M 2.640625 -2.71875 "/></g></g></g><g fill="rgb(100%, 100%, 100%)" fill-opacity="1"><g transform="translate(213.247305, 233.804017)"><g><path d="M 1.53125 0.109375 C 1.332031 0.109375 1.15625 0.09375 1 0.0625 C 0.84375 0.0390625 0.71875 0.015625 0.625 -0.015625 C 0.539062 -0.046875 0.488281 -0.0664062 0.46875 -0.078125 L 0.4375 -0.140625 C 0.457031 -0.234375 0.476562 -0.414062 0.5 -0.6875 C 0.519531 -0.96875 0.535156 -1.1875 0.546875 -1.34375 L 0.859375 -1.390625 C 0.859375 -0.992188 0.921875 -0.710938 1.046875 -0.546875 C 1.179688 -0.390625 1.40625 -0.3125 1.71875 -0.3125 C 1.945312 -0.3125 2.140625 -0.359375 2.296875 -0.453125 C 2.453125 -0.554688 2.53125 -0.6875 2.53125 -0.84375 C 2.53125 -0.988281 2.457031 -1.117188 2.3125 -1.234375 C 2.175781 -1.359375 1.898438 -1.53125 1.484375 -1.75 C 1.148438 -1.925781 0.90625 -2.101562 0.75 -2.28125 C 0.59375 -2.457031 0.515625 -2.65625 0.515625 -2.875 C 0.515625 -3.113281 0.585938 -3.328125 0.734375 -3.515625 C 0.878906 -3.710938 1.070312 -3.863281 1.3125 -3.96875 C 1.5625 -4.082031 1.84375 -4.140625 2.15625 -4.140625 C 2.300781 -4.140625 2.4375 -4.128906 2.5625 -4.109375 C 2.695312 -4.085938 2.804688 -4.0625 2.890625 -4.03125 C 2.972656 -4.007812 3.023438 -4 3.046875 -4 L 3.0625 -3.953125 C 3.050781 -3.890625 3.023438 -3.753906 2.984375 -3.546875 C 2.941406 -3.335938 2.914062 -3.109375 2.90625 -2.859375 L 2.5625 -2.84375 C 2.5625 -2.851562 2.566406 -2.882812 2.578125 -2.9375 C 2.585938 -3 2.59375 -3.050781 2.59375 -3.09375 C 2.59375 -3.3125 2.53125 -3.46875 2.40625 -3.5625 C 2.289062 -3.664062 2.109375 -3.71875 1.859375 -3.71875 C 1.648438 -3.71875 1.476562 -3.664062 1.34375 -3.5625 C 1.207031 -3.46875 1.140625 -3.351562 1.140625 -3.21875 C 1.140625 -3.070312 1.195312 -2.9375 1.3125 -2.8125 C 1.4375 -2.6875 1.632812 -2.554688 1.90625 -2.421875 C 2.382812 -2.160156 2.710938 -1.941406 2.890625 -1.765625 C 3.066406 -1.585938 3.15625 -1.390625 3.15625 -1.171875 C 3.15625 -0.941406 3.082031 -0.726562 2.9375 -0.53125 C 2.789062 -0.332031 2.585938 -0.175781 2.328125 -0.0625 C 2.078125 0.0507812 1.8125 0.109375 1.53125 0.109375 Z M 1.53125 0.109375 "/></g></g></g><g fill="rgb(100%, 100%, 100%)" fill-opacity="1"><g transform="translate(216.83494, 233.804017)"><g><path d="M 1.53125 0.109375 C 1.332031 0.109375 1.15625 0.09375 1 0.0625 C 0.84375 0.0390625 0.71875 0.015625 0.625 -0.015625 C 0.539062 -0.046875 0.488281 -0.0664062 0.46875 -0.078125 L 0.4375 -0.140625 C 0.457031 -0.234375 0.476562 -0.414062 0.5 -0.6875 C 0.519531 -0.96875 0.535156 -1.1875 0.546875 -1.34375 L 0.859375 -1.390625 C 0.859375 -0.992188 0.921875 -0.710938 1.046875 -0.546875 C 1.179688 -0.390625 1.40625 -0.3125 1.71875 -0.3125 C 1.945312 -0.3125 2.140625 -0.359375 2.296875 -0.453125 C 2.453125 -0.554688 2.53125 -0.6875 2.53125 -0.84375 C 2.53125 -0.988281 2.457031 -1.117188 2.3125 -1.234375 C 2.175781 -1.359375 1.898438 -1.53125 1.484375 -1.75 C 1.148438 -1.925781 0.90625 -2.101562 0.75 -2.28125 C 0.59375 -2.457031 0.515625 -2.65625 0.515625 -2.875 C 0.515625 -3.113281 0.585938 -3.328125 0.734375 -3.515625 C 0.878906 -3.710938 1.070312 -3.863281 1.3125 -3.96875 C 1.5625 -4.082031 1.84375 -4.140625 2.15625 -4.140625 C 2.300781 -4.140625 2.4375 -4.128906 2.5625 -4.109375 C 2.695312 -4.085938 2.804688 -4.0625 2.890625 -4.03125 C 2.972656 -4.007812 3.023438 -4 3.046875 -4 L 3.0625 -3.953125 C 3.050781 -3.890625 3.023438 -3.753906 2.984375 -3.546875 C 2.941406 -3.335938 2.914062 -3.109375 2.90625 -2.859375 L 2.5625 -2.84375 C 2.5625 -2.851562 2.566406 -2.882812 2.578125 -2.9375 C 2.585938 -3 2.59375 -3.050781 2.59375 -3.09375 C 2.59375 -3.3125 2.53125 -3.46875 2.40625 -3.5625 C 2.289062 -3.664062 2.109375 -3.71875 1.859375 -3.71875 C 1.648438 -3.71875 1.476562 -3.664062 1.34375 -3.5625 C 1.207031 -3.46875 1.140625 -3.351562 1.140625 -3.21875 C 1.140625 -3.070312 1.195312 -2.9375 1.3125 -2.8125 C 1.4375 -2.6875 1.632812 -2.554688 1.90625 -2.421875 C 2.382812 -2.160156 2.710938 -1.941406 2.890625 -1.765625 C 3.066406 -1.585938 3.15625 -1.390625 3.15625 -1.171875 C 3.15625 -0.941406 3.082031 -0.726562 2.9375 -0.53125 C 2.789062 -0.332031 2.585938 -0.175781 2.328125 -0.0625 C 2.078125 0.0507812 1.8125 0.109375 1.53125 0.109375 Z M 1.53125 0.109375 "/></g></g></g><g fill="rgb(100%, 100%, 100%)" fill-opacity="1"><g transform="translate(220.422575, 233.804017)"><g><path d="M 0.5625 1.265625 L 0.5625 1.171875 C 0.769531 1.035156 0.9375 0.867188 1.0625 0.671875 C 1.195312 0.472656 1.265625 0.28125 1.265625 0.09375 C 1.265625 -0.0195312 1.238281 -0.128906 1.1875 -0.234375 C 1.132812 -0.347656 1.066406 -0.445312 0.984375 -0.53125 L 1 -0.65625 C 1.195312 -0.8125 1.367188 -0.890625 1.515625 -0.890625 C 1.648438 -0.890625 1.757812 -0.828125 1.84375 -0.703125 C 1.925781 -0.578125 1.96875 -0.40625 1.96875 -0.1875 C 1.96875 0.125 1.84375 0.414062 1.59375 0.6875 C 1.34375 0.96875 1.050781 1.207031 0.71875 1.40625 Z M 0.5625 1.265625 "/></g></g></g><g fill="rgb(100%, 100%, 100%)" fill-opacity="1"><g transform="translate(223.046371, 233.804017)"><g/></g></g><g fill="rgb(100%, 100%, 100%)" fill-opacity="1"><g transform="translate(224.813419, 233.804017)"><g><path d="M 4.5625 0.140625 C 4.414062 0.140625 4.257812 0.0664062 4.09375 -0.078125 C 3.925781 -0.234375 3.769531 -0.441406 3.625 -0.703125 L 2.671875 -2.4375 L 1.921875 -2.4375 L 1.90625 -1.109375 C 1.90625 -0.878906 1.914062 -0.710938 1.9375 -0.609375 C 1.96875 -0.515625 2.023438 -0.453125 2.109375 -0.421875 C 2.191406 -0.390625 2.335938 -0.375 2.546875 -0.375 L 2.5625 -0.34375 L 2.484375 0.03125 C 2.410156 0.03125 2.265625 0.0234375 2.046875 0.015625 C 1.835938 0.015625 1.617188 0.015625 1.390625 0.015625 C 1.179688 0.015625 0.992188 0.015625 0.828125 0.015625 C 0.671875 0.0234375 0.566406 0.03125 0.515625 0.03125 L 0.59375 -0.359375 C 0.78125 -0.390625 0.921875 -0.425781 1.015625 -0.46875 C 1.109375 -0.507812 1.171875 -0.570312 1.203125 -0.65625 C 1.242188 -0.75 1.265625 -0.890625 1.265625 -1.078125 L 1.28125 -4.8125 C 1.28125 -5.007812 1.253906 -5.140625 1.203125 -5.203125 C 1.160156 -5.265625 1.078125 -5.296875 0.953125 -5.296875 C 0.890625 -5.296875 0.828125 -5.289062 0.765625 -5.28125 C 0.703125 -5.28125 0.660156 -5.28125 0.640625 -5.28125 L 0.625 -5.3125 L 0.6875 -5.703125 C 0.757812 -5.703125 0.894531 -5.695312 1.09375 -5.6875 C 1.289062 -5.6875 1.484375 -5.6875 1.671875 -5.6875 C 1.878906 -5.6875 2.09375 -5.6875 2.3125 -5.6875 C 2.539062 -5.695312 2.695312 -5.707031 2.78125 -5.71875 C 3.332031 -5.71875 3.765625 -5.59375 4.078125 -5.34375 C 4.398438 -5.09375 4.5625 -4.75 4.5625 -4.3125 C 4.5625 -3.957031 4.445312 -3.628906 4.21875 -3.328125 C 3.988281 -3.035156 3.664062 -2.796875 3.25 -2.609375 L 4.234375 -1.046875 C 4.410156 -0.765625 4.578125 -0.566406 4.734375 -0.453125 C 4.898438 -0.347656 5.101562 -0.296875 5.34375 -0.296875 L 5.375 -0.265625 L 5.328125 0.046875 Z M 2.859375 -2.84375 C 2.859375 -2.820312 2.945312 -2.859375 3.125 -2.953125 C 3.3125 -3.054688 3.472656 -3.203125 3.609375 -3.390625 C 3.753906 -3.585938 3.828125 -3.84375 3.828125 -4.15625 C 3.828125 -4.9375 3.28125 -5.328125 2.1875 -5.328125 C 2.132812 -5.328125 2.097656 -5.3125 2.078125 -5.28125 C 2.054688 -5.257812 2.039062 -5.207031 2.03125 -5.125 C 1.976562 -4.21875 1.945312 -3.488281 1.9375 -2.9375 Z M 2.859375 -2.84375 "/></g></g></g><g fill="rgb(100%, 100%, 100%)" fill-opacity="1"><g transform="translate(230.266261, 233.804017)"><g><path d="M 2.1875 0.109375 C 1.820312 0.109375 1.492188 0.0234375 1.203125 -0.140625 C 0.921875 -0.304688 0.703125 -0.535156 0.546875 -0.828125 C 0.398438 -1.128906 0.328125 -1.472656 0.328125 -1.859375 C 0.328125 -2.265625 0.414062 -2.640625 0.59375 -2.984375 C 0.769531 -3.335938 1.007812 -3.617188 1.3125 -3.828125 C 1.625 -4.035156 1.953125 -4.140625 2.296875 -4.140625 C 2.722656 -4.140625 3.050781 -4.03125 3.28125 -3.8125 C 3.507812 -3.59375 3.625 -3.269531 3.625 -2.84375 C 3.625 -2.675781 3.601562 -2.53125 3.5625 -2.40625 L 3.453125 -2.296875 L 0.984375 -2.296875 C 0.984375 -1.722656 1.097656 -1.28125 1.328125 -0.96875 C 1.566406 -0.65625 1.894531 -0.5 2.3125 -0.5 C 2.644531 -0.5 3.007812 -0.59375 3.40625 -0.78125 L 3.46875 -0.765625 L 3.5625 -0.5 C 3.34375 -0.34375 3.101562 -0.203125 2.84375 -0.078125 C 2.59375 0.046875 2.375 0.109375 2.1875 0.109375 Z M 2.640625 -2.71875 C 2.734375 -2.726562 2.789062 -2.742188 2.8125 -2.765625 C 2.84375 -2.796875 2.859375 -2.859375 2.859375 -2.953125 C 2.859375 -3.191406 2.796875 -3.375 2.671875 -3.5 C 2.546875 -3.625 2.363281 -3.6875 2.125 -3.6875 C 1.84375 -3.6875 1.601562 -3.585938 1.40625 -3.390625 C 1.207031 -3.203125 1.082031 -2.945312 1.03125 -2.625 Z M 2.640625 -2.71875 "/></g></g></g><g fill="rgb(100%, 100%, 100%)" fill-opacity="1"><g transform="translate(234.26442, 233.804017)"><g><path d="M 1.53125 0.109375 C 1.332031 0.109375 1.15625 0.09375 1 0.0625 C 0.84375 0.0390625 0.71875 0.015625 0.625 -0.015625 C 0.539062 -0.046875 0.488281 -0.0664062 0.46875 -0.078125 L 0.4375 -0.140625 C 0.457031 -0.234375 0.476562 -0.414062 0.5 -0.6875 C 0.519531 -0.96875 0.535156 -1.1875 0.546875 -1.34375 L 0.859375 -1.390625 C 0.859375 -0.992188 0.921875 -0.710938 1.046875 -0.546875 C 1.179688 -0.390625 1.40625 -0.3125 1.71875 -0.3125 C 1.945312 -0.3125 2.140625 -0.359375 2.296875 -0.453125 C 2.453125 -0.554688 2.53125 -0.6875 2.53125 -0.84375 C 2.53125 -0.988281 2.457031 -1.117188 2.3125 -1.234375 C 2.175781 -1.359375 1.898438 -1.53125 1.484375 -1.75 C 1.148438 -1.925781 0.90625 -2.101562 0.75 -2.28125 C 0.59375 -2.457031 0.515625 -2.65625 0.515625 -2.875 C 0.515625 -3.113281 0.585938 -3.328125 0.734375 -3.515625 C 0.878906 -3.710938 1.070312 -3.863281 1.3125 -3.96875 C 1.5625 -4.082031 1.84375 -4.140625 2.15625 -4.140625 C 2.300781 -4.140625 2.4375 -4.128906 2.5625 -4.109375 C 2.695312 -4.085938 2.804688 -4.0625 2.890625 -4.03125 C 2.972656 -4.007812 3.023438 -4 3.046875 -4 L 3.0625 -3.953125 C 3.050781 -3.890625 3.023438 -3.753906 2.984375 -3.546875 C 2.941406 -3.335938 2.914062 -3.109375 2.90625 -2.859375 L 2.5625 -2.84375 C 2.5625 -2.851562 2.566406 -2.882812 2.578125 -2.9375 C 2.585938 -3 2.59375 -3.050781 2.59375 -3.09375 C 2.59375 -3.3125 2.53125 -3.46875 2.40625 -3.5625 C 2.289062 -3.664062 2.109375 -3.71875 1.859375 -3.71875 C 1.648438 -3.71875 1.476562 -3.664062 1.34375 -3.5625 C 1.207031 -3.46875 1.140625 -3.351562 1.140625 -3.21875 C 1.140625 -3.070312 1.195312 -2.9375 1.3125 -2.8125 C 1.4375 -2.6875 1.632812 -2.554688 1.90625 -2.421875 C 2.382812 -2.160156 2.710938 -1.941406 2.890625 -1.765625 C 3.066406 -1.585938 3.15625 -1.390625 3.15625 -1.171875 C 3.15625 -0.941406 3.082031 -0.726562 2.9375 -0.53125 C 2.789062 -0.332031 2.585938 -0.175781 2.328125 -0.0625 C 2.078125 0.0507812 1.8125 0.109375 1.53125 0.109375 Z M 1.53125 0.109375 "/></g></g></g><g fill="rgb(100%, 100%, 100%)" fill-opacity="1"><g transform="translate(237.852055, 233.804017)"><g><path d="M 1.84375 0.109375 C 1.4375 0.109375 1.148438 0.0234375 0.984375 -0.140625 C 0.816406 -0.304688 0.734375 -0.582031 0.734375 -0.96875 L 0.734375 -3.171875 C 0.734375 -3.328125 0.695312 -3.4375 0.625 -3.5 C 0.550781 -3.570312 0.414062 -3.609375 0.21875 -3.609375 L 0.1875 -3.671875 L 0.234375 -3.9375 C 0.398438 -4.019531 0.566406 -4.117188 0.734375 -4.234375 C 0.898438 -4.359375 1.035156 -4.46875 1.140625 -4.5625 C 1.242188 -4.65625 1.3125 -4.71875 1.34375 -4.75 L 1.515625 -4.671875 C 1.503906 -4.640625 1.492188 -4.566406 1.484375 -4.453125 C 1.472656 -4.347656 1.460938 -4.195312 1.453125 -4 L 2.75 -4.03125 L 2.78125 -4 L 2.703125 -3.53125 L 1.40625 -3.5625 C 1.363281 -2.90625 1.34375 -2.160156 1.34375 -1.328125 C 1.34375 -1.023438 1.394531 -0.8125 1.5 -0.6875 C 1.601562 -0.5625 1.785156 -0.5 2.046875 -0.5 C 2.128906 -0.5 2.210938 -0.507812 2.296875 -0.53125 C 2.390625 -0.5625 2.46875 -0.585938 2.53125 -0.609375 C 2.59375 -0.640625 2.632812 -0.65625 2.65625 -0.65625 L 2.734375 -0.421875 C 2.703125 -0.398438 2.628906 -0.347656 2.515625 -0.265625 C 2.398438 -0.179688 2.273438 -0.0976562 2.140625 -0.015625 C 2.003906 0.0664062 1.90625 0.109375 1.84375 0.109375 Z M 1.84375 0.109375 "/></g></g></g><g fill="rgb(100%, 100%, 100%)" fill-opacity="1"><g transform="translate(240.797123, 233.804017)"><g/></g></g><g fill="rgb(100%, 100%, 100%)" fill-opacity="1"><g transform="translate(242.564171, 233.804017)"><g><path d="M 2.9375 0.03125 L 2.96875 -0.328125 C 3.269531 -0.347656 3.476562 -0.378906 3.59375 -0.421875 C 3.707031 -0.472656 3.765625 -0.550781 3.765625 -0.65625 C 3.765625 -0.78125 3.738281 -0.925781 3.6875 -1.09375 L 3.390625 -2.0625 C 3.242188 -2.0625 2.9375 -2.0625 2.46875 -2.0625 C 2.175781 -2.0625 1.847656 -2.039062 1.484375 -2 L 1.15625 -1.078125 C 1.101562 -0.910156 1.078125 -0.789062 1.078125 -0.71875 C 1.078125 -0.59375 1.117188 -0.5 1.203125 -0.4375 C 1.285156 -0.382812 1.421875 -0.359375 1.609375 -0.359375 L 2.125 -0.359375 L 2.140625 -0.328125 L 2.09375 0.0625 C 2.019531 0.0507812 1.851562 0.0351562 1.59375 0.015625 C 1.34375 0.00390625 1.09375 0 0.84375 0 C 0.625 0 0.421875 0 0.234375 0 C 0.046875 0.0078125 -0.078125 0.0195312 -0.140625 0.03125 L -0.0625 -0.390625 C 0.101562 -0.410156 0.234375 -0.46875 0.328125 -0.5625 C 0.429688 -0.664062 0.535156 -0.835938 0.640625 -1.078125 L 2.375 -5.640625 L 2.9375 -5.796875 L 3 -5.796875 C 3.039062 -5.648438 3.132812 -5.316406 3.28125 -4.796875 C 3.425781 -4.285156 3.601562 -3.675781 3.8125 -2.96875 C 4.019531 -2.257812 4.222656 -1.609375 4.421875 -1.015625 C 4.492188 -0.785156 4.585938 -0.625 4.703125 -0.53125 C 4.828125 -0.445312 5.019531 -0.394531 5.28125 -0.375 L 5.296875 -0.34375 L 5.234375 0.03125 C 5.160156 0.03125 5.03125 0.0234375 4.84375 0.015625 C 4.65625 0.00390625 4.472656 0 4.296875 0 C 4.003906 0 3.722656 0.0078125 3.453125 0.03125 C 3.191406 0.0625 3.03125 0.0820312 2.96875 0.09375 Z M 2.4375 -2.4375 C 2.644531 -2.4375 2.921875 -2.453125 3.265625 -2.484375 L 2.5625 -4.8125 L 2.5 -4.8125 L 1.65625 -2.4375 Z M 2.4375 -2.4375 "/></g></g></g><g fill="rgb(100%, 100%, 100%)" fill-opacity="1"><g transform="translate(247.776062, 233.804017)"><g><path d="M 0.625 -0.34375 C 0.882812 -0.382812 1.054688 -0.453125 1.140625 -0.546875 C 1.222656 -0.640625 1.265625 -0.816406 1.265625 -1.078125 L 1.28125 -4.8125 C 1.28125 -5.007812 1.253906 -5.140625 1.203125 -5.203125 C 1.160156 -5.265625 1.078125 -5.296875 0.953125 -5.296875 C 0.890625 -5.296875 0.828125 -5.289062 0.765625 -5.28125 C 0.703125 -5.28125 0.660156 -5.28125 0.640625 -5.28125 L 0.625 -5.3125 L 0.6875 -5.703125 C 0.757812 -5.703125 0.894531 -5.695312 1.09375 -5.6875 C 1.289062 -5.6875 1.484375 -5.6875 1.671875 -5.6875 C 1.859375 -5.6875 2.066406 -5.6875 2.296875 -5.6875 C 2.535156 -5.695312 2.703125 -5.707031 2.796875 -5.71875 C 3.421875 -5.71875 3.894531 -5.578125 4.21875 -5.296875 C 4.539062 -5.023438 4.703125 -4.632812 4.703125 -4.125 C 4.703125 -3.789062 4.601562 -3.472656 4.40625 -3.171875 C 4.21875 -2.878906 3.96875 -2.640625 3.65625 -2.453125 C 3.34375 -2.265625 3.015625 -2.171875 2.671875 -2.171875 L 1.921875 -2.171875 L 1.90625 -1.296875 C 1.90625 -1.015625 1.910156 -0.8125 1.921875 -0.6875 C 1.941406 -0.570312 1.976562 -0.492188 2.03125 -0.453125 C 2.082031 -0.410156 2.171875 -0.390625 2.296875 -0.390625 C 2.390625 -0.390625 2.484375 -0.390625 2.578125 -0.390625 C 2.671875 -0.398438 2.738281 -0.410156 2.78125 -0.421875 L 2.796875 -0.390625 L 2.71875 0.03125 C 2.65625 0.0195312 2.546875 0.0078125 2.390625 0 C 2.234375 0 2.066406 0 1.890625 0 C 1.648438 0 1.367188 0.00390625 1.046875 0.015625 C 0.734375 0.0351562 0.570312 0.0546875 0.5625 0.078125 Z M 2.875 -2.5625 C 3.238281 -2.625 3.507812 -2.769531 3.6875 -3 C 3.875 -3.238281 3.96875 -3.5625 3.96875 -3.96875 C 3.96875 -4.414062 3.832031 -4.742188 3.5625 -4.953125 C 3.289062 -5.171875 2.863281 -5.28125 2.28125 -5.28125 C 2.175781 -5.28125 2.109375 -5.273438 2.078125 -5.265625 C 2.054688 -5.253906 2.046875 -5.21875 2.046875 -5.15625 C 1.992188 -4.40625 1.957031 -3.585938 1.9375 -2.703125 Z M 2.875 -2.5625 "/></g></g></g><g fill="rgb(100%, 100%, 100%)" fill-opacity="1"><g transform="translate(252.693439, 233.804017)"><g><path d="M 0.546875 -0.296875 C 0.828125 -0.359375 1.015625 -0.441406 1.109375 -0.546875 C 1.210938 -0.648438 1.265625 -0.828125 1.265625 -1.078125 L 1.28125 -4.8125 C 1.28125 -5.007812 1.253906 -5.140625 1.203125 -5.203125 C 1.160156 -5.265625 1.078125 -5.296875 0.953125 -5.296875 L 0.578125 -5.28125 L 0.546875 -5.3125 L 0.609375 -5.703125 C 0.710938 -5.703125 0.789062 -5.703125 0.84375 -5.703125 L 1.671875 -5.6875 C 1.941406 -5.6875 2.285156 -5.710938 2.703125 -5.765625 L 2.671875 -5.359375 C 2.421875 -5.328125 2.253906 -5.273438 2.171875 -5.203125 C 2.085938 -5.140625 2.039062 -5.023438 2.03125 -4.859375 C 1.988281 -4.160156 1.957031 -3.429688 1.9375 -2.671875 C 1.914062 -1.910156 1.90625 -1.351562 1.90625 -1 C 1.90625 -0.757812 1.929688 -0.597656 1.984375 -0.515625 C 2.035156 -0.429688 2.140625 -0.390625 2.296875 -0.390625 C 2.390625 -0.390625 2.546875 -0.398438 2.765625 -0.421875 L 2.78125 -0.390625 L 2.703125 0.03125 C 2.617188 0.03125 2.550781 0.0234375 2.5 0.015625 C 2.082031 0.00390625 1.757812 0 1.53125 0 C 1.238281 0 0.894531 0.0351562 0.5 0.109375 Z M 0.546875 -0.296875 "/></g></g></g></svg>